SplineFontDB: 3.2
FontName: SeriousShannsLight
FullName: Serious Shanns Light
FamilyName: Serious Shanns Light
Weight: Light
Copyright: https://github.com/kaBeech/serious-shanns/blob/main/LICENSE
Version: 6.0.0
ItalicAngle: 0
UnderlinePosition: 0
UnderlineWidth: 0
Ascent: 800
Descent: 200
InvalidEm: 0
sfntRevision: 0x00003333
LayerCount: 2
Layer: 0 0 "Back" 1
Layer: 1 0 "Fore" 0
XUID: [1021 329 -1817886000 12366394]
StyleMap: 0x0040
FSType: 4
OS2Version: 3
OS2_WeightWidthSlopeOnly: 0
OS2_UseTypoMetrics: 0
CreationTime: 1532631502
ModificationTime: 315532800
PfmFamily: 81
TTFWeight: 300
TTFWidth: 5
LineGap: 0
VLineGap: 0
Panose: 0 0 0 0 0 0 0 0 0 0
OS2TypoAscent: 613
OS2TypoAOffset: 0
OS2TypoDescent: -188
OS2TypoDOffset: 0
OS2TypoLinegap: 98
OS2WinAscent: 778
OS2WinAOffset: 0
OS2WinDescent: 308
OS2WinDOffset: 0
HheadAscent: 796
HheadAOffset: 0
HheadDescent: -317
HheadDOffset: 0
OS2SubXSize: 317
OS2SubYSize: 293
OS2SubXOff: 0
OS2SubYOff: 37
OS2SupXSize: 317
OS2SupYSize: 293
OS2SupXOff: 0
OS2SupYOff: 171
OS2StrikeYSize: 0
OS2StrikeYPos: 132
OS2CapHeight: 576
OS2XHeight: 485
OS2Vendor: 'NONE'
OS2CodePages: 00000001.00000000
OS2UnicodeRanges: 00000001.00000000.00000000.00000000
MarkAttachClasses: 1
DEI: 91125
LangName: 1033 "" "" "Normal" "FontForge 2.0 : Serious Shanns Light : 1-1-1980" "" "Version 0.2.0"
Encoding: UnicodeBmp
Compacted: 1
UnicodeInterp: none
NameList: AGL For New Fonts
DisplaySize: -48
AntiAlias: 1
FitToEm: 0
WinInfo: 48 16 4
BeginPrivate: 8
BlueValues 32 [-39 -8 492 523 690 718 765 769]
OtherBlues 11 [-297 -287]
BlueScale 9 0.0333333
BlueShift 2 17
StdHW 4 [67]
StdVW 4 [73]
StemSnapH 4 [67]
StemSnapV 7 [68 73]
EndPrivate
BeginChars: 65537 105

StartChar: .notdef
Encoding: 65536 -1 0
Width: 590
GlyphClass: 1
Flags: HMW
HStem: -258 34<124.5 465.5 124.5 499.5> 705 34<124.5 465.5 124.5 124.5>
VStem: 90.5 34<-224 -224 -224 705> 465.5 34<-224 705 705 705>
LayerCount: 2
Fore
SplineSet
90.5 739 m 1
 499.5 739 l 1
 499.5 -258 l 1
 90.5 -258 l 1
 90.5 739 l 1
124.5 -224 m 1
 465.5 -224 l 1
 465.5 705 l 1
 124.5 705 l 1
 124.5 -224 l 1
EndSplineSet
Validated: 524289
EndChar

StartChar: exclam
Encoding: 33 33 2
Width: 590
GlyphClass: 2
Flags: HMW
HStem: -15.3799 135.375
VStem: 223.5 143.001 257.5 78.001 265.5 72
LayerCount: 2
Fore
SplineSet
343.5 738 m 0x90
 343.5 732 342.166992188 694.669921875 339.5 626.002929688 c 0
 337.5 557.3359375 336.5 507.668945312 336.5 477.001953125 c 0
 336.166015625 461.66796875 335.999023438 447.583984375 335.999023438 434.75 c 0
 335.999023438 421.916015625 336.166015625 410.33203125 336.5 399.998046875 c 0
 337.166992188 379.331054688 337.5 361.6640625 337.5 346.997070312 c 0x90
 337.5 332.330078125 337.166992188 322.663085938 336.5 317.99609375 c 0
 335.611328125 311.331054688 335.166992188 302.1484375 335.166992188 290.44921875 c 0
 335.166992188 284.594726562 335.27734375 278.110351562 335.5 270.99609375 c 0xa0
 334.16796875 259.663085938 329.5 250.663085938 321.5 243.99609375 c 0
 314.16796875 237.329101562 305.16796875 233.99609375 294.5 233.99609375 c 2
 291.5 233.99609375 l 2
 280.833984375 234.663085938 272.166992188 238.330078125 265.5 244.997070312 c 0x90
 260.166992188 250.997070312 257.5 259.330078125 257.5 269.997070312 c 0xa0
 257.5 276.6640625 258.83203125 287.997070312 261.5 303.997070312 c 0
 263.5 313.330078125 264.83203125 323.330078125 265.5 333.997070312 c 0
 266.166992188 344.6640625 266.5 367.331054688 266.5 401.998046875 c 0
 266.5 415.998046875 265.83203125 437.331054688 264.5 465.998046875 c 0
 263.166992188 497.331054688 262.5 531.6640625 262.5 568.997070312 c 0
 263.166992188 596.330078125 264.166992188 634.997070312 265.5 684.997070312 c 0
 266.166992188 710.330078125 266.5 726.997070312 266.5 734.997070312 c 0
 267.166992188 750.330078125 271.166992188 761.663085938 278.5 768.99609375 c 0
 285.83203125 776.329101562 295.166015625 779.99609375 306.499023438 779.99609375 c 2
 309.499023438 779.99609375 l 2
 319.499023438 779.99609375 327.499023438 776.99609375 333.499023438 770.99609375 c 0
 340.166015625 764.329101562 343.5 753.333007812 343.5 738 c 0x90
347.499023438 7.9990234375 m 0
 334.83203125 -4.66796875 317.83203125 -12.3349609375 296.499023438 -15.001953125 c 0
 293.83203125 -15.251953125 291.2265625 -15.376953125 288.685546875 -15.376953125 c 0
 270.89453125 -15.376953125 256.166015625 -9.251953125 244.5 2.998046875 c 0
 230.5 16.998046875 223.5 33.998046875 223.5 53.998046875 c 0
 223.5 71.3310546875 230.83203125 86.3310546875 245.5 98.998046875 c 0
 262.166992188 112.998046875 280.833984375 119.998046875 301.5 119.998046875 c 0
 320.16796875 119.998046875 335.5 113.998046875 347.5 101.998046875 c 0
 360.16796875 89.3310546875 366.5 73.6640625 366.5 54.9970703125 c 0xc0
 366.5 36.330078125 360.166015625 20.666015625 347.499023438 7.9990234375 c 0
EndSplineSet
Validated: 524289
EndChar

StartChar: quotedbl
Encoding: 34 34 3
Width: 590
GlyphClass: 2
Flags: HMW
HStem: 444.999 328.002
VStem: 172.5 84 331.502 86.998
LayerCount: 2
Fore
SplineSet
377.499023438 773.000976562 m 0
 387.499023438 773.000976562 396.499023438 770.66796875 404.499023438 766.000976562 c 0
 408.499023438 764.000976562 411.833007812 760.66796875 414.499023438 756.000976562 c 0
 417.166992188 750.66796875 418.499023438 744.66796875 418.499023438 738.000976562 c 2
 418.499023438 696.000976562 l 2
 418.499023438 676.66796875 417.833007812 641.000976562 416.499023438 589.000976562 c 0
 415.166992188 537.000976562 413.166992188 499.333984375 410.499023438 476.000976562 c 0
 409.166992188 466.000976562 404.833984375 458.33203125 397.500976562 452.999023438 c 0
 390.833984375 447.666015625 383.500976562 444.999023438 375.500976562 444.999023438 c 2
 372.500976562 444.999023438 l 2
 361.833984375 445.666015625 351.833984375 449.333007812 342.500976562 456 c 0
 335.833984375 460.666992188 332.500976562 467.333984375 332.500976562 476.000976562 c 0
 333.166992188 477.333984375 333.500976562 479.000976562 333.500976562 481.000976562 c 0
 334.833984375 506.333984375 335.500976562 537.3359375 335.500976562 574.002929688 c 2
 335.500976562 612.000976562 l 2
 334.166992188 665.333984375 332.834960938 709.333984375 331.501953125 744.000976562 c 2
 331.501953125 746.002929688 l 2
 331.501953125 751.3359375 332.833984375 756.000976562 335.500976562 760.000976562 c 0
 338.166992188 764.000976562 341.501953125 766.66796875 345.501953125 768.000976562 c 0
 354.834960938 772.000976562 363.501953125 774.002929688 371.501953125 774.002929688 c 0
 374.168945312 773.3359375 376.166992188 773.000976562 377.499023438 773.000976562 c 0
250.499023438 476.000976562 m 0
 249.166015625 465.333984375 244.833984375 457.666015625 237.500976562 452.999023438 c 0
 229.500976562 447.666015625 221.833984375 444.999023438 214.500976562 444.999023438 c 2
 212.500976562 444.999023438 l 2
 201.833984375 445.666015625 191.833984375 449.333007812 182.500976562 456 c 0
 175.833984375 460.666992188 172.500976562 467.333984375 172.500976562 476.000976562 c 2
 172.500976562 481.000976562 l 2
 174.500976562 507.66796875 175.500976562 540.000976562 175.500976562 578.000976562 c 0
 174.833984375 588.66796875 174.500976562 600.000976562 174.500976562 612.000976562 c 0
 173.166992188 665.333984375 172.166992188 709.333984375 171.500976562 744.000976562 c 2
 171.500976562 747.000976562 l 2
 171.500976562 751.66796875 172.500976562 756.000976562 174.500976562 760.000976562 c 0
 177.166992188 764.000976562 180.500976562 766.66796875 184.500976562 768.000976562 c 0
 193.643554688 771.4296875 203.030273438 773.14453125 212.663085938 773.14453125 c 0
 214.268554688 773.14453125 215.880859375 773.096679688 217.499023438 773.000976562 c 0
 227.499023438 773.000976562 236.499023438 770.66796875 244.499023438 766.000976562 c 0
 247.833007812 764.000976562 250.833007812 760.66796875 253.499023438 756.000976562 c 0
 256.166992188 750.66796875 257.499023438 744.334960938 257.499023438 737.001953125 c 0
 258.166992188 729.001953125 258.499023438 715.668945312 258.499023438 697.001953125 c 0
 258.499023438 678.334960938 257.833007812 642.66796875 256.499023438 590.000976562 c 0
 255.166992188 537.333984375 253.166015625 499.333984375 250.499023438 476.000976562 c 0
EndSplineSet
Validated: 524289
EndChar

StartChar: numbersign
Encoding: 35 35 4
Width: 590
GlyphClass: 2
Flags: HMW
HStem: 200 63.999 454.998 65.002 695.002 20G
LayerCount: 2
Fore
SplineSet
254.502929688 454.998046875 m 1
 215.498046875 263.999023438 l 1
 250.831054688 264.666015625 294.168945312 264.998046875 345.501953125 264.998046875 c 2
 353.501953125 264.998046875 l 1
 365.501953125 324.998046875 377.168945312 388.331054688 388.501953125 454.998046875 c 1
 254.502929688 454.998046875 l 1
211.497070312 200 m 1
 203.497070312 200 l 1
 188.1640625 122.666992188 177.497070312 70.6669921875 171.497070312 44 c 0
 167.497070312 32 159.1640625 22.3330078125 146.497070312 15 c 0
 138.497070312 10.3330078125 130.830078125 7.9990234375 123.497070312 7.9990234375 c 0
 120.1640625 7.33203125 116.831054688 7.6650390625 113.498046875 8.998046875 c 0
 104.165039062 10.998046875 97.1650390625 17.666015625 92.498046875 28.9990234375 c 0
 89.8310546875 35.666015625 88.4970703125 42.3330078125 88.4970703125 49 c 0
 88.4970703125 55.6669921875 89.498046875 62.6669921875 91.498046875 70 c 0
 96.8310546875 86.6669921875 107.1640625 129.666992188 122.497070312 199 c 1
 80.4970703125 199 l 2
 65.1640625 199 54.1640625 201.666992188 47.4970703125 207 c 0
 41.4970703125 211.666992188 38.4970703125 218 38.4970703125 226 c 2
 38.4970703125 228 l 2
 39.1640625 236.666992188 42.1640625 243.666992188 47.4970703125 249 c 0
 53.4970703125 255.666992188 63.830078125 259.333984375 78.4970703125 260.000976562 c 0
 83.1640625 260.66796875 91.1640625 261.000976562 102.497070312 261.000976562 c 0
 113.830078125 261.000976562 124.830078125 261.333984375 135.497070312 262.000976562 c 1
 173.497070312 454.000976562 l 1
 161.497070312 454.000976562 l 1
 119.497070312 453.000976562 l 1
 116.497070312 453.000976562 l 2
 104.497070312 452.333984375 95.1640625 455.000976562 88.4970703125 461.000976562 c 0
 81.830078125 466.333984375 78.4970703125 473.333984375 78.4970703125 482.000976562 c 2
 78.4970703125 485.000976562 l 2
 78.4970703125 493.000976562 81.4970703125 500.000976562 87.4970703125 506.000976562 c 0
 94.1640625 512.66796875 104.830078125 516.334960938 119.497070312 517.001953125 c 0
 132.1640625 517.668945312 151.498046875 518.001953125 177.498046875 518.001953125 c 2
 185.498046875 518.001953125 l 1
 215.498046875 680.001953125 l 2
 220.165039062 694.001953125 226.83203125 703.668945312 235.499023438 709.001953125 c 0
 242.166015625 713.001953125 248.833007812 715.001953125 255.5 715.001953125 c 0
 258.166992188 715.001953125 261.166992188 714.668945312 264.5 714.001953125 c 0
 276.5 711.334960938 285.5 705.66796875 291.5 697.000976562 c 0
 294.833007812 691.66796875 296.5 685.000976562 296.5 677.000976562 c 0
 297.166992188 672.333984375 296.833984375 667.666992188 295.500976562 663 c 2
 266.500976562 520 l 1
 399.500976562 520 l 1
 427.500976562 673 l 2
 432.16796875 687 438.834960938 696.666992188 447.501953125 702 c 0
 453.501953125 706 459.834960938 708 466.501953125 708 c 0
 469.834960938 707.333007812 473.501953125 706.666015625 477.501953125 705.999023438 c 0
 489.501953125 703.33203125 498.501953125 697.999023438 504.501953125 689.999023438 c 0
 507.834960938 685.33203125 509.501953125 679.33203125 509.501953125 671.999023438 c 0
 509.501953125 667.33203125 508.834960938 661.999023438 507.501953125 655.999023438 c 0
 500.168945312 627.999023438 491.168945312 582.999023438 480.501953125 520.999023438 c 1
 492.501953125 520.999023438 l 1
 503.501953125 520.999023438 l 2
 517.501953125 520.999023438 528.834960938 517.33203125 537.501953125 509.999023438 c 0
 546.168945312 502.666015625 550.8359375 495.333007812 551.502929688 488 c 0
 550.8359375 479.333007812 547.502929688 471.666015625 541.502929688 464.999023438 c 0
 535.502929688 458.999023438 525.8359375 455.665039062 512.502929688 454.998046875 c 2
 467.502929688 454.998046875 l 1
 435.502929688 263.999023438 l 1
 488.501953125 263.999023438 l 2
 501.168945312 263.999023438 509.502929688 261.666015625 513.502929688 256.999023438 c 0
 517.502929688 252.33203125 519.8359375 245.33203125 520.502929688 235.999023438 c 0
 520.502929688 225.33203125 518.502929688 217.33203125 514.502929688 211.999023438 c 0
 509.8359375 205.33203125 501.168945312 201.999023438 488.501953125 201.999023438 c 2
 424.501953125 201.999023438 l 1
 410.501953125 121.33203125 400.501953125 67.33203125 394.501953125 39.9990234375 c 0
 389.834960938 28.666015625 381.834960938 19.9990234375 370.501953125 13.9990234375 c 0
 363.168945312 9.9990234375 355.8359375 7.9990234375 348.502929688 7.9990234375 c 0
 345.169921875 7.33203125 341.502929688 7.6650390625 337.502929688 8.998046875 c 0
 327.502929688 11.6650390625 320.169921875 17.998046875 315.502929688 27.998046875 c 0
 312.8359375 33.998046875 311.502929688 39.998046875 311.502929688 45.998046875 c 0
 311.502929688 51.998046875 312.502929688 58.6650390625 314.502929688 65.998046875 c 0
 321.169921875 92.6650390625 330.502929688 137.665039062 342.502929688 200.998046875 c 1
 330.502929688 200.998046875 l 1
 211.497070312 200 l 1
EndSplineSet
Validated: 524289
EndChar

StartChar: dollar
Encoding: 36 36 5
Width: 590
GlyphClass: 2
Flags: HMW
HStem: -18.9971 64.9971 368 63.0029 653 59<329.498 338.5 329.498 338.5>
VStem: 87.501 72.999 267.5 58 267.5 63.002 446.499 73.999
LayerCount: 2
Fore
SplineSet
442 245.50390625 m 0xfa
 439 257.170898438 433.5 269.337890625 425.5 282.004882812 c 0
 417.5 294.671875 405.833007812 306.338867188 390.5 317.005859375 c 0
 375.166992188 327.005859375 357.166992188 336.005859375 336.5 344.005859375 c 2
 325.5 349.005859375 l 1
 325.5 335.005859375 l 1
 324.499023438 187.005859375 l 2
 323.83203125 132.338867188 323.165039062 89.671875 322.498046875 59.0048828125 c 1
 335.499023438 65 l 2
 366.166015625 79 392.166015625 98.337890625 413.499023438 123.004882812 c 0
 435.499023438 147.671875 446.499023438 176.004882812 446.499023438 208.004882812 c 0
 446.499023438 221.337890625 445 233.836914062 442 245.50390625 c 0xfa
188.498046875 469.002929688 m 0
 205.165039062 451.669921875 227.83203125 439.002929688 256.499023438 431.002929688 c 2
 267.5 429.002929688 l 1xf6
 268.166992188 483.002929688 268.499023438 551.002929688 268.499023438 633.002929688 c 2
 268.499023438 646.002929688 l 1
 256.499023438 643.002929688 l 2
 229.166015625 633.669921875 206.833007812 619.336914062 189.5 600.00390625 c 0
 170.166992188 581.336914062 160.5 558.336914062 160.5 531.00390625 c 0
 160.5 507.00390625 169.831054688 486.3359375 188.498046875 469.002929688 c 0
191.5 -11 m 0
 171.5 -5.6669921875 154.501953125 2 140.501953125 12 c 0
 111.834960938 30.6669921875 90.8349609375 52.333984375 77.501953125 77.0009765625 c 0
 72.1689453125 89.0009765625 69.501953125 99.333984375 69.501953125 108.000976562 c 0
 69.501953125 119.333984375 74.8349609375 127.666992188 85.501953125 133 c 0
 92.8349609375 136.333007812 98.16796875 138.333007812 101.500976562 139 c 0
 104.833984375 139.666992188 107.500976562 140 109.500976562 140 c 2
 115.500976562 140 l 2
 119.500976562 140 123.66796875 138.166992188 128.000976562 134.5 c 0
 132.333984375 130.833007812 137.166992188 125 142.5 117 c 0
 156.5 95 172.833007812 77.6669921875 191.5 65 c 0
 208.166992188 52.3330078125 229.166015625 46 254.499023438 46 c 2
 256.499023438 46 l 1
 265.5 46 l 1
 266.833007812 164 267.5 266.666992188 267.5 354 c 2
 267.5 363 l 1
 258.833007812 363.666992188 251 364.5 244 365.5 c 2
 226.5 368 l 2
 205.833007812 370.666992188 186.5 376.666992188 168.5 386 c 0
 149.833007812 395.333007812 134.833007812 406.666015625 123.5 419.999023438 c 0
 112.166992188 433.33203125 103.333984375 447.499023438 97.0009765625 462.499023438 c 0
 90.66796875 477.499023438 87.5009765625 491.999023438 87.5009765625 505.999023438 c 0
 87.5009765625 528.666015625 91.16796875 550.499023438 98.5009765625 571.499023438 c 0
 105.833984375 592.499023438 116.500976562 611.999023438 130.500976562 629.999023438 c 0
 144.500976562 647.999023438 163.16796875 663.666015625 186.500976562 676.999023438 c 0
 208.500976562 690.33203125 233.499023438 699.665039062 261.499023438 704.998046875 c 2
 267.5 705.998046875 l 1xfa
 268.833007812 727.331054688 269.500976562 749.331054688 269.500976562 771.998046875 c 0
 270.16796875 786.665039062 272.66796875 797.83203125 277.000976562 805.499023438 c 0
 281.333984375 813.166015625 288.500976562 816.999023438 298.500976562 816.999023438 c 2
 300.500976562 816.999023438 l 2
 311.16796875 817.666015625 318.834960938 813.999023438 323.501953125 805.999023438 c 0
 328.168945312 798.666015625 330.501953125 788.333007812 330.501953125 775 c 2
 330.501953125 713 l 1xf6
 338.5 712 l 2
 351.833007812 711.333007812 370.16796875 708 393.500976562 702 c 0
 418.833984375 696 437.833984375 690.666992188 450.500976562 686 c 0
 460.500976562 682.666992188 467.833007812 677 472.5 669 c 0
 476.5 662.333007812 478.500976562 655.666015625 478.500976562 648.999023438 c 0
 478.500976562 646.999023438 478.16796875 644.666015625 477.500976562 641.999023438 c 0
 476.833984375 635.999023438 475.166992188 631.666015625 472.5 628.999023438 c 0
 469.166992188 626.33203125 465.666015625 624.83203125 461.999023438 624.499023438 c 0
 458.33203125 624.166015625 454.833007812 623.999023438 451.5 623.999023438 c 0
 438.166992188 623.999023438 423.5 627.666015625 407.5 634.999023438 c 0
 398.833007812 638.999023438 389 642.83203125 378 646.499023438 c 0
 367 650.166015625 353.833007812 652.333007812 338.5 653 c 2
 329.498046875 653 l 1
 325.5 423 l 1xfa
 333.5 421 l 2
 360.833007812 417.666992188 385.166015625 411 406.499023438 401 c 0
 429.83203125 391 448.33203125 379.666992188 461.999023438 367 c 0
 475.666015625 354.333007812 487.166015625 339.833007812 496.499023438 323.5 c 0
 505.83203125 307.166992188 512.165039062 291 515.498046875 275 c 0
 518.831054688 259 520.498046875 242.333007812 520.498046875 225 c 0
 520.498046875 195.666992188 515.331054688 167.833984375 504.998046875 141.500976562 c 0
 494.665039062 115.16796875 480.665039062 92.3349609375 462.998046875 73.001953125 c 0
 445.331054688 53.6689453125 424.498046875 37.001953125 400.498046875 23.001953125 c 0
 379.165039062 9.001953125 355.498046875 -1.6650390625 329.498046875 -8.998046875 c 2
 322.498046875 -11 l 1
 322.498046875 -17.998046875 l 2
 323.165039062 -57.3310546875 323.83203125 -83.998046875 324.499023438 -97.998046875 c 0
 323.166015625 -109.998046875 318.999023438 -119.165039062 311.999023438 -125.498046875 c 0
 304.999023438 -131.831054688 296.499023438 -134.998046875 286.499023438 -134.998046875 c 2
 285.499023438 -134.998046875 l 1
 284.499023438 -134.998046875 l 2
 276.499023438 -134.998046875 270.499023438 -131.998046875 266.499023438 -125.998046875 c 0
 263.166015625 -120.665039062 261.499023438 -112.998046875 261.499023438 -102.998046875 c 2
 261.499023438 -93.998046875 l 2
 262.83203125 -79.3310546875 263.499023438 -57.6640625 263.499023438 -28.9970703125 c 2
 263.499023438 -18.9970703125 l 1
 254.499023438 -18.9970703125 l 1
 250.499023438 -18.9970703125 l 2
 229.83203125 -18.9970703125 210.166992188 -16.3330078125 191.5 -11 c 0
EndSplineSet
Validated: 524289
EndChar

StartChar: percent
Encoding: 37 37 6
Width: 590
GlyphClass: 2
Flags: HMW
HStem: -18.001 57 180.998 54.0323 442 54.999 642.043 52.9575
VStem: 55.4986 53.001 72.0016 68.499 231.5 45.998 312.501 49.002 422.499 70.001 482.573 51.9275
LayerCount: 2
Fore
SplineSet
372.500976562 58.9990234375 m 0xf340
 381.168945312 46.9990234375 396.834960938 40.33203125 419.501953125 38.9990234375 c 2
 422.498046875 38.9990234375 l 2xf380
 440.498046875 38.9990234375 454.668945312 45.166015625 465.001953125 57.4990234375 c 0
 475.334960938 69.83203125 481.168945312 85.6650390625 482.500976562 104.998046875 c 2
 482.500976562 105.998046875 l 1
 482.500976562 108.998046875 l 2
 482.548828125 110.474609375 482.572265625 111.9296875 482.572265625 113.362304688 c 0
 482.572265625 131.977539062 478.548828125 146.85546875 470.500976562 157.998046875 c 0
 459.168945312 173.331054688 441.834960938 180.998046875 418.501953125 180.998046875 c 0
 400.501953125 180.998046875 386.501953125 173.998046875 376.501953125 159.998046875 c 0
 367.168945312 145.998046875 362.168945312 128.331054688 361.501953125 106.998046875 c 2
 361.501953125 102.998046875 l 2
 361.450195312 101.561523438 361.424804688 100.1484375 361.424804688 98.7587890625 c 0
 361.424804688 82.0966796875 365.116210938 68.8447265625 372.500976562 58.9990234375 c 0xf340
357.499023438 -0.5009765625 m 0
 342.166015625 11.166015625 330.833007812 25.9990234375 323.499023438 43.9990234375 c 0
 316.166015625 61.9990234375 312.500976562 81.33203125 312.500976562 101.999023438 c 2
 312.500976562 103.999023438 l 2
 312.500976562 142.666015625 322.168945312 174.166015625 341.500976562 198.499023438 c 0
 360.833984375 222.83203125 388.833984375 234.999023438 425.500976562 234.999023438 c 0
 426.500976562 235.01953125 427.497070312 235.030273438 428.485351562 235.030273438 c 0
 459.141601562 235.030273438 484.479492188 225.01953125 504.500976562 204.999023438 c 0
 514.500976562 194.33203125 522.166992188 179.999023438 527.500976562 161.999023438 c 0
 532.166992188 147.999023438 534.500976562 132.33203125 534.500976562 114.999023438 c 0xf340
 534.500976562 110.999023438 534.166992188 104.999023438 533.500976562 96.9990234375 c 0
 531.500976562 58.33203125 520.833007812 29.33203125 501.500976562 9.9990234375 c 0
 482.166992188 -8.66796875 452.833984375 -18.0009765625 413.500976562 -18.0009765625 c 2
 410.500976562 -18.0009765625 l 2
 390.500976562 -18.0009765625 372.833007812 -12.16796875 357.499023438 -0.5009765625 c 0
120.501953125 517.999023438 m 0
 129.834960938 505.999023438 147.168945312 498.999023438 172.500976562 496.999023438 c 2
 173.500976562 496.999023438 l 2
 191.500976562 496.999023438 205.168945312 503.33203125 214.500976562 515.999023438 c 0
 223.833984375 528.666015625 229.166992188 544.999023438 230.500976562 564.999023438 c 0
 231.166992188 566.33203125 231.500976562 567.999023438 231.500976562 569.999023438 c 0
 230.833007812 593.33203125 225.500976562 610.999023438 215.500976562 622.999023438 c 0
 204.833007812 635.666015625 189.833007812 641.999023438 170.500976562 641.999023438 c 0
 169.659179688 642.028320312 168.826171875 642.04296875 168.001953125 642.04296875 c 0
 149.870117188 642.04296875 135.704101562 635.028320312 125.500976562 620.999023438 c 0
 116.166992188 607.666015625 110.500976562 589.999023438 108.500976562 567.999023438 c 2
 108.500976562 562.999023438 l 2xfb
 108.452148438 561.618164062 108.428710938 560.259765625 108.428710938 558.922851562 c 0
 108.428710938 541.545898438 112.454101562 527.904296875 120.501953125 517.999023438 c 0
178.499023438 195 m 2
 323.499023438 472 l 2
 372.166015625 565.333007812 405.166015625 632.333007812 422.499023438 673 c 0
 430.499023438 685 441.833007812 691 456.499023438 691 c 0
 463.166015625 691 469.833007812 689.333007812 476.500976562 686 c 0
 487.166992188 680.666992188 492.500976562 673.666992188 492.500976562 665 c 0
 492.500976562 657.666992188 489.168945312 648.666992188 482.501953125 638 c 0
 457.168945312 597.333007812 400.833984375 493.666015625 313.500976562 326.999023438 c 0
 227.500976562 160.33203125 169.833984375 47.33203125 140.500976562 -12.0009765625 c 0
 129.168945312 -32.0009765625 117.500976562 -42.0009765625 105.500976562 -42.0009765625 c 0
 101.500976562 -42.0009765625 96.66796875 -40.66796875 91.0009765625 -38.0009765625 c 0
 85.333984375 -35.333984375 80.833984375 -31.833984375 77.5009765625 -27.5009765625 c 0
 74.16796875 -23.16796875 72.3349609375 -17.5009765625 72.001953125 -10.5009765625 c 0xf780
 71.982421875 -10.08984375 71.97265625 -9.6728515625 71.97265625 -9.2509765625 c 0
 71.97265625 -2.49609375 74.482421875 5.5869140625 79.501953125 14.9990234375 c 0
 93.501953125 43.666015625 126.499023438 103.666992188 178.499023438 195 c 2
104.998046875 459.5 m 0
 88.6650390625 471.166992188 76.33203125 486 67.9990234375 504 c 0
 59.666015625 522 55.4990234375 541.333007812 55.4990234375 562 c 2
 55.4990234375 564 l 2xfb
 55.4990234375 602.666992188 66.166015625 634.166992188 87.4990234375 658.5 c 0
 108.833007812 682.833007812 138.833007812 695 177.499023438 695 c 0
 178.416015625 695.020507812 179.329101562 695.03125 180.235351562 695.03125 c 0
 208.348632812 695.03125 231.770507812 685.020507812 250.498046875 665 c 0
 259.831054688 654.333007812 266.831054688 640 271.498046875 622 c 0
 275.498046875 608 277.498046875 591.666992188 277.498046875 573 c 0
 277.498046875 526.333007812 267.498046875 492.333007812 247.498046875 471 c 0
 229.498046875 451.666992188 201.498046875 442 163.498046875 442 c 2
 161.498046875 442 l 2
 140.165039062 442 121.331054688 447.833007812 104.998046875 459.5 c 0
EndSplineSet
Validated: 524289
EndChar

StartChar: ampersand
Encoding: 38 38 7
Width: 590
GlyphClass: 2
Flags: HMW
HStem: -32 74.001 655.001 59.1001
VStem: 46.4986 80.0029 132.499 76.002 367.501 63.1093
LayerCount: 2
Fore
SplineSet
529.49609375 11 m 2
 529.49609375 3 l 2
 527.49609375 -13 522.828125 -23 515.49609375 -27 c 0
 511.49609375 -29.6669921875 506.828125 -31 501.49609375 -31 c 0
 496.828125 -31 491.162109375 -29.3330078125 484.495117188 -26 c 0
 471.162109375 -19.3330078125 459.495117188 -7.3330078125 449.495117188 10 c 0
 447.495117188 13.3330078125 443.495117188 23 437.495117188 39 c 0
 431.495117188 55 426.495117188 67 422.495117188 75 c 2
 415.495117188 90 l 1
 394.828125 61.3330078125 382.828125 45 379.495117188 41 c 0
 376.162109375 37.6669921875 370.828125 32 363.49609375 24 c 0
 356.163085938 16 349.830078125 10 344.49609375 6 c 0
 339.1640625 2.6669921875 332.1640625 -2 323.49609375 -8 c 0
 315.49609375 -14 307.49609375 -18.3330078125 299.49609375 -21 c 0
 291.49609375 -23.6669921875 282.1640625 -26 271.49609375 -28 c 0
 260.1640625 -30.6669921875 248.831054688 -32 237.498046875 -32 c 0
 202.1640625 -32 169.83203125 -23 140.499023438 -5 c 0
 111.166015625 13 88.166015625 37 71.498046875 67 c 0
 54.83203125 97.6669921875 46.498046875 130.333984375 46.498046875 165.000976562 c 0
 46.498046875 219.000976562 56.498046875 265.333984375 76.498046875 304.000976562 c 0
 100.499023438 352.000976562 140.499023438 388.333984375 196.499023438 413.000976562 c 2
 206.499023438 418.000976562 l 1
 196.499023438 434.000976562 187.166015625 449.000976562 178.499023438 463.000976562 c 0
 169.83203125 476.333984375 163.83203125 486.000976562 160.499023438 492.000976562 c 0
 157.166015625 498.000976562 153.166015625 505.333984375 148.499023438 514.000976562 c 0
 143.83203125 522.66796875 140.83203125 530.000976562 139.499023438 536.000976562 c 0
 134.83203125 554.000976562 132.499023438 571.66796875 132.499023438 589.000976562 c 0
 132.499023438 600.333984375 134.166015625 611.333984375 137.499023438 622.000976562 c 0
 140.166015625 632.66796875 145.166015625 643.66796875 152.499023438 655.000976562 c 0
 159.83203125 666.333984375 168.83203125 676.333984375 179.499023438 685.000976562 c 0
 190.166015625 693.66796875 204.499023438 700.66796875 222.499023438 706.000976562 c 0
 239.83203125 711.333984375 259.83203125 714.000976562 282.499023438 714.000976562 c 0
 284.366210938 714.067382812 286.2265625 714.100585938 288.080078125 714.100585938 c 0
 304.759765625 714.100585938 320.8984375 711.400390625 336.499023438 706.000976562 c 0
 354.499023438 700.000976562 370.499023438 691.66796875 384.499023438 681.000976562 c 0
 398.499023438 669.66796875 409.83203125 655.334960938 418.499023438 638.001953125 c 0
 426.499023438 620.668945312 430.499023438 601.3359375 430.499023438 580.002929688 c 0
 430.573242188 577.631835938 430.609375 575.28515625 430.609375 572.962890625 c 0
 430.609375 554.396484375 428.240234375 537.41015625 423.5 522.00390625 c 0
 418.166992188 504.00390625 411.5 489.336914062 403.5 478.00390625 c 0
 395.5 466.670898438 385.5 455.670898438 373.5 445.00390625 c 0
 361.5 434.336914062 350.5 425.669921875 340.5 419.002929688 c 0
 329.83203125 412.3359375 317.5 405.668945312 303.5 399.001953125 c 2
 294.5 395.001953125 l 1
 299.5 386.001953125 l 2
 312.166992188 364.668945312 332.833984375 333.668945312 361.5 293.001953125 c 0
 390.16796875 252.334960938 408.5 225.66796875 416.5 213.000976562 c 2
 425.5 198.000976562 l 1
 435.5 217.333984375 443.16796875 233.333984375 448.5 246.000976562 c 0
 454.5 258.66796875 459.16796875 268.66796875 462.5 276.000976562 c 0
 465.833984375 283.333984375 468.5 288.666992188 470.5 292 c 0
 481.16796875 308 490.834960938 317.666992188 499.501953125 321 c 0
 502.16796875 321.666992188 505.16796875 322 508.501953125 322 c 0
 514.501953125 322 520.834960938 320.333007812 527.501953125 317 c 0
 535.501953125 313.666992188 540.501953125 306.333984375 542.501953125 295.000976562 c 0
 543.16796875 291.66796875 543.501953125 288.66796875 543.501953125 286.000976562 c 0
 543.501953125 276.000976562 540.501953125 264.66796875 534.501953125 252.000976562 c 0
 531.834960938 246.66796875 522.16796875 233.66796875 505.5 213.000976562 c 0
 488.833984375 192.333984375 474.833984375 173.333984375 463.5 156.000976562 c 2
 460.5 151.000976562 l 1
 471.16796875 133.000976562 490.5 99.333984375 518.5 50.0009765625 c 0
 525.833984375 38.0009765625 529.49609375 25 529.49609375 11 c 2
208.5 572.000976562 m 0
 208.5 554.000976562 213.16796875 534.333984375 222.5 513.000976562 c 0
 232.5 492.333984375 244.16796875 474.000976562 257.5 458.000976562 c 2
 261.5 453.000976562 l 1
 267.5 455.000976562 l 2
 282.833984375 459.66796875 295.833984375 464.66796875 306.5 470.000976562 c 0
 317.16796875 475.333984375 327.5 482.333984375 337.5 491.000976562 c 0
 347.5 499.66796875 354.833984375 510.66796875 359.5 524.000976562 c 0
 364.833984375 536.66796875 367.5 551.66796875 367.5 569.000976562 c 0
 367.5 597.000976562 358.833984375 618.333984375 341.5 633.000976562 c 0
 324.16796875 647.66796875 303.834960938 655.000976562 280.501953125 655.000976562 c 0
 253.834960938 655.000976562 234.501953125 646.000976562 222.501953125 628.000976562 c 0
 213.16796875 614.000976562 208.5 595.333984375 208.5 572.000976562 c 0
126.501953125 174.000976562 m 0
 126.501953125 136.66796875 136.834960938 105.66796875 157.501953125 81.0009765625 c 0
 178.16796875 55.0009765625 205.16796875 42.0009765625 238.501953125 42.0009765625 c 0
 255.834960938 42.66796875 273.834960938 46.0009765625 292.501953125 52.0009765625 c 0
 299.16796875 54.0009765625 306.16796875 57.66796875 313.501953125 63.0009765625 c 0
 321.501953125 67.66796875 327.501953125 71.66796875 331.501953125 75.0009765625 c 0
 335.501953125 78.333984375 340.501953125 83.333984375 346.501953125 90.0009765625 c 0
 352.501953125 96.66796875 356.501953125 101.334960938 358.501953125 104.001953125 c 0
 361.16796875 106.001953125 364.8359375 110.668945312 369.502929688 118.001953125 c 0
 374.169921875 125.334960938 378.169921875 131.001953125 381.502929688 135.001953125 c 1
 367.502929688 165.001953125 356.502929688 187.334960938 348.502929688 202.001953125 c 0
 339.8359375 218.001953125 323.502929688 243.334960938 299.502929688 278.001953125 c 0
 275.502929688 312.668945312 256.8359375 340.668945312 243.502929688 362.001953125 c 1
 235.502929688 359.001953125 l 2
 214.8359375 349.001953125 197.16796875 337.334960938 182.501953125 324.001953125 c 0
 167.16796875 310.668945312 155.501953125 295.668945312 147.501953125 279.001953125 c 0
 140.16796875 262.334960938 134.8359375 245.66796875 131.502929688 229.000976562 c 0
 128.169921875 212.333984375 126.501953125 194.000976562 126.501953125 174.000976562 c 0
EndSplineSet
Validated: 524289
EndChar

StartChar: quotesingle
Encoding: 39 39 8
Width: 590
GlyphClass: 2
Flags: HMW
HStem: 456 307.126
VStem: 252.5 84
LayerCount: 2
Fore
SplineSet
330.499023438 487 m 0
 329.166015625 476.333007812 324.833984375 468.333007812 317.500976562 463 c 0
 310.166992188 458.333007812 302.500976562 456 294.500976562 456 c 2
 292.500976562 456 l 2
 281.166992188 456.666992188 271.166992188 460.333984375 262.500976562 467.000976562 c 0
 255.833984375 472.333984375 252.500976562 479.333984375 252.500976562 488.000976562 c 2
 252.500976562 491.000976562 l 1
 252.500976562 492.000976562 l 2
 254.346679688 519.694335938 255.270507812 551.71875 255.270507812 588.075195312 c 0
 255.270507812 630.48828125 254.013671875 678.796875 251.500976562 733.000976562 c 2
 251.500976562 735.000976562 l 2
 251.500976562 740.333984375 252.500976562 745.000976562 254.500976562 749.000976562 c 0
 257.166992188 753.000976562 260.500976562 755.66796875 264.500976562 757.000976562 c 0
 273.833984375 761.083984375 283.420898438 763.125976562 293.264648438 763.125976562 c 0
 294.670898438 763.125976562 296.083007812 763.083984375 297.499023438 763.000976562 c 0
 307.499023438 762.333984375 316.499023438 759.666992188 324.499023438 755 c 0
 328.499023438 753 331.833007812 749.666992188 334.499023438 745 c 0
 336.499023438 740.333007812 337.499023438 734 337.499023438 726 c 0
 338.166992188 718 338.499023438 705 338.499023438 687 c 0
 338.499023438 669 337.833007812 637 336.499023438 591 c 0
 335.166992188 545 333.166015625 510.333007812 330.499023438 487 c 0
EndSplineSet
Validated: 524289
EndChar

StartChar: parenleft
Encoding: 40 40 9
Width: 590
GlyphClass: 2
Flags: HMW
HStem: -122 64.999 743 61<394.239 407.572>
VStem: 155.428 78.1449
LayerCount: 2
Fore
SplineSet
433.572265625 -93 m 0
 433.572265625 -101 430.239257812 -107.666992188 423.572265625 -113 c 0
 417.572265625 -119 410.905273438 -122 403.572265625 -122 c 0
 360.905273438 -121.333007812 322.23828125 -105.666015625 287.571289062 -74.9990234375 c 0
 252.904296875 -44.33203125 224.571289062 -1.33203125 202.571289062 54.0009765625 c 0
 180.571289062 110.000976562 165.904296875 174.333984375 158.571289062 247.000976562 c 0
 156.571289062 267.000976562 155.571289062 292.000976562 155.571289062 322.000976562 c 0
 155.475585938 326.288085938 155.427734375 330.731445312 155.427734375 335.331054688 c 0
 155.427734375 362.921875 157.142578125 396.145507812 160.571289062 435.000976562 c 0
 167.904296875 512.333984375 180.904296875 575.666992188 199.571289062 625 c 0
 207.571289062 647 218.571289062 668.333007812 232.571289062 689 c 0
 246.571289062 709.666992188 262.571289062 728.666992188 280.571289062 746 c 0
 297.904296875 763.333007812 317.571289062 777.333007812 339.571289062 788 c 0
 362.23828125 798.666992188 383.905273438 804 404.572265625 804 c 0
 414.572265625 804 421.905273438 802 426.572265625 798 c 0
 431.905273438 793.333007812 434.572265625 785.333007812 434.572265625 774 c 0
 434.572265625 762.666992188 431.905273438 754.666992188 426.572265625 750 c 0
 420.572265625 745.333007812 412.572265625 743 402.572265625 743 c 0
 383.239257812 743 365.239257812 737.333007812 348.572265625 726 c 0
 332.572265625 715.333007812 318.572265625 700.666015625 306.572265625 681.999023438 c 0
 283.239257812 647.33203125 265.90625 604.999023438 254.573242188 554.999023438 c 0
 245.90625 520.33203125 239.90625 472.33203125 236.573242188 410.999023438 c 0
 234.573242188 379.666015625 233.573242188 351.666015625 233.573242188 326.999023438 c 0
 234.240234375 301.666015625 235.240234375 279.666015625 236.573242188 260.999023438 c 0
 239.90625 220.33203125 247.239257812 180.33203125 258.572265625 140.999023438 c 0
 269.239257812 101.666015625 282.239257812 67.9990234375 297.572265625 39.9990234375 c 0
 312.239257812 11.33203125 328.90625 -12.0009765625 347.573242188 -30.0009765625 c 0
 366.90625 -48.0009765625 385.573242188 -57.0009765625 403.573242188 -57.0009765625 c 0
 413.573242188 -57.0009765625 421.240234375 -59.333984375 426.573242188 -64.0009765625 c 0
 431.240234375 -68.66796875 433.572265625 -78.3330078125 433.572265625 -93 c 0
EndSplineSet
Validated: 524289
EndChar

StartChar: parenright
Encoding: 41 41 10
Width: 590
GlyphClass: 2
Flags: HMW
HStem: -122 65.001 743.001 61
VStem: 356.625 78
LayerCount: 2
Fore
SplineSet
431.626953125 247 m 0
 424.293945312 174.333007812 409.626953125 110 387.626953125 54 c 0
 365.626953125 -1.3330078125 337.293945312 -44.3330078125 302.626953125 -75 c 0
 267.293945312 -106.333007812 228.626953125 -122 186.626953125 -122 c 0
 179.959960938 -121.333007812 173.29296875 -118.333007812 166.625976562 -113 c 0
 159.29296875 -107.666992188 155.625976562 -101 155.625976562 -93 c 0
 155.625976562 -78.3330078125 158.29296875 -68.666015625 163.625976562 -63.9990234375 c 0
 168.29296875 -59.33203125 175.959960938 -56.9990234375 186.626953125 -56.9990234375 c 0
 204.626953125 -56.9990234375 222.959960938 -47.9990234375 241.626953125 -29.9990234375 c 0
 260.293945312 -11.33203125 277.293945312 12.0009765625 292.626953125 40.0009765625 c 0
 307.293945312 68.0009765625 320.293945312 101.66796875 331.626953125 141.000976562 c 0
 342.959960938 180.333984375 350.29296875 220.333984375 353.625976562 261.000976562 c 0
 355.625976562 281.000976562 356.625976562 303.333984375 356.625976562 328.000976562 c 0
 356.625976562 352.66796875 355.625976562 380.334960938 353.625976562 411.001953125 c 0
 350.29296875 471.668945312 344.29296875 519.668945312 335.625976562 555.001953125 c 0
 323.625976562 605.001953125 306.29296875 647.668945312 283.625976562 683.001953125 c 0
 272.29296875 700.334960938 258.29296875 714.66796875 241.625976562 726.000976562 c 0
 224.958984375 737.333984375 207.291992188 743.000976562 188.625 743.000976562 c 0
 178.625 743.000976562 170.291992188 745.333984375 163.625 750.000976562 c 0
 158.291992188 754.000976562 155.625 761.66796875 155.625 773.000976562 c 0
 154.958007812 780.333984375 155.625 786.000976562 157.625 790.000976562 c 0
 159.625 794.66796875 161.958007812 797.66796875 164.625 799.000976562 c 0
 170.625 802.333984375 177.625 804.000976562 185.625 804.000976562 c 0
 207.625 804.000976562 229.291992188 798.66796875 250.625 788.000976562 c 0
 271.958007812 777.333984375 291.625 763.333984375 309.625 746.000976562 c 0
 327.625 728.66796875 343.625 709.66796875 357.625 689.000976562 c 0
 371.625 667.66796875 382.625 646.334960938 390.625 625.001953125 c 0
 409.291992188 575.668945312 421.958984375 512.3359375 428.625976562 435.002929688 c 0
 432.625976562 389.669921875 434.625976562 352.002929688 434.625976562 322.002929688 c 0
 434.625976562 292.002929688 433.626953125 267 431.626953125 247 c 0
EndSplineSet
Validated: 524289
EndChar

StartChar: asterisk
Encoding: 42 42 11
Width: 590
GlyphClass: 2
Flags: HMW
HStem: 303 84<88.8349 91.5029 88.5029 108.502> 315.998 56.999 315.998 69.999
VStem: 361.503 71.9951
LayerCount: 2
Fore
SplineSet
423.502929688 132 m 0x50
 417.502929688 128 409.834960938 126.333007812 400.501953125 127 c 0
 391.834960938 127 383.834960938 128.666992188 376.501953125 132 c 0
 369.168945312 135.333007812 364.168945312 140.666015625 361.501953125 147.999023438 c 0
 352.834960938 175.999023438 335.16796875 215.33203125 308.500976562 265.999023438 c 2
 299.500976562 282.999023438 l 1
 291.500976562 265.999023438 l 2
 259.500976562 203.33203125 239.833984375 161.999023438 232.500976562 141.999023438 c 0
 230.500976562 136.666015625 227.16796875 132.333007812 222.500976562 129 c 0
 217.833984375 126.333007812 212.500976562 124.666015625 206.500976562 123.999023438 c 2
 201.500976562 123.999023438 l 2
 189.500976562 123.999023438 179.500976562 126.33203125 171.500976562 130.999023438 c 0
 167.500976562 132.999023438 163.833984375 136.666015625 160.500976562 141.999023438 c 0
 157.16796875 147.999023438 154.834960938 154.666015625 153.501953125 161.999023438 c 2
 153.501953125 164.999023438 l 2
 153.501953125 171.666015625 155.168945312 178.333007812 158.501953125 185 c 2
 234.501953125 309 l 1
 167.834960938 305 121.501953125 303 95.501953125 303 c 0
 82.1689453125 303 71.8359375 307.333007812 64.5029296875 316 c 0
 57.169921875 324 53.5029296875 333 53.5029296875 343 c 2
 53.5029296875 346 l 2
 53.5029296875 356 56.169921875 365.333007812 61.5029296875 374 c 0
 64.169921875 378.666992188 67.8369140625 382 72.50390625 384 c 0
 77.8369140625 386 83.169921875 387 88.5029296875 387 c 2
 91.5029296875 387 l 2x90
 122.169921875 384.333007812 173.502929688 380.666015625 245.502929688 375.999023438 c 1
 236.502929688 391.999023438 l 2
 207.8359375 440.666015625 184.168945312 477.999023438 165.501953125 503.999023438 c 0
 158.834960938 515.33203125 155.501953125 526.33203125 155.501953125 536.999023438 c 2
 155.501953125 542.999023438 l 2
 156.834960938 553.666015625 161.16796875 560.666015625 168.500976562 563.999023438 c 1
 168.500976562 564.999023438 l 1
 173.833984375 568.33203125 180.166992188 569.999023438 187.5 569.999023438 c 0
 194.833007812 570.666015625 202.5 568.666015625 210.5 563.999023438 c 0
 218.5 559.33203125 224.5 552.665039062 228.5 543.998046875 c 0
 235.833007812 527.331054688 258.166015625 483.6640625 295.499023438 412.997070312 c 1
 303.499023438 427.997070312 l 2
 330.166015625 473.997070312 350.499023438 512.330078125 364.499023438 542.997070312 c 0
 368.499023438 550.997070312 374.166015625 557.330078125 381.499023438 561.997070312 c 0
 388.431640625 566.50390625 395.184570312 568.756835938 401.7578125 568.756835938 c 0
 407.825195312 568.756835938 413.739257812 566.836914062 419.499023438 562.997070312 c 0
 424.166015625 560.330078125 428.166015625 556.330078125 431.499023438 550.997070312 c 0
 434.83203125 545.6640625 436.499023438 538.6640625 436.499023438 529.997070312 c 0
 436.499023438 521.330078125 433.83203125 512.997070312 428.499023438 504.997070312 c 0
 407.166015625 473.6640625 383.499023438 434.6640625 357.499023438 387.997070312 c 2
 349.499023438 372.997070312 l 1
 366.499023438 372.997070312 l 2x50
 425.83203125 372.997070312 468.165039062 376.6640625 493.498046875 383.997070312 c 0
 496.831054688 385.330078125 500.1640625 385.997070312 503.497070312 385.997070312 c 0
 510.830078125 385.997070312 517.163085938 383.6640625 522.49609375 378.997070312 c 0
 531.163085938 370.997070312 535.830078125 362.6640625 536.497070312 353.997070312 c 0
 536.497070312 348.6640625 535.830078125 343.331054688 534.497070312 337.998046875 c 0
 531.1640625 325.331054688 525.831054688 316.998046875 518.498046875 312.998046875 c 0
 515.831054688 311.665039062 513.1640625 310.998046875 510.497070312 310.998046875 c 0
 507.1640625 310.331054688 504.497070312 310.331054688 502.497070312 310.998046875 c 0
 485.1640625 314.331054688 454.497070312 315.998046875 410.497070312 315.998046875 c 0x30
 403.831054688 316.33203125 395.498046875 316.499023438 385.498046875 316.499023438 c 0
 375.498046875 316.499023438 363.831054688 316.33203125 350.498046875 315.998046875 c 1
 426.498046875 185.998046875 l 2
 431.831054688 174.665039062 434.498046875 164.665039062 434.498046875 155.998046875 c 0
 433.831054688 154.665039062 433.498046875 152.998046875 433.498046875 150.998046875 c 0
 432.831054688 141.665039062 429.502929688 135.333007812 423.502929688 132 c 0x50
EndSplineSet
Validated: 524289
EndChar

StartChar: plus
Encoding: 43 43 12
Width: 590
GlyphClass: 2
Flags: HMW
HStem: 367.001 63.999
VStem: 262.497 62.0029
LayerCount: 2
Fore
SplineSet
152.5 366 m 2
 138.5 366 128.5 369.333007812 122.5 376 c 0
 115.83203125 382 112.5 389.666992188 112.5 399 c 2
 112.5 402 l 2
 113.166992188 410.666992188 116.166992188 418 121.5 424 c 0
 127.5 430 136.5 433 148.5 433 c 2
 151.5 433 l 2
 198.83203125 431.666992188 232.830078125 431 253.49609375 431 c 2
 262.49609375 431 l 1
 262.49609375 441 l 2
 262.49609375 474.333007812 261.83203125 510.333007812 260.5 549 c 2
 260.5 553 l 2
 260.5 563.666992188 263.5 571.333984375 269.5 576.000976562 c 0
 274.83203125 580.000976562 282.83203125 582.000976562 293.5 582.000976562 c 2
 297.5 582.000976562 l 2
 306.83203125 582.000976562 314.5 580.000976562 320.5 576.000976562 c 0
 325.166992188 572.66796875 327.5 565.66796875 327.5 555.000976562 c 2
 327.5 550.000976562 l 2
 325.5 511.333984375 324.5 474.333984375 324.5 439.000976562 c 2
 324.5 430.000976562 l 1
 444.5 430.000976562 l 2
 457.166992188 430.000976562 465.5 427.66796875 469.5 423.000976562 c 0
 474.166992188 417.66796875 476.833984375 410.666992188 477.5 402 c 0
 476.833984375 396.666992188 476.166992188 392.000976562 475.5 388.000976562 c 0
 474.83203125 384.000976562 473.166015625 380 470.499023438 376 c 0
 467.166015625 370.666992188 460.166015625 368.000976562 449.499023438 368.000976562 c 2
 445.499023438 368.000976562 l 2
 434.166015625 369.333984375 418.166015625 370.000976562 397.499023438 370.000976562 c 0
 377.499023438 370.000976562 352.83203125 369.66796875 323.499023438 369.000976562 c 1
 323.499023438 359.000976562 l 1
 323.499023438 295.000976562 l 2
 324.166015625 270.333984375 324.5 255.333984375 324.5 250.000976562 c 0
 323.83203125 238.000976562 321.1640625 229.66796875 316.498046875 225.000976562 c 0
 311.831054688 220.333984375 305.1640625 217.666992188 296.49609375 217 c 0
 285.830078125 217.666992188 277.830078125 220 272.49609375 224 c 0
 265.830078125 228.666992188 262.49609375 237.333984375 262.49609375 250.000976562 c 2
 262.49609375 367.000976562 l 1
 253.49609375 367.000976562 l 1
 152.5 366 l 2
EndSplineSet
Validated: 524289
EndChar

StartChar: comma
Encoding: 44 44 13
Width: 590
GlyphClass: 2
Flags: HMW
VStem: 202.501 185.998
LayerCount: 2
Fore
SplineSet
238.500976562 -207 m 0
 226.500976562 -207 216.833984375 -203.333007812 209.500976562 -196 c 0
 205.500976562 -191.333007812 203.16796875 -185.666015625 202.500976562 -178.999023438 c 0
 201.833984375 -177.666015625 201.500976562 -176.666015625 201.500976562 -175.999023438 c 0
 202.16796875 -171.999023438 204.500976562 -165.999023438 208.500976562 -157.999023438 c 0
 222.500976562 -137.999023438 241.833984375 -93.666015625 266.500976562 -24.9990234375 c 0
 291.833984375 43.66796875 307.166992188 91.66796875 312.5 119.000976562 c 0
 313.833007812 125.66796875 317.166015625 131.000976562 322.499023438 135.000976562 c 0
 328.499023438 139.000976562 334.499023438 141.000976562 340.499023438 141.000976562 c 2
 342.499023438 141.000976562 l 2
 349.166015625 141.000976562 355.499023438 140.333984375 361.499023438 139.000976562 c 0
 370.166015625 136.333984375 377.166015625 131.333984375 382.499023438 124.000976562 c 0
 386.499023438 119.333984375 388.499023438 113.333984375 388.499023438 106.000976562 c 0
 388.499023438 104.66796875 388.166015625 102.000976562 387.499023438 98.0009765625 c 0
 380.83203125 65.333984375 366.499023438 15.333984375 344.499023438 -51.9990234375 c 0
 332.499023438 -89.33203125 322.499023438 -117.665039062 314.499023438 -136.998046875 c 0
 305.83203125 -155.665039062 299.165039062 -168.33203125 294.498046875 -174.999023438 c 0
 285.165039062 -187.666015625 273.165039062 -196.666015625 258.498046875 -201.999023438 c 0
 250.498046875 -205.33203125 243.833984375 -207 238.500976562 -207 c 0
EndSplineSet
Validated: 524289
EndChar

StartChar: hyphen
Encoding: 45 45 14
Width: 590
GlyphClass: 2
Flags: HMW
HStem: 252 68<183.499 195.166> 259 61
VStem: 150.499 289.002
LayerCount: 2
Fore
SplineSet
150.500976562 290 m 2x60
 150.500976562 301.333007812 153.500976562 309.333007812 159.500976562 314 c 0
 164.16796875 318 171.500976562 320 181.500976562 320 c 0
 219.500976562 320 264.833984375 320.333007812 317.500976562 321 c 0
 370.16796875 322.333007812 400.16796875 323 407.500976562 323 c 0
 420.16796875 323 428.500976562 320.666992188 432.500976562 316 c 0
 436.500976562 310.666992188 438.833984375 303.666992188 439.500976562 295 c 0
 439.500976562 284.333007812 437.500976562 276.333007812 433.500976562 271 c 0
 428.833984375 264.333007812 420.166992188 261 407.5 261 c 0
 398.833007812 261 365.166015625 259.666992188 306.499023438 257 c 0
 247.83203125 253.666992188 206.83203125 252 183.499023438 252 c 0xa0
 172.83203125 252.666992188 164.83203125 255 159.499023438 259 c 0
 153.499023438 264.333007812 150.499023438 273.333007812 150.499023438 286 c 2
 150.500976562 290 l 2x60
EndSplineSet
Validated: 524289
EndChar

StartChar: period
Encoding: 46 46 15
Width: 590
GlyphClass: 2
Flags: HMW
HStem: -4 134.053
VStem: 223.5 143.001
LayerCount: 2
Fore
SplineSet
296.499023438 -4 m 2
 287.499023438 -4 l 2
 286.584960938 -4.03515625 285.681640625 -4.052734375 284.786132812 -4.052734375 c 0
 268.665039062 -4.052734375 255.236328125 1.6318359375 244.499023438 13 c 0
 230.499023438 27.6669921875 223.499023438 44.6669921875 223.499023438 64 c 0
 223.499023438 81.3330078125 230.833007812 96.3330078125 245.499023438 109 c 0
 262.166992188 123 280.833984375 130 301.500976562 130 c 0
 302.483398438 130.03515625 303.456054688 130.052734375 304.420898438 130.052734375 c 0
 321.772460938 130.052734375 336.131835938 124.368164062 347.500976562 113 c 0
 360.166992188 100.333007812 366.500976562 84.666015625 366.500976562 65.9990234375 c 0
 366.500976562 47.33203125 360.166992188 31.6650390625 347.500976562 18.998046875 c 0
 335.500976562 6.3310546875 318.499023438 -1.3330078125 296.499023438 -4 c 2
EndSplineSet
Validated: 524289
EndChar

StartChar: slash
Encoding: 47 47 16
Width: 590
GlyphClass: 2
Flags: W
LayerCount: 2
Fore
SplineSet
55 -9 m 0
 55 5 58.6669921875 17.6669921875 66 29 c 0
 163.333007812 189 246.666015625 331.333007812 315.999023438 456 c 0
 359.999023438 532.666992188 406.33203125 619.666992188 454.999023438 717 c 0
 459.666015625 725.666992188 465.666015625 732.333984375 472.999023438 737.000976562 c 0
 480.33203125 741.66796875 487.33203125 744.000976562 493.999023438 744.000976562 c 0
 501.33203125 744.000976562 508.999023438 742.333984375 516.999023438 739.000976562 c 0
 525.666015625 733.66796875 531.333007812 726.334960938 534 717.001953125 c 0
 534.666992188 715.001953125 535 712.334960938 535 709.001953125 c 0
 535 704.334960938 532.666992188 695.001953125 528 681.001953125 c 0
 510.666992188 646.334960938 462 562.66796875 382 430.000976562 c 0
 302 297.333984375 253.333007812 214.666992188 236 182 c 0
 228 166.666992188 210.666992188 131.666992188 184 77 c 0
 160 28.3330078125 145 -1.333984375 139 -12.0009765625 c 0
 129.666992188 -28.66796875 117.666992188 -40.3349609375 103 -47.001953125 c 0
 96.3330078125 -50.3349609375 90.3330078125 -52.001953125 85 -52.001953125 c 0
 79 -52.001953125 73.6669921875 -50.3349609375 69 -47.001953125 c 0
 61.6669921875 -43.001953125 57.333984375 -33.3349609375 56.0009765625 -18.001953125 c 0
 55.333984375 -14.6689453125 55 -11.6669921875 55 -9 c 0
EndSplineSet
Validated: 1
EndChar

StartChar: zero
Encoding: 48 48 17
Width: 590
GlyphClass: 2
Flags: HMW
HStem: -14.998 65.001 646.003 61.999
VStem: 79.6676 79 435.669 74.998
LayerCount: 2
Fore
SplineSet
80.6640625 391 m 0
 81.33203125 418.333007812 82.998046875 441.83203125 85.666015625 461.499023438 c 0
 88.33203125 481.166015625 92 502.333007812 96.666015625 525 c 0
 101.333007812 547.666992188 106.666015625 567.666992188 112.666015625 585 c 0
 128 625.666992188 154 656.333984375 190.666015625 677.000976562 c 0
 224 697.66796875 264.666015625 708.000976562 312.666015625 708.000976562 c 0
 336 708.000976562 358 703.66796875 378.666015625 695.000976562 c 0
 400.666015625 686.333984375 420.666015625 673.500976562 438.666015625 656.500976562 c 0
 456.666015625 639.500976562 471.666015625 617.000976562 483.666015625 589.000976562 c 0
 495.666015625 561.000976562 503.333007812 529.000976562 506.666015625 493.000976562 c 0
 509.333007812 453.000976562 510.666015625 409.333984375 510.666015625 362.000976562 c 0
 510.666015625 326.000976562 509.5 288.16796875 507.166015625 248.500976562 c 0
 504.833007812 208.833984375 500.666015625 178.000976562 494.666015625 156.000976562 c 0
 483.333007812 114.000976562 469.333007812 80.333984375 452.666015625 55.0009765625 c 0
 444.666015625 43.0009765625 435.666015625 33.0009765625 425.666015625 25.0009765625 c 0
 415.666015625 17.0009765625 405.333007812 10.333984375 394.666015625 5.0009765625 c 0
 385.333007812 -0.33203125 374 -4.4990234375 360.66796875 -7.4990234375 c 0
 347.333984375 -10.4990234375 334.333984375 -12.4990234375 321.66796875 -13.4990234375 c 0
 309 -14.4990234375 293.66796875 -14.9990234375 275.66796875 -14.9990234375 c 0
 248.333984375 -14.33203125 223.333984375 -8.6650390625 200.66796875 2.001953125 c 0
 175.333984375 12.6689453125 153.66796875 27.501953125 135.66796875 46.501953125 c 0
 117.66796875 65.501953125 103.833984375 89.001953125 94.16796875 117.001953125 c 0
 84.5 145.001953125 79.66796875 175.334960938 79.66796875 208.001953125 c 2
 79.66796875 214.001953125 l 1
 79.66796875 309.001953125 l 2
 79.4453125 316.125976562 79.333984375 323.918945312 79.333984375 332.380859375 c 0
 79.333984375 349.258789062 79.77734375 368.797851562 80.6640625 391 c 0
214.666015625 613.000976562 m 0
 193.333007812 591.000976562 177 555.998046875 165.666015625 507.998046875 c 0
 161.666015625 490.665039062 158.666015625 470.665039062 156.666015625 447.998046875 c 0
 155 428.33203125 154.16796875 402.166015625 154.16796875 369.5 c 0
 154.16796875 336.833984375 155 297.66796875 156.66796875 252.001953125 c 0
 157.333984375 234.001953125 157.833984375 222.501953125 158.16796875 217.501953125 c 0
 158.5 212.501953125 158.66796875 209.001953125 158.66796875 207.001953125 c 2
 158.66796875 177.001953125 l 1
 176.66796875 201.001953125 l 1
 259.333984375 323.001953125 333.66796875 448.668945312 399.66796875 578.001953125 c 2
 402.66796875 584.001953125 l 1
 398.66796875 589.001953125 l 2
 386.66796875 607.001953125 372.16796875 621.001953125 355.16796875 631.001953125 c 0
 338.16796875 641.001953125 319.333984375 646.001953125 298.66796875 646.001953125 c 0
 262.66796875 646.001953125 234.666015625 635.000976562 214.666015625 613.000976562 c 0
321.166015625 54.9990234375 m 0
 334.833007812 58.33203125 348 63.9990234375 360.66796875 71.9990234375 c 0
 386 88.666015625 405.66796875 119.666015625 419.66796875 164.999023438 c 0
 422.333984375 173.666015625 425.16796875 196.166015625 428.16796875 232.499023438 c 0
 431.16796875 268.83203125 433.333984375 310.33203125 434.66796875 356.999023438 c 0
 435.333984375 369.666015625 435.66796875 381.999023438 435.66796875 393.999023438 c 0
 435.66796875 427.999023438 434.333984375 460.666015625 431.66796875 491.999023438 c 2
 428.66796875 526.999023438 l 1
 412.66796875 494.999023438 l 1
 346.66796875 349.666015625 269.333984375 227.666015625 180.66796875 128.999023438 c 1
 176.66796875 123.999023438 l 1
 178.66796875 117.999023438 l 2
 190 93.33203125 205 75.33203125 223.66796875 63.9990234375 c 0
 238.333984375 54.666015625 255.66796875 49.9990234375 275.66796875 49.9990234375 c 0
 292.333984375 49.9990234375 307.5 51.666015625 321.166015625 54.9990234375 c 0
EndSplineSet
Validated: 524289
EndChar

StartChar: one
Encoding: 49 49 18
Width: 590
GlyphClass: 2
Flags: HMW
HStem: 1 64.9961<476.499 478.499 476.166 484.833> 520.999 21G
VStem: 262.498 70 273.498 61
LayerCount: 2
Fore
SplineSet
509.5 59 m 0xe0
 515.5 53 518.5 45 518.5 35 c 0
 518.5 25 515.66796875 16.8330078125 510 10.5 c 0
 504.333007812 4.1669921875 493.166015625 1 476.5 1 c 0
 253.166015625 3 129.166015625 4 104.5 4 c 0
 92.5 4 84 7.1669921875 79 13.5 c 0
 74 19.8330078125 71.5 28 71.5 38 c 2
 71.5 41 l 2
 71.5 50.3330078125 74 58.3330078125 79 65 c 0
 84 71.6669921875 92.83203125 75 105.5 75 c 0
 134.83203125 75 187.165039062 74.3330078125 262.498046875 73 c 1
 262.498046875 83 l 2xe0
 262.498046875 109 262.165039062 127.666992188 261.498046875 139 c 0
 260.83203125 150.333007812 260.498046875 160.666015625 260.498046875 169.999023438 c 0
 260.498046875 180.666015625 260.83203125 212.333007812 261.498046875 265 c 0
 261.498046875 278.333007812 262.998046875 328.666015625 265.998046875 415.999023438 c 0
 268.998046875 503.33203125 271.498046875 567.999023438 273.498046875 609.999023438 c 1
 257.498046875 595.999023438 l 2
 213.498046875 555.999023438 180.498046875 531.666015625 158.498046875 522.999023438 c 0
 155.165039062 521.666015625 152.165039062 520.999023438 149.498046875 520.999023438 c 0
 143.498046875 520.999023438 136.498046875 524.33203125 128.498046875 530.999023438 c 0
 117.83203125 540.33203125 112.498046875 549.33203125 112.498046875 557.999023438 c 2
 112.498046875 558.999023438 l 1
 112.498046875 559.999023438 l 2
 112.498046875 568.666015625 114.498046875 576.666015625 118.498046875 583.999023438 c 0
 122.498046875 591.33203125 129.83203125 598.999023438 140.498046875 606.999023438 c 0
 160.498046875 622.33203125 180.83203125 638.665039062 201.498046875 655.998046875 c 2
 243.498046875 693.998046875 l 2
 251.498046875 701.331054688 259.665039062 707.6640625 267.998046875 712.997070312 c 0
 276.33203125 718.330078125 283.1640625 720.997070312 288.497070312 720.997070312 c 0
 299.830078125 720.997070312 311.497070312 715.6640625 323.497070312 704.997070312 c 0
 330.1640625 698.997070312 334.83203125 693.6640625 337.498046875 688.997070312 c 0
 339.498046875 686.330078125 340.498046875 683.997070312 340.498046875 681.997070312 c 0
 339.83203125 665.997070312 337.83203125 611.330078125 334.498046875 517.997070312 c 0xd0
 331.165039062 424.6640625 329.498046875 369.997070312 329.498046875 353.997070312 c 0
 329.498046875 237.330078125 330.498046875 142.663085938 332.498046875 69.99609375 c 1
 375.83203125 68.6630859375 409.83203125 67.6630859375 434.498046875 66.99609375 c 0
 459.165039062 66.3291015625 473.83203125 65.99609375 478.5 65.99609375 c 0
 480.205078125 66.0703125 481.849609375 66.107421875 483.431640625 66.107421875 c 0
 496.0703125 66.107421875 504.76171875 63.7392578125 509.5 59 c 0xe0
EndSplineSet
Validated: 524289
EndChar

StartChar: two
Encoding: 50 50 19
Width: 590
GlyphClass: 2
Flags: HMW
HStem: -8 64.0029 -1.99512 68.998 647.002 64.998
VStem: 80.4985 81.0029 414.5 80.002
LayerCount: 2
Fore
SplineSet
280.498046875 -8 m 0xb8
 251.166015625 -9.3330078125 221.498046875 -10 191.498046875 -10 c 0
 158.166015625 -9.3330078125 132.166015625 -8 113.498046875 -6 c 0
 107.498046875 -5.3330078125 102.498046875 -3.166015625 98.498046875 0.5009765625 c 0
 94.498046875 4.16796875 91.498046875 9.0009765625 89.498046875 15.0009765625 c 0
 83.498046875 30.333984375 80.498046875 52.5009765625 80.498046875 81.5009765625 c 0
 80.498046875 110.500976562 86.498046875 140.16796875 98.498046875 170.500976562 c 0
 110.498046875 200.833984375 128.331054688 230.000976562 151.998046875 258.000976562 c 0
 175.666015625 286.000976562 201.83203125 308.66796875 230.499023438 326.000976562 c 0
 295.83203125 366.66796875 337.83203125 395.000976562 356.499023438 411.000976562 c 0
 383.166015625 433.66796875 400.499023438 458.334960938 408.499023438 485.001953125 c 0
 412.499023438 499.668945312 414.499023438 517.668945312 414.499023438 539.001953125 c 0
 414.499023438 577.001953125 403.499023438 604.668945312 381.499023438 622.001953125 c 0
 361.499023438 638.668945312 333.499023438 647.001953125 297.499023438 647.001953125 c 0
 272.166015625 647.001953125 248.166015625 638.668945312 225.499023438 622.001953125 c 0
 202.83203125 605.334960938 184.499023438 586.66796875 170.499023438 566.000976562 c 0
 164.499023438 558.000976562 159.499023438 552.16796875 155.499023438 548.500976562 c 0
 151.499023438 544.833984375 147.499023438 542.666992188 143.499023438 542 c 2
 137.999023438 542 l 2
 135.666015625 542 132.833984375 542.333007812 129.5 543 c 0
 126.166992188 543.666992188 120.833984375 545.666992188 113.501953125 549 c 0
 104.833984375 553.666992188 99.501953125 560 97.5009765625 568 c 2
 97.5009765625 575 l 2
 97.4345703125 575.799804688 97.4013671875 576.623046875 97.4013671875 577.469726562 c 0
 97.4013671875 585.08984375 100.1015625 594.599609375 105.501953125 606 c 0
 111.501953125 617.333007812 120.833984375 629.166015625 133.501953125 641.499023438 c 0
 146.16796875 653.83203125 160.834960938 665.33203125 177.501953125 675.999023438 c 0
 194.169921875 686.666015625 212.501953125 695.333007812 232.501953125 702 c 0
 252.501953125 708.666992188 272.834960938 712 293.501953125 712 c 0
 356.834960938 712 406.16796875 696.333007812 441.501953125 665 c 0
 476.833984375 633.666992188 494.501953125 586 494.501953125 522 c 0
 494.501953125 469.333007812 481.16796875 427 454.501953125 395 c 0
 433.833984375 371.666992188 398.833984375 345.333984375 349.501953125 316.000976562 c 0
 334.16796875 306.000976562 313.501953125 293.333984375 287.501953125 278.000976562 c 0
 260.16796875 262.66796875 237.501953125 243.334960938 219.501953125 220.001953125 c 0
 200.833984375 196.668945312 187.001953125 172.8359375 178.001953125 148.502929688 c 0
 169.001953125 124.169921875 163.501953125 98.0029296875 161.501953125 70.0029296875 c 2
 161.501953125 60.0029296875 l 1
 206.833984375 57.3359375 247.501953125 56.0029296875 283.501953125 56.0029296875 c 0xb8
 309.501953125 56.0029296875 330.833984375 56.669921875 347.501953125 58.0029296875 c 0
 364.16796875 59.3359375 386.16796875 61.0029296875 413.501953125 63.0029296875 c 0
 442.16796875 65.0029296875 460.501953125 66.3359375 468.501953125 67.0029296875 c 2
 478.501953125 67.0029296875 l 2
 481.61328125 67.2255859375 484.318359375 67.3369140625 486.615234375 67.3369140625 c 0
 491.206054688 67.3369140625 494.16796875 66.892578125 495.501953125 66.00390625 c 0
 497.501953125 65.3369140625 499.833984375 64.00390625 502.501953125 62.00390625 c 0
 504.501953125 60.6708984375 505.833984375 59.337890625 506.501953125 58.0048828125 c 0
 508.501953125 54.0048828125 509.501953125 48.337890625 509.501953125 41.0048828125 c 0
 509.501953125 26.337890625 505.833984375 14.337890625 498.501953125 5.0048828125 c 0
 495.16796875 0.337890625 490.834960938 -1.9951171875 485.501953125 -1.9951171875 c 0x78
 437.501953125 -1.9951171875 369.166015625 -4 280.498046875 -8 c 0xb8
EndSplineSet
Validated: 524289
EndChar

StartChar: three
Encoding: 51 51 20
Width: 590
GlyphClass: 2
Flags: HMW
HStem: -14.998 64.998 328.002 81.002 647.004 65.001
VStem: 400.499 81 423.498 80.002
LayerCount: 2
Fore
SplineSet
480.501953125 532 m 0xf0
 481.168945312 530.666992188 481.499023438 529.333984375 481.499023438 528.000976562 c 0xf0
 481.499023438 511.333984375 479.001953125 495.833984375 474.001953125 481.500976562 c 0
 469.001953125 467.16796875 462.501953125 455.16796875 454.501953125 445.500976562 c 0
 446.501953125 435.833984375 436.668945312 427.000976562 425.001953125 419.000976562 c 0
 413.334960938 411.000976562 401.16796875 404.66796875 388.500976562 400.000976562 c 0
 377.16796875 395.333984375 365.16796875 391.666992188 352.500976562 389 c 2
 310.500976562 380 l 1
 352.500976562 370 l 2
 376.500976562 364.666992188 397.66796875 357.833984375 416.000976562 349.500976562 c 0
 434.333984375 341.16796875 450.166992188 330.500976562 463.5 317.500976562 c 0
 476.833007812 304.500976562 486.833007812 288.333984375 493.5 269.000976562 c 0
 500.166992188 249.66796875 503.5 226.334960938 503.5 199.001953125 c 0
 503.5 133.668945312 483.166992188 81.6689453125 442.5 43.001953125 c 0
 402.5 4.3349609375 349.5 -14.998046875 283.5 -14.998046875 c 0
 263.5 -14.998046875 243.5 -11.6650390625 223.5 -4.998046875 c 0
 202.166992188 2.3349609375 183 11.16796875 166 21.5009765625 c 0
 149 31.833984375 134.333007812 43.1669921875 122 55.5 c 0
 109.666992188 67.8330078125 100.5 80 94.5 92 c 0
 89.1669921875 102 86.5 111.333007812 86.5 120 c 0
 86.5 122.666992188 86.8330078125 125.333984375 87.5 128.000976562 c 0
 89.5 137.333984375 94.5 144.000976562 102.5 148.000976562 c 0
 109.833007812 152.000976562 116.833007812 154.000976562 123.5 154.000976562 c 0
 126.166992188 154.000976562 128.833984375 153.66796875 131.500976562 153.000976562 c 0
 140.833984375 150.333984375 150.166992188 143.000976562 159.5 131.000976562 c 0
 174.833007812 110.333984375 194.166015625 91.6669921875 217.499023438 75 c 0
 238.83203125 58.3330078125 262.165039062 50 287.498046875 50 c 0
 325.498046875 50 356.831054688 62.3330078125 381.498046875 87 c 0
 409.498046875 111.666992188 423.498046875 143.333984375 423.498046875 182.000976562 c 0xe8
 423.498046875 204.66796875 419.831054688 224.834960938 412.498046875 242.501953125 c 0
 405.165039062 260.168945312 393.83203125 275.668945312 378.499023438 289.001953125 c 0
 350.499023438 315.001953125 303.499023438 328.001953125 237.499023438 328.001953125 c 0
 227.499023438 328.001953125 218.83203125 332.334960938 211.499023438 341.001953125 c 0
 204.166015625 349.668945312 200.499023438 359.8359375 200.499023438 371.502929688 c 0
 200.499023438 383.169921875 203.166015625 392.336914062 208.499023438 399.00390625 c 0
 213.166015625 405.670898438 220.499023438 409.00390625 230.499023438 409.00390625 c 0
 282.499023438 409.00390625 323.499023438 420.670898438 353.499023438 444.00390625 c 0
 384.83203125 467.336914062 400.499023438 501.00390625 400.499023438 545.00390625 c 2
 400.499023438 549.00390625 l 1
 400.499023438 553.00390625 l 2
 400.518554688 553.899414062 400.528320312 554.7890625 400.528320312 555.671875 c 0
 400.528320312 585.68359375 389.518554688 608.4609375 367.499023438 624.00390625 c 0
 346.166015625 639.336914062 316.166015625 647.00390625 277.499023438 647.00390625 c 0
 264.83203125 647.00390625 251.499023438 644.670898438 237.499023438 640.00390625 c 0
 232.83203125 638.00390625 227.83203125 634.670898438 222.499023438 630.00390625 c 0
 217.166015625 625.336914062 212.833007812 621.669921875 209.5 619.002929688 c 0
 206.166992188 616.3359375 202 611.8359375 197 605.502929688 c 0
 192 599.169921875 188.5 594.836914062 186.5 592.50390625 c 0
 184.5 590.170898438 181.166992188 585.337890625 176.5 578.004882812 c 0
 167.166992188 565.337890625 158.166992188 558.004882812 149.5 556.004882812 c 0
 146.833007812 555.337890625 144.166015625 555.004882812 141.499023438 555.004882812 c 0
 134.83203125 555.004882812 127.499023438 557.004882812 119.499023438 561.004882812 c 0
 111.499023438 565.004882812 106.499023438 571.671875 104.499023438 581.004882812 c 0
 103.83203125 583.004882812 103.499023438 585.337890625 103.499023438 588.004882812 c 0
 103.499023438 596.671875 106.166015625 606.338867188 111.499023438 617.005859375 c 0
 124.166015625 642.338867188 143.499023438 664.005859375 169.499023438 682.005859375 c 0
 182.83203125 691.338867188 198.83203125 698.671875 217.499023438 704.004882812 c 0
 234.83203125 709.337890625 253.499023438 712.004882812 273.499023438 712.004882812 c 0
 412.166015625 712.004882812 481.499023438 653.337890625 481.499023438 536.004882812 c 0
 480.83203125 534.671875 480.501953125 533.333007812 480.501953125 532 c 0xf0
EndSplineSet
Validated: 524289
EndChar

StartChar: four
Encoding: 52 52 21
Width: 590
GlyphClass: 2
Flags: HMW
HStem: -13.998 21G 234 61.002 696.001 20G
VStem: 364.502 65.499 371.5 67.001 371.5 75.001
LayerCount: 2
Fore
SplineSet
386.5 -1 m 0xf0
 377.166992188 7 372.166992188 14.6669921875 371.5 22 c 2
 371.5 60 l 1xe4
 371.5 233 l 1xe8
 350.166992188 233.666992188 332.5 234 318.5 234 c 0
 230.5 233.333007812 165.83203125 228.666015625 124.5 219.999023438 c 0
 120.5 219.33203125 116.5 218.999023438 112.5 218.999023438 c 0
 108.5 218.999023438 104.5 219.666015625 100.5 220.999023438 c 0
 94.5 223.666015625 89.5 227.333007812 85.5 232 c 0
 76.1669921875 244 71.5 258.333007812 71.5 275 c 0
 71.5 283 72.8330078125 291 75.5 299 c 0
 82.1669921875 317.666992188 99.833984375 347.833984375 128.5 389.500976562 c 0
 157.16796875 431.16796875 193.16796875 483.000976562 236.5 545.000976562 c 0
 279.16796875 607.000976562 309.5 652.333984375 327.5 681.000976562 c 0
 334.833984375 692.333984375 342.833984375 700.833984375 351.5 706.500976562 c 0
 360.16796875 712.16796875 368.16796875 715.000976562 375.5 715.000976562 c 0
 377.5 715.66796875 379.5 716.000976562 381.5 716.000976562 c 0
 389.5 716.000976562 397.5 713.66796875 405.5 709.000976562 c 0
 413.5 704.333984375 418.5 696.333984375 420.5 685.000976562 c 0
 424.5 662.333984375 427.66796875 626.833984375 430 578.500976562 c 0xf0
 432.333984375 530.16796875 433.833984375 489.334960938 434.5 456.001953125 c 2
 437.5 294.001953125 l 1
 454.833984375 292.668945312 470.333984375 292.001953125 484 292.001953125 c 0
 497.66796875 292.001953125 506.66796875 289.501953125 511 284.501953125 c 0
 515.333984375 279.501953125 517.833984375 272.668945312 518.5 264.001953125 c 0
 518.5 253.334960938 516.5 245.334960938 512.5 240.001953125 c 0
 507.16796875 233.334960938 498 230.001953125 485 230.001953125 c 0
 472 230.001953125 456.5 230.668945312 438.5 232.001953125 c 1xe8
 439.16796875 126.668945312 441.16796875 67.001953125 444.5 53.001953125 c 0
 445.833984375 45.6689453125 446.5 39.001953125 446.5 33.001953125 c 0xe4
 447.16796875 22.3349609375 445.16796875 12.66796875 440.5 4.0009765625 c 0
 437.833984375 -1.33203125 434.333984375 -5.6650390625 430 -8.998046875 c 0
 425.66796875 -12.3310546875 420.5 -13.998046875 414.5 -13.998046875 c 0
 405.16796875 -13.3310546875 395.83203125 -9 386.5 -1 c 0xf0
364.501953125 603.001953125 m 2xf0
 363.501953125 629.001953125 l 1
 348.501953125 608.001953125 l 2
 257.834960938 478.001953125 195.501953125 377.001953125 161.501953125 305.001953125 c 2
 154.501953125 290.001953125 l 1
 170.501953125 291.001953125 l 2
 205.834960938 293.668945312 248.501953125 295.001953125 298.501953125 295.001953125 c 0
 318.501953125 295.001953125 342.834960938 294.668945312 371.501953125 294.001953125 c 1
 371.501953125 304.001953125 l 2
 371.501953125 429.334960938 369.16796875 529.001953125 364.501953125 603.001953125 c 2xf0
EndSplineSet
Validated: 524289
EndChar

StartChar: five
Encoding: 53 53 22
Width: 590
GlyphClass: 2
Flags: HMW
HStem: -7.99902 64.999 430 69.9971 628.997 69.002 639.996 60.0029
VStem: 86.501 73.999 94.501 67.999 433.5 80
LayerCount: 2
Fore
SplineSet
495.500976562 166 m 0xd6
 483.500976562 127.333007812 466.66796875 95.3330078125 445.000976562 70 c 0
 423.333984375 44.6669921875 398.500976562 25.333984375 370.500976562 12.0009765625 c 0
 343.16796875 -1.33203125 313.16796875 -7.9990234375 280.500976562 -7.9990234375 c 0
 255.16796875 -7.9990234375 231.500976562 -4.9990234375 209.500976562 1.0009765625 c 0
 186.16796875 7.0009765625 166.500976562 14.833984375 150.500976562 24.5009765625 c 0
 134.500976562 34.16796875 121.16796875 44.66796875 110.500976562 56.0009765625 c 0
 99.833984375 67.333984375 91.1669921875 79.0009765625 84.5 91.0009765625 c 0
 79.1669921875 103.66796875 76.5 114.000976562 76.5 122.000976562 c 0
 76.5 133.333984375 82.1669921875 141.666992188 93.5 147 c 0
 104.833007812 152.333007812 112.833007812 155 117.5 155 c 0
 119.5 154.333007812 121.166992188 154 122.5 154 c 0
 126.5 154 130.5 152 134.5 148 c 0
 138.5 144 143.5 138 149.5 130 c 0
 182.166992188 81.3330078125 223.166992188 57 272.5 57 c 0
 320.5 57 358.833007812 78 387.5 120 c 0
 418.166992188 161.333007812 433.5 216.333007812 433.5 285 c 0
 433.5 328.333007812 423.5 363 403.5 389 c 0
 384.166992188 416.333007812 355.833984375 430 318.500976562 430 c 0
 302.500976562 430 285.833984375 428 268.500976562 424 c 0
 259.16796875 421.333007812 246.834960938 415.666015625 231.501953125 406.999023438 c 0
 227.501953125 404.999023438 222.334960938 401.166015625 216.001953125 395.499023438 c 0
 209.668945312 389.83203125 205.501953125 385.999023438 203.501953125 383.999023438 c 0
 193.501953125 374.666015625 185.168945312 366.666015625 178.501953125 359.999023438 c 0
 167.834960938 350.666015625 154.834960938 345.333007812 139.501953125 344 c 2
 135.501953125 344 l 2
 128.834960938 344 122.501953125 345.333007812 116.501953125 348 c 0
 107.834960938 351.333007812 101.16796875 359.666015625 96.5009765625 372.999023438 c 0
 91.16796875 388.33203125 88.16796875 407.33203125 87.5009765625 429.999023438 c 0
 86.833984375 440.666015625 86.5009765625 450.999023438 86.5009765625 460.999023438 c 0xda
 86.5009765625 485.666015625 88.16796875 520.666015625 91.5009765625 565.999023438 c 0
 93.5009765625 590.666015625 94.5009765625 607.999023438 94.5009765625 617.999023438 c 2
 94.5009765625 620.999023438 l 1
 92.5009765625 622.999023438 l 2
 86.5009765625 632.999023438 83.5009765625 644.999023438 83.5009765625 658.999023438 c 0
 83.5009765625 674.33203125 87.833984375 686.33203125 96.5009765625 694.999023438 c 0
 101.833984375 700.33203125 107.833984375 702.999023438 114.500976562 702.999023438 c 0
 139.16796875 702.33203125 194.500976562 701.33203125 280.500976562 699.999023438 c 0xd6
 365.16796875 698.666015625 431.500976562 697.999023438 479.500976562 697.999023438 c 0
 484.16796875 697.999023438 488.500976562 695.666015625 492.500976562 690.999023438 c 0
 497.16796875 684.999023438 500.16796875 677.83203125 501.500976562 669.499023438 c 0
 502.833984375 661.166015625 503.166992188 653.666015625 502.5 646.999023438 c 0
 501.833007812 640.33203125 500 636.165039062 497 634.498046875 c 0
 494 632.831054688 491.666992188 631.6640625 490 630.997070312 c 0
 488.333007812 630.330078125 485.5 629.830078125 481.5 629.497070312 c 0
 477.5 629.1640625 474.666992188 628.997070312 473 628.997070312 c 0xe6
 471.333007812 628.997070312 467.666015625 629.1640625 461.999023438 629.497070312 c 0
 456.33203125 629.830078125 450.999023438 630.163085938 445.999023438 630.49609375 c 0
 440.999023438 630.829101562 426.499023438 631.99609375 402.499023438 633.99609375 c 0
 380.499023438 635.99609375 360.83203125 637.49609375 343.499023438 638.49609375 c 0
 326.166015625 639.49609375 302.333007812 639.99609375 272 639.99609375 c 0
 241.666992188 639.99609375 206.166992188 638.663085938 165.5 635.99609375 c 1
 164.833007812 623.329101562 163.833007812 600.99609375 162.5 568.99609375 c 0xd6
 161.166992188 536.99609375 160.5 516.663085938 160.5 507.99609375 c 0xda
 160.5 499.329101562 160.666992188 490.829101562 161 482.49609375 c 0
 161.333007812 474.163085938 161.833007812 451.330078125 162.5 413.997070312 c 1
 178.5 431.997070312 l 2
 195.833007812 451.330078125 218.333007812 467.497070312 246 480.497070312 c 0
 273.666992188 493.497070312 305.5 499.997070312 341.5 499.997070312 c 0
 367.5 499.997070312 391.166992188 494.6640625 412.5 483.997070312 c 0
 435.166992188 473.330078125 453.666992188 458.997070312 468 440.997070312 c 0
 482.333007812 422.997070312 493.5 401.497070312 501.5 376.497070312 c 0
 509.5 351.497070312 513.5 324.6640625 513.5 295.997070312 c 0
 513.5 247.997070312 507.500976562 204.666992188 495.500976562 166 c 0xd6
EndSplineSet
Validated: 524289
EndChar

StartChar: six
Encoding: 54 54 23
Width: 590
GlyphClass: 2
Flags: HMW
HStem: -13 64.998 401.999 69.999
VStem: 74.4995 69.999 437.499 78.002
LayerCount: 2
Fore
SplineSet
497.498046875 144 m 0
 485.498046875 112 469.331054688 84.5 448.998046875 61.5 c 0
 428.666015625 38.5 404.83203125 20.3330078125 377.499023438 7 c 0
 351.499023438 -6.3330078125 324.166015625 -13 295.499023438 -13 c 0
 259.499023438 -13 228.166015625 -5.3330078125 201.499023438 10 c 0
 172.166015625 25.3330078125 148.166015625 47.166015625 129.499023438 75.4990234375 c 0
 110.83203125 103.83203125 97 137.499023438 88 176.499023438 c 0
 79 215.499023438 74.5 258.666015625 74.5 305.999023438 c 0
 74.5 365.999023438 80.166015625 419.999023438 91.5 467.999023438 c 0
 102.166015625 512.666015625 116.666015625 550.333007812 134.999023438 581 c 0
 153.33203125 611.666992188 175.83203125 637.333984375 202.499023438 658.000976562 c 0
 227.166015625 679.333984375 253.833984375 695.333984375 282.5 706.000976562 c 0
 311.166992188 716.66796875 343.166992188 723.66796875 378.5 727.000976562 c 2
 384.5 727.000976562 l 2
 394.5 727.000976562 403.5 725.000976562 411.5 721.000976562 c 0
 419.5 717.000976562 424.166992188 710.333984375 425.5 701.000976562 c 2
 425.5 700.000976562 l 2
 425.5 695.333984375 422.5 689.666992188 416.5 683 c 0
 409.166992188 674.333007812 401.166992188 668.666015625 392.5 665.999023438 c 0
 385.833984375 663.999023438 375.5 661.499023438 361.5 658.499023438 c 0
 347.5 655.499023438 335.5 652.33203125 325.5 648.999023438 c 0
 315.5 645.666015625 303.833984375 640.999023438 290.5 634.999023438 c 0
 263.833984375 622.33203125 236.833984375 598.999023438 209.5 564.999023438 c 0
 194.833984375 546.33203125 181.166015625 521.665039062 168.499023438 490.998046875 c 0
 155.83203125 460.331054688 147.83203125 432.998046875 144.499023438 408.998046875 c 2
 140.499023438 375.998046875 l 1
 161.499023438 400.998046875 l 2
 181.499023438 424.331054688 206.166015625 441.998046875 235.499023438 453.998046875 c 0
 264.166015625 465.998046875 296.499023438 471.998046875 332.499023438 471.998046875 c 0
 359.166015625 471.331054688 383.166015625 466.998046875 404.499023438 458.998046875 c 0
 427.166015625 450.998046875 446.833984375 438.165039062 463.5 420.498046875 c 0
 480.166992188 402.831054688 493 379.498046875 502 350.498046875 c 0
 511 321.498046875 515.5 286.665039062 515.5 245.998046875 c 0
 515.5 209.998046875 509.498046875 176 497.498046875 144 c 0
146.5 228.998046875 m 0
 149.166992188 196.331054688 159.166992188 164.998046875 176.5 134.998046875 c 0
 185.166992188 118.998046875 195.166992188 104.998046875 206.5 92.998046875 c 0
 217.166992188 80.3310546875 230.166992188 70.3310546875 245.5 62.998046875 c 0
 260.833984375 55.6650390625 277.166015625 51.998046875 294.499023438 51.998046875 c 2
 296.499023438 51.998046875 l 2
 321.166015625 51.998046875 344.166015625 61.3310546875 365.499023438 79.998046875 c 0
 386.83203125 97.998046875 404.166015625 120.998046875 417.498046875 148.998046875 c 0
 430.831054688 176.998046875 437.498046875 205.331054688 437.498046875 233.998046875 c 0
 437.498046875 266.665039062 434.498046875 294.165039062 428.498046875 316.498046875 c 0
 422.498046875 338.831054688 413.166015625 356.331054688 400.498046875 368.998046875 c 0
 388.498046875 381.665039062 375.166015625 390.33203125 360.498046875 394.999023438 c 0
 345.831054688 399.666015625 328.498046875 401.999023438 308.498046875 401.999023438 c 0
 276.498046875 401.999023438 246.498046875 392.999023438 218.498046875 374.999023438 c 0
 189.831054688 356.999023438 165.831054688 333.999023438 146.498046875 305.999023438 c 1
 144.498046875 303.999023438 l 1
 144.498046875 300.999023438 l 2
 144.498046875 269.666015625 145.166992188 245.665039062 146.5 228.998046875 c 0
EndSplineSet
Validated: 524289
EndChar

StartChar: seven
Encoding: 55 55 24
Width: 590
GlyphClass: 2
Flags: HMW
HStem: -14 21G<142.168 147.502> 632.8 71.2011
LayerCount: 2
Fore
SplineSet
491.999023438 693.5 m 0
 497.666015625 691.166992188 502.833007812 687.333984375 507.5 682.000976562 c 0
 512.166992188 676.66796875 514.5 669.66796875 514.5 661.000976562 c 0
 514.5 652.333984375 511.833007812 641.666992188 506.5 629 c 0
 497.166992188 609 480.333984375 579 456.000976562 539 c 0
 431.66796875 499 406.834960938 457.666992188 381.501953125 415 c 0
 357.501953125 373 328.168945312 316.833007812 293.501953125 246.5 c 0
 258.834960938 176.166992188 226.16796875 104 195.500976562 30 c 0
 188.16796875 14 178.834960938 2.3330078125 167.501953125 -5 c 0
 159.501953125 -11 151.501953125 -14 143.501953125 -14 c 0
 140.834960938 -14 138.501953125 -13.6669921875 136.501953125 -13 c 0
 125.834960938 -10.3330078125 118.16796875 -3.8330078125 113.500976562 6.5 c 0
 111.458984375 11.0205078125 110.438476562 15.701171875 110.438476562 20.541015625 c 0
 110.438476562 26.763671875 112.125976562 33.25 115.500976562 40 c 0
 150.16796875 108 185.834960938 176 222.501953125 244 c 0
 257.834960938 312 287.001953125 366.166992188 310.001953125 406.5 c 0
 333.001953125 446.833007812 354.501953125 486.333007812 374.501953125 525 c 0
 395.168945312 563 409.501953125 594 417.501953125 618 c 2
 421.501953125 631 l 1
 384.302734375 632.200195312 347.463867188 632.799804688 310.984375 632.799804688 c 0
 286.6640625 632.799804688 262.502929688 632.533203125 238.501953125 632 c 0
 174.501953125 630 132.168945312 626.333007812 111.501953125 621 c 0
 109.501953125 620.333007812 107.168945312 620 104.501953125 620 c 0
 101.834960938 620 99.16796875 620.666992188 96.5009765625 622 c 0
 91.833984375 623.333007812 88.1669921875 626 85.5 630 c 0
 79.5 638.666992188 76.1669921875 648.666992188 75.5 660 c 0
 75.5 669.333007812 77.6669921875 676.833007812 82 682.5 c 0
 86.3330078125 688.166992188 95.5 692.333984375 109.5 695.000976562 c 0
 144.833007812 701.000976562 200.833007812 704.000976562 277.5 704.000976562 c 0
 301.5 704.000976562 348.5 702.333984375 418.5 699.000976562 c 0
 453.833007812 697.66796875 472.833007812 697.000976562 475.5 697.000976562 c 0
 480.833007812 697.000976562 486.33203125 695.833007812 491.999023438 693.5 c 0
EndSplineSet
Validated: 524289
EndChar

StartChar: eight
Encoding: 56 56 25
Width: 590
GlyphClass: 2
Flags: HMW
HStem: -17.999 66.001 656.002 52.001
VStem: 68.5 66.9971 95.501 73.9971 407.5 70 447.498 74.002
LayerCount: 2
Fore
SplineSet
513.498046875 142.5 m 0xc4
 508.165039062 122.166992188 498.998046875 102.333984375 485.998046875 83.0009765625 c 0
 472.998046875 63.66796875 457.331054688 46.66796875 438.998046875 32.0009765625 c 0
 420.665039062 17.333984375 397.83203125 5.333984375 370.499023438 -3.9990234375 c 0
 344.499023438 -13.33203125 315.83203125 -17.9990234375 284.499023438 -17.9990234375 c 0
 253.166015625 -17.9990234375 225.499023438 -13.666015625 201.499023438 -4.9990234375 c 0
 176.166015625 3.66796875 155.499023438 15.0009765625 139.499023438 29.0009765625 c 0
 123.499023438 43.0009765625 109.83203125 59.5009765625 98.4990234375 78.5009765625 c 0
 87.166015625 97.5009765625 79.3330078125 116.66796875 75 136.000976562 c 0
 70.6669921875 155.333984375 68.5 175.500976562 68.5 196.500976562 c 0xe4
 68.5 217.500976562 74 240.333984375 85 265.000976562 c 0
 96 289.66796875 111.833007812 312.66796875 132.5 334.000976562 c 0
 153.166992188 355.333984375 175.5 370.000976562 199.5 378.000976562 c 2
 221.5 386.000976562 l 1
 200.5 396.000976562 l 2
 167.166992188 412.000976562 141.333984375 432.66796875 123.000976562 458.000976562 c 0
 104.66796875 483.333984375 95.5009765625 509.000976562 95.5009765625 535.000976562 c 0
 95.5009765625 542.333984375 96.0009765625 550.333984375 97.0009765625 559.000976562 c 0
 98.0009765625 567.66796875 100.500976562 577.834960938 104.500976562 589.501953125 c 0
 108.500976562 601.168945312 113.333984375 612.3359375 119.000976562 623.002929688 c 0
 124.66796875 633.669921875 132.66796875 644.169921875 143.000976562 654.502929688 c 0
 153.333984375 664.8359375 165.166992188 674.002929688 178.5 682.002929688 c 0
 191.166992188 689.3359375 206.666992188 695.502929688 225 700.502929688 c 0
 243.333007812 705.502929688 263.833007812 708.002929688 286.5 708.002929688 c 0
 309.166992188 708.002929688 329.666992188 705.669921875 348 701.002929688 c 0
 366.333007812 696.3359375 381.833007812 690.002929688 394.5 682.002929688 c 0
 407.833007812 674.002929688 419.666015625 664.8359375 429.999023438 654.502929688 c 0
 440.33203125 644.169921875 448.33203125 633.669921875 453.999023438 623.002929688 c 0
 459.666015625 612.3359375 464.333007812 601.002929688 468 589.002929688 c 0
 471.666992188 577.002929688 474.166992188 566.502929688 475.5 557.502929688 c 0
 476.833007812 548.502929688 477.5 540.002929688 477.5 532.002929688 c 0xd8
 477.5 524.002929688 476.5 516.502929688 474.5 509.502929688 c 0
 472.5 502.502929688 470.166992188 496.169921875 467.5 490.502929688 c 0
 464.833007812 484.8359375 461 479.002929688 456 473.002929688 c 0
 451 467.002929688 446.166992188 461.669921875 441.5 457.002929688 c 0
 433.5 448.3359375 419.833007812 437.3359375 400.5 424.002929688 c 0
 392.5 418.002929688 379.5 408.3359375 361.5 395.002929688 c 1
 376.5 388.002929688 l 2
 399.166992188 378.002929688 419.5 366.502929688 437.5 353.502929688 c 0
 455.5 340.502929688 469.666992188 327.669921875 480 315.002929688 c 0
 490.333007812 302.3359375 498.833007812 289.168945312 505.5 275.501953125 c 0
 512.166992188 261.834960938 516.5 249.501953125 518.5 238.501953125 c 0
 520.5 227.501953125 521.5 216.001953125 521.5 204.001953125 c 0
 521.5 183.334960938 518.831054688 162.833007812 513.498046875 142.5 c 0xc4
202.5 472.001953125 m 0
 221.833007812 454.001953125 253.5 436.334960938 297.5 419.001953125 c 1
 300.5 417.001953125 l 1
 304.5 419.001953125 l 2
 330.5 430.334960938 353.833007812 446.334960938 374.5 467.001953125 c 0
 396.5 488.334960938 407.5 509.001953125 407.5 529.001953125 c 0
 407.5 549.001953125 402.166992188 568.668945312 391.5 588.001953125 c 0
 380.833007812 607.334960938 366.166015625 623.501953125 347.499023438 636.501953125 c 0
 328.83203125 649.501953125 308.83203125 656.001953125 287.499023438 656.001953125 c 2
 285.499023438 656.001953125 l 2
 254.83203125 655.334960938 228.165039062 643.001953125 205.498046875 619.001953125 c 0
 181.498046875 595.001953125 169.498046875 568.001953125 169.498046875 538.001953125 c 0xd8
 169.498046875 513.334960938 180.5 491.334960938 202.5 472.001953125 c 0
159.498046875 113.501953125 m 0
 175.498046875 91.8349609375 194.831054688 75.3349609375 217.498046875 64.001953125 c 0
 239.498046875 53.3349609375 263.165039062 48.001953125 288.498046875 48.001953125 c 0
 306.498046875 48.001953125 324.498046875 51.001953125 342.498046875 57.001953125 c 0
 360.498046875 63.001953125 377.165039062 71.6689453125 392.498046875 83.001953125 c 0
 408.498046875 95.001953125 421.665039062 110.168945312 431.998046875 128.501953125 c 0
 442.331054688 146.834960938 447.498046875 166.66796875 447.498046875 188.000976562 c 0
 447.498046875 200.000976562 446.665039062 211.16796875 444.998046875 221.500976562 c 0
 443.331054688 231.833984375 439.1640625 243.666992188 432.497070312 257 c 0
 425.830078125 270.333007812 416.830078125 282.666015625 405.497070312 293.999023438 c 0
 394.830078125 305.33203125 380.663085938 316.83203125 362.99609375 328.499023438 c 0
 345.329101562 340.166015625 323.49609375 351.333007812 297.49609375 362 c 1
 294.49609375 361 l 2
 249.163085938 347.666992188 211.830078125 324.666992188 182.497070312 292 c 0
 151.1640625 259.333007812 135.497070312 224 135.497070312 186 c 0xe4
 135.497070312 159.333007812 143.498046875 135.168945312 159.498046875 113.501953125 c 0
EndSplineSet
Validated: 524289
EndChar

StartChar: nine
Encoding: 57 57 26
Width: 590
GlyphClass: 2
Flags: HMW
HStem: -13 21G<177.501 182.501 182.501 190.501> 244.999 69 664.999 64.002
VStem: 74.5 78<464 497> 446.499 69.001
LayerCount: 2
Fore
SplineSet
496.5 238 m 0
 484.5 196 468.166992188 160.333007812 447.5 131 c 0
 426.833007812 101.666992188 402.5 76.6669921875 374.5 56 c 0
 347.833007812 35.3330078125 319.333007812 19.5 289 8.5 c 0
 258.666992188 -2.5 225.833984375 -9.6669921875 190.500976562 -13 c 2
 182.500976562 -13 l 2
 172.500976562 -13 163.333984375 -10.8330078125 155.000976562 -6.5 c 0
 146.66796875 -2.1669921875 141.834960938 4.3330078125 140.501953125 13 c 2
 140.501953125 14 l 2
 140.501953125 19.3330078125 143.501953125 25.3330078125 149.501953125 32 c 0
 156.834960938 40 165.16796875 45.3330078125 174.500976562 48 c 0
 181.833984375 50.6669921875 193.166992188 53.6669921875 208.5 57 c 0
 223.833007812 60.3330078125 237.5 63.666015625 249.5 66.9990234375 c 0
 261.5 70.33203125 275.166992188 75.1650390625 290.5 81.498046875 c 0
 305.833007812 87.8310546875 320.666015625 96.498046875 334.999023438 107.498046875 c 0
 349.33203125 118.498046875 362.83203125 131.665039062 375.499023438 146.998046875 c 0
 391.499023438 167.665039062 406.166015625 190.998046875 419.499023438 216.998046875 c 0
 432.83203125 242.998046875 441.83203125 266.998046875 446.499023438 288.998046875 c 2
 453.499023438 324.998046875 l 1
 429.499023438 296.998046875 l 2
 412.166015625 277.665039062 390.833007812 264.33203125 365.5 256.999023438 c 0
 340.833007812 248.999023438 309.166015625 244.999023438 270.499023438 244.999023438 c 0
 245.166015625 244.999023438 220.833007812 251.666015625 197.5 264.999023438 c 0
 172.833007812 277.666015625 151.5 294.833007812 133.5 316.5 c 0
 115.5 338.166992188 101.166992188 363.166992188 90.5 391.5 c 0
 79.8330078125 419.833007812 74.5 449 74.5 479 c 0
 74.5 515 80.5 548.666992188 92.5 580 c 0
 104.5 611.333007812 120.5 637.833007812 140.5 659.5 c 0
 160.5 681.166992188 184.166992188 698.333984375 211.5 711.000976562 c 0
 237.5 723.000976562 265.166992188 729.000976562 294.5 729.000976562 c 0
 365.833007812 729.000976562 420.5 699.66796875 458.5 641.000976562 c 0
 496.5 582.333984375 515.5 498.666992188 515.5 390 c 0
 515.5 333.333007812 509.166992188 282.666992188 496.5 238 c 0
190.5 359.999023438 m 0
 213.833007812 329.33203125 248.166015625 313.999023438 293.499023438 313.999023438 c 0
 321.499023438 313.999023438 348.83203125 320.999023438 375.499023438 334.999023438 c 0
 404.166015625 348.999023438 427.166015625 368.33203125 444.499023438 392.999023438 c 2
 446.499023438 395.999023438 l 1
 446.499023438 411.999023438 l 2
 446.499023438 430.666015625 445.499023438 455.666015625 443.499023438 486.999023438 c 2
 443.499023438 487.999023438 l 2
 440.166015625 520.666015625 430.166015625 551.999023438 413.499023438 581.999023438 c 0
 404.83203125 597.999023438 394.83203125 611.999023438 383.499023438 623.999023438 c 0
 372.83203125 635.999023438 359.83203125 645.83203125 344.499023438 653.499023438 c 0
 329.166015625 661.166015625 312.833007812 664.999023438 295.5 664.999023438 c 2
 293.5 664.999023438 l 2
 269.5 664.33203125 246.833007812 655.665039062 225.5 638.998046875 c 0
 204.166992188 622.331054688 186.666992188 600.6640625 173 573.997070312 c 0
 159.333007812 547.330078125 152.5 519.663085938 152.5 490.99609375 c 0
 152.5 434.329101562 165.166992188 390.666015625 190.5 359.999023438 c 0
EndSplineSet
Validated: 524289
EndChar

StartChar: colon
Encoding: 58 58 27
Width: 590
GlyphClass: 2
Flags: HMW
HStem: 49.001 136.124 317 135.143
VStem: 240.748 110.001
LayerCount: 2
Fore
SplineSet
298.750976562 317 m 2
 295.750976562 317 l 2
 279.750976562 317.666992188 267.083984375 320.666992188 257.750976562 326 c 0
 247.750976562 332 242.083984375 341.333007812 240.750976562 354 c 0
 240.083984375 365.333007812 239.750976562 377 239.750976562 389 c 0
 239.416992188 394.666015625 239.250976562 400.249023438 239.250976562 405.749023438 c 0
 239.250976562 411.249023438 239.416992188 416.666015625 239.750976562 422 c 0
 240.418945312 428.666992188 242.418945312 434 245.750976562 438 c 0
 249.083984375 442 253.416992188 445 258.750976562 447 c 0
 269.036132812 450.428710938 279.810546875 452.143554688 291.075195312 452.143554688 c 0
 292.954101562 452.143554688 294.844726562 452.095703125 296.750976562 452 c 0
 302.083007812 452 307.416015625 451.333007812 312.749023438 450 c 0
 326.749023438 447.333007812 336.416015625 442 341.749023438 434 c 0
 345.083007812 429.333007812 347.083007812 423.333007812 347.749023438 416 c 0
 348.416015625 412 348.749023438 408 348.749023438 404 c 0
 348.749023438 386.666992188 346.083007812 368.333984375 340.749023438 349.000976562 c 0
 338.083007812 338.333984375 332.415039062 330.333984375 323.748046875 325.000976562 c 0
 315.081054688 319.66796875 306.750976562 317 298.750976562 317 c 2
295.748046875 49.0009765625 m 0
 283.081054688 49.0009765625 270.748046875 53.0009765625 258.748046875 61.0009765625 c 0
 248.748046875 67.0009765625 243.081054688 75.333984375 241.748046875 86.0009765625 c 0
 241.081054688 104.000976562 240.748046875 114.000976562 240.748046875 116.000976562 c 0
 240.748046875 118.000976562 241.081054688 123.66796875 241.748046875 133.000976562 c 0
 242.415039062 142.333984375 243.083007812 149.666992188 243.749023438 155 c 0
 243.749023438 161 245.416015625 166 248.749023438 170 c 0
 251.416015625 174 255.416015625 177 260.749023438 179 c 0
 272.415039062 183.083007812 283.315429688 185.125 293.450195312 185.125 c 0
 294.899414062 185.125 296.331054688 185.083007812 297.748046875 185 c 0
 304.415039062 185 311.083007812 184 317.749023438 182 c 0
 325.083007812 180 331.749023438 176 337.749023438 170 c 0
 343.749023438 164 347.416015625 157 348.749023438 149 c 0
 350.083007812 140.333007812 350.749023438 132 350.749023438 124 c 0
 350.749023438 110 348.749023438 95.6669921875 344.749023438 81 c 0
 342.083007812 70.3330078125 335.415039062 62.3330078125 324.748046875 57 c 0
 314.748046875 51.6669921875 305.081054688 49.0009765625 295.748046875 49.0009765625 c 0
EndSplineSet
Validated: 524289
EndChar

StartChar: semicolon
Encoding: 59 59 28
Width: 590
GlyphClass: 2
Flags: HMW
HStem: 275.002 136.001
VStem: 268.834 109.666
LayerCount: 2
Fore
SplineSet
358.498046875 79.001953125 m 0
 358.498046875 62.3349609375 336.831054688 -25.33203125 293.498046875 -183.999023438 c 0
 290.165039062 -195.999023438 284.833007812 -204.33203125 277.499023438 -208.999023438 c 0
 270.166015625 -213.666015625 262.499023438 -215.999023438 254.499023438 -215.999023438 c 2
 252.499023438 -215.999023438 l 2
 241.166015625 -215.33203125 230.833007812 -211.665039062 221.500976562 -204.998046875 c 0
 214.833007812 -200.331054688 211.500976562 -193.6640625 211.500976562 -184.997070312 c 0
 211.500976562 -173.6640625 218.500976562 -133.331054688 232.500976562 -63.998046875 c 0
 245.166992188 -2.6650390625 255.500976562 44.3349609375 263.500976562 77.001953125 c 0
 265.500976562 85.6689453125 268.000976562 92.3359375 271.000976562 97.0029296875 c 0
 274.000976562 101.669921875 276.833007812 104.669921875 279.500976562 106.002929688 c 0
 286.166992188 108.669921875 292.500976562 110.002929688 298.500976562 110.002929688 c 0
 300.500976562 110.002929688 302.833007812 109.669921875 305.500976562 109.002929688 c 2
 306.500976562 109.002929688 l 2
 317.833007812 109.002929688 329.500976562 106.3359375 341.500976562 101.002929688 c 0
 347.500976562 98.3359375 352.166992188 94.6689453125 355.500976562 90.001953125 c 0
 357.500976562 87.3349609375 358.498046875 83.6689453125 358.498046875 79.001953125 c 0
326.500976562 275.001953125 m 2
 319.166992188 275.668945312 311.331054688 277.333984375 302.998046875 280.000976562 c 0
 294.665039062 282.66796875 287.333007812 286.834960938 280.999023438 292.501953125 c 0
 274.666015625 298.168945312 271.166015625 304.668945312 270.499023438 312.001953125 c 0
 269.833007812 323.334960938 269.333007812 334.834960938 268.999023438 346.501953125 c 0
 268.887695312 350.38671875 268.833007812 354.216796875 268.833007812 357.991210938 c 0
 268.833007812 365.55078125 269.055664062 372.887695312 269.500976562 380.002929688 c 0
 270.166992188 386.002929688 272.166992188 391.169921875 275.500976562 395.502929688 c 0
 278.833007812 399.8359375 283.500976562 403.002929688 289.500976562 405.002929688 c 0
 295.500976562 407.002929688 301.333007812 408.502929688 307.000976562 409.502929688 c 0
 312.666992188 410.502929688 317.000976562 411.002929688 320.000976562 411.002929688 c 2
 326.500976562 411.002929688 l 2
 337.833007812 410.3359375 348.498046875 407.668945312 358.498046875 403.001953125 c 0
 363.831054688 401.001953125 368.166015625 397.501953125 371.499023438 392.501953125 c 0
 374.833007812 387.501953125 376.833007812 381.668945312 377.499023438 375.001953125 c 0
 378.166015625 371.001953125 378.499023438 367.001953125 378.499023438 363.001953125 c 0
 378.499023438 345.001953125 375.833007812 326.334960938 370.499023438 307.001953125 c 0
 367.833007812 296.334960938 362.165039062 288.334960938 353.498046875 283.001953125 c 0
 344.831054688 277.668945312 336.498046875 275.001953125 328.498046875 275.001953125 c 2
 326.998046875 275.001953125 l 1
 326.500976562 275.001953125 l 2
EndSplineSet
Validated: 524289
EndChar

StartChar: less
Encoding: 60 60 29
Width: 590
GlyphClass: 2
Flags: HMW
HStem: 683 20G<482.167 489.501>
LayerCount: 2
Fore
SplineSet
523.5 648 m 0
 516.83203125 637.333007812 502.83203125 624.333007812 481.5 609 c 0
 444.166992188 583 387.5 540.333007812 311.5 481 c 0
 234.83203125 421 182.83203125 380.666992188 155.5 360 c 1
 166.5 353 l 2
 191.83203125 333 220.5 308.666992188 252.5 280 c 0
 284.5 251.333007812 312.5 225.666015625 336.5 202.999023438 c 0
 360.5 179.666015625 386.5 155.999023438 414.5 131.999023438 c 0
 443.166992188 107.999023438 467.833984375 89.33203125 488.5 75.9990234375 c 0
 509.833984375 61.9990234375 523.5 50.33203125 529.5 40.9990234375 c 0
 532.16796875 36.9990234375 533.5 32.666015625 533.5 27.9990234375 c 0
 533.5 25.9990234375 532.833984375 22.666015625 531.5 17.9990234375 c 0
 529.5 12.666015625 525.833984375 8.3330078125 520.5 5 c 0
 515.16796875 1.6669921875 507.5 -0.666015625 497.5 -1.9990234375 c 0
 494.833984375 -2.666015625 492.5 -2.9990234375 490.5 -2.9990234375 c 0
 481.833984375 -2.9990234375 472.166992188 -0.9990234375 461.5 3.0009765625 c 0
 444.83203125 8.333984375 424.83203125 19.6669921875 401.5 37 c 0
 377.5 54.3330078125 351.5 75.666015625 323.5 100.999023438 c 0
 295.5 126.33203125 267.5 151.999023438 239.5 177.999023438 c 0
 211.5 203.999023438 181.83203125 230.666015625 150.5 257.999023438 c 0
 119.166992188 285.33203125 92.5 306.999023438 70.5 322.999023438 c 0
 63.8330078125 328.33203125 59.5 335.665039062 57.5 344.998046875 c 0
 56.8330078125 349.665039062 56.5 354.33203125 56.5 358.999023438 c 0
 56.5 363.666015625 57.1669921875 368.333007812 58.5 373 c 0
 61.1669921875 381.666992188 65.5 388 71.5 392 c 0
 109.5 420 154.166992188 455.333007812 205.5 498 c 0
 256.83203125 540.666992188 303.5 579 345.5 613 c 0
 388.166992188 647 425.833984375 673.666992188 458.5 693 c 0
 468.5 699.666992188 477.833984375 703 486.5 703 c 0
 492.5 703 497.5 701.666992188 501.5 699 c 0
 512.833984375 693 520.833984375 684.666992188 525.5 674 c 0
 527.5 669.333007812 528.5 665 528.5 661 c 0
 527.833984375 657 526.166992188 652.666992188 523.5 648 c 0
EndSplineSet
Validated: 524289
EndChar

StartChar: equal
Encoding: 61 61 30
Width: 590
GlyphClass: 2
Flags: HMW
HStem: 256.909 63.091 452.907 66.0929
LayerCount: 2
Fore
SplineSet
148.499023438 519 m 2
 151.499023438 519 l 2
 189.499023438 517.666992188 228.499023438 517 268.499023438 517 c 0
 309.166015625 517 346.833007812 517.333007812 381.499023438 518 c 0
 416.166992188 518.666992188 437.166992188 519 444.499023438 519 c 0
 457.166992188 518.333007812 465.499023438 515.666015625 469.499023438 510.999023438 c 0
 474.166992188 506.33203125 476.833984375 499.665039062 477.500976562 490.998046875 c 0
 476.833984375 473.665039062 471.833984375 462.998046875 462.500976562 458.998046875 c 0
 459.833984375 457.665039062 456.833984375 456.998046875 453.500976562 456.998046875 c 2
 445.500976562 456.998046875 l 2
 430.166992188 457.665039062 416.166992188 457.998046875 403.500976562 457.998046875 c 2
 368.500976562 457.998046875 l 1
 258.500976562 454.998046875 l 2
 212.500976562 453.665039062 178.500976562 452.998046875 156.500976562 452.998046875 c 0
 155.166992188 452.9375 153.862304688 452.907226562 152.588867188 452.907226562 c 0
 139.862304688 452.907226562 130.166992188 455.9375 123.500976562 461.998046875 c 0
 116.166992188 467.998046875 112.500976562 475.331054688 112.500976562 483.998046875 c 2
 112.500976562 486.998046875 l 2
 113.166992188 495.665039062 116.166992188 502.998046875 121.500976562 508.998046875 c 0
 127.500976562 515.665039062 136.499023438 519 148.499023438 519 c 2
154.500976562 319.998046875 m 2
 175.833984375 319.331054688 201.166992188 318.998046875 230.499023438 318.998046875 c 0
 260.499023438 319.665039062 296.499023438 320.33203125 338.499023438 320.999023438 c 2
 444.499023438 322.999023438 l 2
 457.166992188 322.999023438 465.499023438 320.666015625 469.499023438 315.999023438 c 0
 474.166992188 310.666015625 476.833984375 303.666015625 477.500976562 294.999023438 c 0
 477.500976562 284.33203125 475.500976562 275.999023438 471.500976562 269.999023438 c 0
 468.833984375 266.666015625 465.833984375 264.333007812 462.500976562 263 c 0
 459.833984375 261.666992188 456.833984375 261 453.500976562 261 c 2
 445.500976562 261 l 2
 428.833984375 261.666992188 410.166992188 262 389.499023438 262 c 0
 368.833007812 262 324.166015625 261 255.499023438 259 c 0
 208.166015625 257.666992188 173.833007812 257 152.499023438 257 c 0
 151.225585938 256.939453125 149.986328125 256.909179688 148.779296875 256.909179688 c 0
 136.713867188 256.909179688 127.954101562 259.939453125 122.499023438 266 c 0
 115.833007812 272.666992188 112.499023438 280.666992188 112.499023438 290 c 2
 112.499023438 292 l 2
 113.166992188 300 116.499023438 306.666992188 122.499023438 312 c 0
 128.499023438 317.333007812 138.499023438 320 152.499023438 320 c 2
 154.500976562 319.998046875 l 2
EndSplineSet
Validated: 524289
EndChar

StartChar: greater
Encoding: 62 62 31
Width: 590
GlyphClass: 2
Flags: HMW
HStem: 690 20G<98.499 103.833>
LayerCount: 2
Fore
SplineSet
531.500976562 334 m 0
 528.833984375 325.333007812 524.500976562 319 518.500976562 315 c 0
 480.500976562 287 435.833984375 251.666992188 384.500976562 209 c 0
 333.16796875 166.333007812 286.500976562 128 244.500976562 94 c 0
 201.833984375 60.6669921875 164.166992188 34 131.5 14 c 0
 121.5 7.3330078125 111.833007812 4 102.5 4 c 0
 97.1669921875 4 92.5 5.3330078125 88.5 8 c 0
 77.1669921875 14 69.1669921875 22.3330078125 64.5 33 c 0
 62.5 37.6669921875 61.5 42 61.5 46 c 0
 61.5 50 62.8330078125 54.3330078125 65.5 59 c 0
 72.1669921875 69.6669921875 86.5 82.6669921875 108.5 98 c 0
 145.833007812 124 202.5 166.666992188 278.5 226 c 0
 354.5 286 403.166992188 323.666992188 424.5 339 c 2
 434.5 347 l 1
 424.5 354 l 2
 398.5 374 369.5 398.333007812 337.5 427 c 0
 305.5 455.666992188 277.5 481.333984375 253.5 504.000976562 c 0
 229.5 527.333984375 203.5 551.000976562 175.5 575.000976562 c 0
 146.833007812 599.000976562 122.166015625 617.66796875 101.499023438 631.000976562 c 0
 80.166015625 645.000976562 66.4990234375 656.66796875 60.4990234375 666.000976562 c 0
 57.83203125 670.66796875 56.4990234375 675.334960938 56.4990234375 680.001953125 c 0
 56.4990234375 681.334960938 57.166015625 684.334960938 58.4990234375 689.001953125 c 0
 60.4990234375 694.334960938 64.166015625 698.66796875 69.4990234375 702.000976562 c 0
 74.83203125 705.333984375 82.4990234375 707.666992188 92.4990234375 709 c 0
 95.166015625 709.666992188 97.4990234375 710 99.4990234375 710 c 0
 108.166015625 710 117.833007812 708 128.5 704 c 0
 144.5 698.666992188 164.5 687.333984375 188.5 670.000976562 c 0
 212.5 652.66796875 238.5 631.334960938 266.5 606.001953125 c 0
 294.5 580.668945312 322.5 555.001953125 350.5 529.001953125 c 0
 378.5 503.001953125 408.166992188 476.334960938 439.5 449.001953125 c 0
 470.166992188 421.668945312 496.833984375 400.001953125 519.500976562 384.001953125 c 0
 526.16796875 378.668945312 530.500976562 371.3359375 532.500976562 362.002929688 c 0
 533.16796875 357.3359375 533.500976562 352.668945312 533.500976562 348.001953125 c 0
 533.500976562 343.334960938 532.833984375 338.666992188 531.500976562 334 c 0
EndSplineSet
Validated: 524289
EndChar

StartChar: question
Encoding: 63 63 32
Width: 590
GlyphClass: 2
Flags: HMW
HStem: -4.00195 134.053 646.999 64.999
VStem: 201.549 143 412.549 80.001
LayerCount: 2
Fore
SplineSet
492.55078125 522 m 0
 492.55078125 505.333007812 489.8828125 490 484.55078125 476 c 0
 479.217773438 462.666992188 472.217773438 451 463.55078125 441 c 0
 454.8828125 431 444.8828125 421.333007812 433.55078125 412 c 0
 421.55078125 403.333007812 409.55078125 394.333007812 397.55078125 385 c 0
 385.55078125 375.666992188 373.8828125 365.666992188 362.55078125 355 c 0
 351.8828125 343.666992188 342.216796875 330.333984375 333.549804688 315.000976562 c 0
 324.8828125 299.66796875 319.21484375 282.66796875 316.548828125 264.000976562 c 0
 313.881835938 248.66796875 308.548828125 237.000976562 300.548828125 229.000976562 c 0
 295.881835938 225.000976562 289.548828125 223.000976562 281.548828125 223.000976562 c 0
 277.548828125 222.333984375 273.21484375 222.666992188 268.548828125 224 c 0
 253.21484375 228 243.21484375 235 238.548828125 245 c 0
 235.881835938 250.333007812 234.548828125 256.666015625 234.548828125 263.999023438 c 0
 234.548828125 271.999023438 235.548828125 280.666015625 237.548828125 289.999023438 c 0
 242.21484375 306.666015625 248.8828125 322.666015625 257.549804688 337.999023438 c 0
 266.216796875 353.33203125 275.549804688 366.33203125 285.549804688 376.999023438 c 0
 296.216796875 388.33203125 307.216796875 398.999023438 318.549804688 408.999023438 c 0
 329.8828125 418.999023438 340.8828125 428.666015625 351.549804688 437.999023438 c 0
 362.216796875 447.33203125 372.216796875 456.999023438 381.549804688 466.999023438 c 0
 390.216796875 476.999023438 397.549804688 487.999023438 403.549804688 499.999023438 c 0
 409.549804688 511.999023438 412.549804688 524.999023438 412.549804688 538.999023438 c 0
 412.549804688 576.999023438 401.216796875 604.666015625 378.549804688 621.999023438 c 0
 357.216796875 638.666015625 326.549804688 646.999023438 286.549804688 646.999023438 c 0
 275.8828125 646.999023438 265.21484375 644.666015625 254.548828125 639.999023438 c 0
 243.881835938 635.999023438 234.881835938 630.999023438 227.548828125 624.999023438 c 0
 220.21484375 618.999023438 212.548828125 611.33203125 204.548828125 601.999023438 c 0
 195.881835938 591.999023438 189.548828125 583.999023438 185.548828125 577.999023438 c 0
 181.548828125 571.999023438 176.548828125 564.666015625 170.548828125 555.999023438 c 0
 164.548828125 547.33203125 159.548828125 540.999023438 155.548828125 536.999023438 c 0
 151.548828125 533.666015625 147.548828125 531.666015625 143.548828125 530.999023438 c 2
 137.548828125 530.999023438 l 2
 135.548828125 530.999023438 132.881835938 531.33203125 129.548828125 531.999023438 c 0
 126.21484375 532.666015625 120.8828125 534.666015625 113.549804688 537.999023438 c 0
 105.549804688 542.666015625 100.549804688 548.999023438 98.548828125 556.999023438 c 0
 97.869140625 559.040039062 97.44921875 562.078125 97.44921875 566.469726562 c 0
 97.44921875 574.08984375 100.150390625 583.599609375 105.549804688 594.999023438 c 0
 120.216796875 622.33203125 141.216796875 647.665039062 168.549804688 670.998046875 c 0
 183.216796875 683.665039062 200.549804688 693.665039062 220.549804688 700.998046875 c 0
 240.549804688 708.331054688 261.216796875 711.998046875 282.549804688 711.998046875 c 0
 351.8828125 711.998046875 404.21484375 696.331054688 439.548828125 664.998046875 c 0
 474.881835938 633.665039062 492.55078125 586 492.55078125 522 c 0
273.548828125 -4.001953125 m 2
 264.549804688 -4.001953125 l 2
 263.63671875 -4.037109375 262.732421875 -4.0546875 261.8359375 -4.0546875 c 0
 245.71484375 -4.0546875 232.287109375 1.6298828125 221.55078125 12.998046875 c 0
 208.217773438 27.6650390625 201.55078125 44.6650390625 201.55078125 63.998046875 c 0
 201.55078125 81.3310546875 208.8828125 96.3310546875 223.55078125 108.998046875 c 0
 239.55078125 122.998046875 258.217773438 129.998046875 279.55078125 129.998046875 c 0
 280.498046875 130.033203125 281.4375 130.05078125 282.3671875 130.05078125 c 0
 299.12109375 130.05078125 313.181640625 124.366210938 324.549804688 112.998046875 c 0
 337.8828125 100.331054688 344.549804688 84.6640625 344.549804688 65.9970703125 c 0
 344.549804688 47.330078125 338.216796875 31.6630859375 325.549804688 18.99609375 c 0
 312.216796875 6.3291015625 294.881835938 -1.3349609375 273.548828125 -4.001953125 c 2
EndSplineSet
Validated: 524289
EndChar

StartChar: at
Encoding: 64 64 33
Width: 590
GlyphClass: 2
Flags: HMW
HStem: -120 66.0049 111.004 59 127.005 61.002 391.008 56.998 623.005 69.9971
VStem: 46.4985 67.0049 169.501 58.0029 351.504 61.001 489.505 53.9971
LayerCount: 2
Fore
SplineSet
493.5 9 m 0xdf80
 490.166992188 -0.3330078125 486.5 -8.3330078125 482.5 -15 c 0
 479.166992188 -22.3330078125 474.5 -30.666015625 468.5 -39.9990234375 c 0
 462.5 -49.9990234375 456.166992188 -58.33203125 449.5 -64.9990234375 c 0
 442.83203125 -71.666015625 434.166015625 -78.666015625 423.499023438 -85.9990234375 c 0
 413.499023438 -93.33203125 402.166015625 -99.33203125 389.499023438 -103.999023438 c 0
 376.83203125 -108.666015625 362.1640625 -112.333007812 345.498046875 -115 c 0
 328.831054688 -118.333007812 311.498046875 -120 293.498046875 -120 c 2
 287.498046875 -120 l 2
 254.1640625 -120 222.83203125 -111.666992188 193.499023438 -95 c 0
 163.499023438 -78.3330078125 137.83203125 -55 116.499023438 -25 c 0
 95.166015625 5 78.166015625 41.6669921875 65.498046875 85 c 0
 52.83203125 129 46.498046875 176.666992188 46.498046875 228 c 0
 47.166015625 286 51.83203125 340 60.5 390 c 0
 69.83203125 440.666992188 82.5 484.333984375 98.5 521.000976562 c 0
 114.5 557.66796875 133.5 589.000976562 155.5 615.000976562 c 0
 176.83203125 641.66796875 200.5 661.334960938 226.5 674.001953125 c 0
 252.5 686.668945312 279.83203125 693.001953125 308.5 693.001953125 c 0
 330.5 693.001953125 350.166992188 691.334960938 367.5 688.001953125 c 0
 385.5 684.668945312 402.5 679.001953125 418.5 671.001953125 c 0
 434.5 663.001953125 448.5 652.334960938 460.5 639.001953125 c 0
 473.166992188 625.668945312 484.833984375 609.001953125 495.5 589.001953125 c 0
 506.16796875 569.001953125 514.834960938 545.334960938 521.501953125 518.001953125 c 0
 536.16796875 458.668945312 543.501953125 383.3359375 543.501953125 292.002929688 c 0
 542.834960938 244.669921875 535.834960938 203.336914062 522.501953125 168.00390625 c 0
 515.834960938 150.00390625 506.501953125 136.00390625 494.501953125 126.00390625 c 0
 483.16796875 116.00390625 469.501953125 111.00390625 453.501953125 111.00390625 c 0xdf80
 430.16796875 111.670898438 412.501953125 119.337890625 400.501953125 134.004882812 c 0
 390.501953125 146.004882812 384.16796875 163.671875 381.501953125 187.004882812 c 2
 377.501953125 232.004882812 l 1
 362.501953125 189.00390625 l 2
 355.834960938 170.336914062 347.16796875 156.004882812 336.5 146.004882812 c 0
 323.833984375 133.337890625 306.833984375 127.004882812 285.5 127.004882812 c 0
 248.833984375 127.671875 220.5 139.338867188 200.5 162.005859375 c 0
 179.833984375 184.672851562 169.5 220.005859375 169.5 268.005859375 c 0
 169.5 292.005859375 172.16796875 314.338867188 177.5 335.005859375 c 0
 182.833984375 355.672851562 190.166992188 373.005859375 199.5 387.005859375 c 0
 208.83203125 400.338867188 219.5 412.005859375 231.5 422.005859375 c 0
 244.166992188 432.005859375 256.833984375 439.005859375 269.5 443.005859375 c 0
 282.16796875 446.338867188 294.834960938 448.005859375 307.501953125 448.005859375 c 0
 325.501953125 448.005859375 342.834960938 444.672851562 359.501953125 438.005859375 c 0
 373.501953125 432.672851562 384.501953125 425.672851562 392.501953125 417.005859375 c 0
 397.16796875 411.672851562 399.501953125 407.33984375 399.501953125 404.006835938 c 0
 399.501953125 402.673828125 399.16796875 401.340820312 398.501953125 400.0078125 c 0
 394.501953125 392.0078125 389.501953125 387.0078125 383.501953125 385.0078125 c 0
 376.834960938 383.0078125 371.834960938 382.0078125 368.501953125 382.0078125 c 0
 363.16796875 382.674804688 355.8359375 384.0078125 346.502929688 386.0078125 c 2
 331.502929688 389.0078125 l 2
 325.502929688 390.340820312 319.8359375 391.0078125 314.502929688 391.0078125 c 2
 302.502929688 391.0078125 l 2
 293.169921875 390.340820312 283.8359375 387.0078125 274.50390625 381.0078125 c 0
 265.170898438 375.0078125 257.170898438 367.674804688 250.50390625 359.0078125 c 0
 243.170898438 351.0078125 237.50390625 340.005859375 233.50390625 326.005859375 c 0
 229.50390625 312.005859375 227.50390625 296.674804688 227.50390625 280.0078125 c 0
 227.50390625 271.340820312 228.170898438 262.673828125 229.50390625 254.006835938 c 0
 230.170898438 246.006835938 232.170898438 236.670898438 235.50390625 226.00390625 c 0
 238.8359375 215.336914062 244.50390625 206.33984375 252.50390625 199.006835938 c 0
 260.50390625 191.673828125 270.50390625 188.006835938 282.50390625 188.006835938 c 0xbf80
 307.170898438 188.006835938 324.837890625 198.006835938 335.50390625 218.006835938 c 0
 344.837890625 235.33984375 350.170898438 263.672851562 351.50390625 303.005859375 c 0
 352.170898438 309.672851562 358.837890625 315.672851562 371.50390625 321.005859375 c 0
 381.50390625 324.338867188 390.171875 326.005859375 397.50390625 326.005859375 c 0
 402.171875 326.005859375 406.502929688 325.338867188 410.502929688 324.005859375 c 0
 414.502929688 322.005859375 416.50390625 319.672851562 416.50390625 317.005859375 c 2
 416.50390625 315.005859375 l 2
 413.837890625 290.338867188 412.50390625 269.671875 412.50390625 253.004882812 c 0
 412.50390625 244.337890625 412.837890625 236.670898438 413.50390625 230.00390625 c 0
 416.171875 208.670898438 420.171875 193.670898438 425.50390625 185.00390625 c 0
 432.171875 175.00390625 441.501953125 170.00390625 453.501953125 170.00390625 c 0
 463.501953125 170.00390625 471.171875 176.336914062 476.50390625 189.00390625 c 0
 480.50390625 199.00390625 483.50390625 211.336914062 485.50390625 226.00390625 c 0
 488.171875 250.670898438 489.50390625 273.670898438 489.50390625 295.00390625 c 0
 489.50390625 329.670898438 488.171875 361.333007812 485.50390625 390 c 0
 482.171875 419.333007812 478.170898438 444.337890625 473.50390625 465.004882812 c 0
 468.8359375 486.337890625 462.8359375 505.337890625 455.50390625 522.004882812 c 0
 448.170898438 539.337890625 440.838867188 553.337890625 433.505859375 564.004882812 c 0
 426.171875 574.671875 417.505859375 584.004882812 407.505859375 592.004882812 c 0
 397.505859375 599.337890625 388.834960938 605.004882812 381.501953125 609.004882812 c 0
 374.16796875 613.671875 365.505859375 617.004882812 355.505859375 619.004882812 c 0
 345.505859375 621.004882812 338.171875 622.004882812 333.505859375 622.004882812 c 0
 328.838867188 622.671875 323.171875 623.004882812 316.50390625 623.004882812 c 0
 287.837890625 622.337890625 261.170898438 613.337890625 236.50390625 596.004882812 c 0
 211.8359375 578.671875 190.50390625 554.671875 172.50390625 524.004882812 c 0
 154.50390625 492.671875 140.170898438 454.671875 129.50390625 410.004882812 c 0
 118.8359375 365.337890625 113.50390625 316.670898438 113.50390625 264.00390625 c 0
 114.170898438 218.00390625 117.837890625 176.670898438 124.50390625 140.00390625 c 0
 131.837890625 102.670898438 141.170898438 72.337890625 152.50390625 49.0048828125 c 0
 163.8359375 25.671875 177.499023438 6.0048828125 193.499023438 -9.9951171875 c 0
 208.83203125 -25.9951171875 224.8359375 -37.328125 241.50390625 -43.9951171875 c 0
 258.170898438 -50.662109375 275.498046875 -53.9951171875 293.498046875 -53.9951171875 c 0
 310.831054688 -53.9951171875 327.169921875 -52.328125 342.502929688 -48.9951171875 c 0
 357.8359375 -45.662109375 370.502929688 -41.3291015625 380.502929688 -35.99609375 c 0
 391.169921875 -30.6630859375 401.169921875 -23.6669921875 410.502929688 -15 c 0
 419.169921875 -7 426.169921875 0.6708984375 431.502929688 8.00390625 c 0
 436.169921875 15.3369140625 441.8359375 24.3369140625 448.50390625 35.00390625 c 0
 451.170898438 39.6708984375 453.50390625 43.337890625 455.50390625 46.0048828125 c 0
 457.50390625 48.0048828125 459.50390625 50.671875 461.50390625 54.0048828125 c 0
 464.170898438 57.337890625 466.170898438 59.6708984375 467.50390625 61.00390625 c 2
 473.50390625 64.00390625 l 2
 476.170898438 66.00390625 479.837890625 66.00390625 484.50390625 64.00390625 c 0
 491.837890625 61.3369140625 496.837890625 57.00390625 499.50390625 51.00390625 c 0
 500.837890625 48.3369140625 501.50390625 45.669921875 501.50390625 43.0029296875 c 0
 501.50390625 34.3359375 498.83203125 23 493.5 9 c 0xdf80
EndSplineSet
Validated: 524289
EndChar

StartChar: A
Encoding: 65 65 34
Width: 590
GlyphClass: 2
Flags: HMW
HStem: 271 50.998
VStem: 47.4985 72.001
LayerCount: 2
Fore
SplineSet
330.5 606.997070312 m 2
 303.16796875 561.6640625 264.16796875 466.331054688 213.5 320.998046875 c 2
 208.5 305.998046875 l 1
 222.5 307.998046875 l 2
 285.16796875 315.998046875 340.834960938 320.665039062 389.501953125 321.998046875 c 2
 400.501953125 321.998046875 l 1
 342.501953125 626.998046875 l 1
 330.5 606.997070312 l 2
462.5 53.9990234375 m 0
 454.5 74.666015625 437.5 147 411.5 271 c 0
 409.5 277.666992188 407.166992188 277.666992188 404.5 271 c 1
 325.166992188 267 252.166992188 259.33203125 185.5 247.999023438 c 1
 163.5 189.33203125 141.5 124.333007812 119.5 53 c 0
 114.166992188 35 106.5 23.330078125 96.5 17.9970703125 c 0
 91.166015625 15.330078125 86.166015625 13.9970703125 81.5 13.9970703125 c 0
 76.83203125 13.9970703125 72.166015625 14.9970703125 67.498046875 16.9970703125 c 0
 54.166015625 22.330078125 47.498046875 34.3330078125 47.498046875 53 c 0
 47.498046875 61 48.83203125 70.3330078125 51.498046875 81 c 0
 56.166015625 104.333007812 76.166015625 158.666015625 111.499023438 243.999023438 c 1
 108.83203125 251.999023438 106.499023438 253.33203125 104.499023438 247.999023438 c 1
 95.83203125 253.999023438 91.498046875 260.999023438 91.498046875 268.999023438 c 2
 91.498046875 269.999023438 l 2
 90.83203125 275.999023438 93.83203125 281.999023438 100.499023438 287.999023438 c 0
 109.166015625 295.33203125 119.83203125 300.999023438 132.5 304.999023438 c 1
 133.83203125 311.666015625 135.166015625 311.998046875 136.499023438 305.998046875 c 1
 215.166015625 499.331054688 274.83203125 627.665039062 315.5 690.998046875 c 0
 324.166992188 703.665039062 331.333984375 712.498046875 337 717.498046875 c 0
 342.66796875 722.498046875 348.834960938 724.998046875 355.501953125 724.998046875 c 2
 356.501953125 724.998046875 l 1
 362.501953125 724.998046875 l 2
 369.834960938 724.998046875 376.834960938 722.998046875 383.501953125 718.998046875 c 0
 390.16796875 714.998046875 394.501953125 706.998046875 396.501953125 694.998046875 c 0
 409.834960938 612.331054688 432.834960938 494.998046875 465.501953125 342.998046875 c 0
 498.16796875 190.331054688 521.16796875 102.331054688 534.501953125 78.998046875 c 0
 539.834960938 69.6650390625 542.501953125 61.33203125 542.501953125 53.9990234375 c 0
 541.834960938 53.33203125 541.501953125 52.33203125 541.501953125 50.9990234375 c 0
 540.834960938 42.33203125 538.334960938 35.1650390625 534.001953125 29.498046875 c 0
 529.66796875 23.8310546875 524.501953125 19.6640625 518.501953125 16.9970703125 c 0
 513.834960938 14.9970703125 509.16796875 13.9970703125 504.5 13.9970703125 c 0
 499.16796875 13.9970703125 493.834960938 15.330078125 488.501953125 17.9970703125 c 0
 477.834960938 23.330078125 469.166992188 35.33203125 462.5 53.9990234375 c 0
EndSplineSet
Validated: 524289
EndChar

StartChar: B
Encoding: 66 66 35
Width: 590
GlyphClass: 2
Flags: HMW
HStem: -20.3672 79.3672 307 51.999 640.002 49.998
VStem: 71.5 77.7998 75.5 82.999 406.5 72.001 440.502 79.998
LayerCount: 2
Fore
SplineSet
392.497070312 260.001953125 m 0xea
 378.497070312 269.334960938 359.330078125 278.16796875 334.997070312 286.500976562 c 0
 310.6640625 294.833984375 282.831054688 301.666992188 251.498046875 307 c 1
 250.498046875 307 l 2
 205.165039062 307 171.83203125 306.666992188 150.499023438 306 c 1
 153.83203125 192 156.499023438 109 158.499023438 57 c 1
 171.83203125 58.3330078125 186.499023438 59 202.499023438 59 c 0
 218.499023438 59.6669921875 230.499023438 60 238.499023438 60 c 0
 267.166015625 61.3330078125 294.333007812 66.666015625 320 75.9990234375 c 0
 345.666992188 85.33203125 366.833984375 96.9990234375 383.500976562 110.999023438 c 0
 400.16796875 124.33203125 413.834960938 138.83203125 424.501953125 154.499023438 c 0
 435.168945312 170.166015625 440.501953125 184.999023438 440.501953125 198.999023438 c 0
 440.501953125 219.666015625 424.497070312 240.001953125 392.497070312 260.001953125 c 0xea
161.5 626.999023438 m 2
 154.5 624.999023438 l 1
 154.5 607.666015625 153.833007812 584.999023438 152.5 556.999023438 c 0
 150.366210938 503.668945312 149.299804688 451.40625 149.299804688 400.209960938 c 0
 149.299804688 387.40625 149.366210938 374.668945312 149.5 361.999023438 c 1
 185.5 359.999023438 216.5 358.999023438 242.5 358.999023438 c 0
 261.833007812 358.999023438 279.333007812 360.83203125 295 364.499023438 c 0
 310.666992188 368.166015625 324.166992188 372.833007812 335.5 378.5 c 0
 346.833007812 384.166992188 356.833007812 391.166992188 365.5 399.5 c 0
 374.166992188 407.833007812 380.833007812 416.333007812 385.5 425 c 0
 390.166992188 433.666992188 394.16796875 443 397.500976562 453 c 0
 400.833984375 463 403.166992188 472.333007812 404.5 481 c 0
 405.833007812 489.666992188 406.5 498.333984375 406.5 507.000976562 c 0xf4
 405.833007812 525.66796875 402.166015625 543.000976562 395.499023438 559.000976562 c 0
 388.83203125 575.000976562 380.165039062 587.833984375 369.498046875 597.500976562 c 0
 358.831054688 607.16796875 347.1640625 615.334960938 334.497070312 622.001953125 c 0
 311.830078125 634.001953125 287.830078125 640.001953125 262.497070312 640.001953125 c 0
 228.497070312 640.001953125 194.833007812 635.666015625 161.5 626.999023438 c 2
502.001953125 130 m 0
 489.668945312 106.666992188 471.666015625 84.833984375 447.999023438 64.5009765625 c 0
 424.33203125 44.16796875 395.166992188 27.0009765625 360.5 13.0009765625 c 0
 326.5 -0.9990234375 288.833007812 -9.9990234375 247.5 -13.9990234375 c 1
 227.81640625 -20.3671875 l 2
 223.044921875 -20.3671875 218.2734375 -19.244140625 213.501953125 -16.9990234375 c 2
 194.974609375 -23.3671875 l 2
 190.483398438 -23.3671875 185.9921875 -22.244140625 181.500976562 -19.9990234375 c 0
 161.500976562 -21.9990234375 145.833984375 -22.9990234375 134.500976562 -22.9990234375 c 0
 127.16796875 -22.9990234375 120.16796875 -22.33203125 113.500976562 -20.9990234375 c 2
 109.500976562 -20.9990234375 l 2
 98.833984375 -21.666015625 90.1669921875 -18.3330078125 83.5 -11 c 0
 78.1669921875 -5 75.5 3.3330078125 75.5 14 c 2
 75.5 19 l 2xea
 76.8330078125 39.6669921875 77.5 74.333984375 77.5 123.000976562 c 0
 77.5 213.66796875 75.5 314.000976562 71.5 424.000976562 c 0
 70.1669921875 468.66796875 69.5 498.500976562 69.5 513.500976562 c 0
 69.5 528.500976562 70.1669921875 549.000976562 71.5 575.000976562 c 0
 72.8330078125 601.000976562 73.5 619.000976562 73.5 629.000976562 c 0
 74.1669921875 644.333984375 78.333984375 655.666992188 86.0009765625 663 c 0
 93.66796875 670.333007812 102.833984375 674 113.500976562 674 c 2
 117.501953125 674 l 1
 118.501953125 674 l 2
 129.834960938 677.333007812 141.166992188 680 152.5 682 c 0
 174.5 686 194.500976562 688.333007812 212.500976562 689 c 0
 222.500976562 689.666992188 230.16796875 690 235.500976562 690 c 2
 254.500976562 690 l 1
 264.500976562 690 l 2
 304.500976562 690 339.833984375 682 370.500976562 666 c 0
 402.500976562 650 428.500976562 626.833007812 448.500976562 596.5 c 0
 468.500976562 566.166992188 478.500976562 530 478.500976562 488 c 0xf4
 478.500976562 452.666992188 470.16796875 422.333984375 453.500976562 397.000976562 c 0
 436.833984375 371.66796875 414.166992188 353.000976562 385.5 341.000976562 c 1
 377.5 331.000976562 369.833007812 327.66796875 362.5 331.000976562 c 1
 370.5 321.000976562 378.166992188 318.000976562 385.5 322.000976562 c 1
 406.166992188 314.66796875 427 304.16796875 448 290.500976562 c 0
 469 276.833984375 486.333007812 261.666992188 500 245 c 0
 513.666992188 228.333007812 520.5 213.666015625 520.5 200.999023438 c 2
 520.5 198.999023438 l 2xe2
 520.5 176.33203125 514.334960938 153.333007812 502.001953125 130 c 0
EndSplineSet
Validated: 524289
EndChar

StartChar: C
Encoding: 67 67 36
Width: 590
GlyphClass: 2
Flags: HMW
HStem: -30.999 72.001 650.002 62.999
VStem: 56.999 80.999 450 83.001
LayerCount: 2
Fore
SplineSet
520 553.5 m 0
 511.333007812 541.166992188 503 534.333984375 495 533.000976562 c 2
 489 533.000976562 l 2
 481 533.000976562 472.666992188 535.66796875 464 541.000976562 c 0
 454.666992188 547.66796875 450 556.334960938 450 567.001953125 c 0
 450 572.334960938 450.666992188 588.334960938 452 615.001953125 c 1
 436.666992188 625.668945312 427.666992188 632.001953125 425 634.001953125 c 0
 422.333007812 636.001953125 418.333007812 638.334960938 413 641.001953125 c 0
 403 647.001953125 392.666992188 650.001953125 382 650.001953125 c 0
 361.333007812 650.001953125 339.5 642.668945312 316.5 628.001953125 c 0
 293.5 613.334960938 271.666992188 593.001953125 251 567.001953125 c 0
 230.333007812 541.001953125 211.666015625 511.334960938 194.999023438 478.001953125 c 0
 178.33203125 444.001953125 164.665039062 406.001953125 153.998046875 364.001953125 c 0
 143.331054688 322.001953125 137.998046875 279.668945312 137.998046875 237.001953125 c 0
 137.998046875 205.001953125 143.998046875 174.168945312 155.998046875 144.501953125 c 0
 167.998046875 114.834960938 184.665039062 90.001953125 205.998046875 70.001953125 c 0
 226.665039062 50.6689453125 249.665039062 41.001953125 274.998046875 41.001953125 c 0
 295.665039062 41.001953125 315.665039062 43.3349609375 334.998046875 48.001953125 c 0
 354.331054688 52.6689453125 371.831054688 58.8359375 387.498046875 66.5029296875 c 0
 403.165039062 74.169921875 416.998046875 81.669921875 428.998046875 89.0029296875 c 0
 440.331054688 96.3359375 451.331054688 104.3359375 461.998046875 113.002929688 c 0
 469.998046875 118.3359375 476.831054688 122.3359375 482.498046875 125.002929688 c 0
 488.165039062 127.669921875 493.998046875 129.002929688 499.998046875 129.002929688 c 0
 505.331054688 129.002929688 510.331054688 127.3359375 514.998046875 124.002929688 c 0
 523.665039062 117.3359375 527.998046875 109.668945312 527.998046875 101.001953125 c 0
 527.998046875 90.3349609375 521.665039062 77.66796875 508.998046875 63.0009765625 c 0
 454.998046875 0.333984375 375.998046875 -30.9990234375 271.998046875 -30.9990234375 c 2
 263.998046875 -30.9990234375 l 2
 239.998046875 -30.9990234375 217.331054688 -26.666015625 195.998046875 -17.9990234375 c 0
 173.998046875 -8.666015625 154.665039062 3.6669921875 137.998046875 19 c 0
 121.331054688 34.3330078125 106.831054688 52 94.498046875 72 c 0
 82.1650390625 92 72.83203125 113.333007812 66.4990234375 136 c 0
 60.166015625 158.666992188 56.9990234375 181.333984375 56.9990234375 204.000976562 c 0
 56.9990234375 252.66796875 61.9990234375 300.16796875 71.9990234375 346.500976562 c 0
 81.9990234375 392.833984375 95.33203125 434.333984375 111.999023438 471.000976562 c 0
 128.666015625 507.66796875 148.333007812 541.334960938 171 572.001953125 c 0
 191.666992188 603.334960938 213.5 629.16796875 236.5 649.500976562 c 0
 259.5 669.833984375 282.833007812 685.500976562 306.5 696.500976562 c 0
 330.166992188 707.500976562 353 713.000976562 375 713.000976562 c 0
 397 713.000976562 417.666992188 710.333984375 437 705.000976562 c 1
 439.666992188 710.333984375 442.666992188 709.333984375 446 702.000976562 c 1
 447.333007812 712.000976562 448.333007812 715.333984375 449 712.000976562 c 1
 451 720.000976562 455 726.66796875 461 732.000976562 c 0
 467 736.66796875 473.666992188 739.334960938 481 740.001953125 c 0
 484.333007812 740.668945312 486.333007812 741.001953125 487 741.001953125 c 0
 493.666992188 741.001953125 500.666992188 738.668945312 508 734.001953125 c 0
 516.666992188 728.668945312 522.333984375 720.3359375 525.000976562 709.002929688 c 0
 530.333984375 683.669921875 533.000976562 656.668945312 533.000976562 628.001953125 c 2
 533.000976562 591.002929688 l 2
 533.000976562 578.3359375 528.666992188 565.833007812 520 553.5 c 0
EndSplineSet
Validated: 524289
EndChar

StartChar: D
Encoding: 68 68 37
Width: 590
GlyphClass: 2
Flags: HMW
HStem: -31 75.999 675 20G<91.8344 108.167>
VStem: 54.5014 77.7113 458.503 76.9953
LayerCount: 2
Fore
SplineSet
309.498046875 551 m 0
 275.498046875 574.333007812 226.498046875 598.666015625 162.498046875 623.999023438 c 1
 161.498046875 624.999023438 l 1
 160.498046875 624.999023438 l 1
 159.498046875 625.999023438 l 1
 158.498046875 625.999023438 l 1
 157.498046875 625.999023438 l 1
 157.498046875 626.999023438 l 1
 156.498046875 626.999023438 l 1
 155.498046875 626.999023438 l 1
 154.498046875 626.999023438 l 1
 154.498046875 627.999023438 l 1
 153.498046875 627.999023438 l 1
 152.498046875 627.999023438 l 1
 151.498046875 627.999023438 l 1
 151.498046875 628.999023438 l 1
 150.498046875 628.999023438 l 1
 149.498046875 628.999023438 l 1
 148.49609375 629.999023438 l 1
 147.498046875 629.999023438 l 1
 134.498046875 643.999023438 l 1
 133.498046875 620.999023438 l 2
 132.640625 583.283203125 132.212890625 546.118164062 132.212890625 509.50390625 c 0
 132.212890625 460.689453125 132.974609375 412.854492188 134.498046875 365.999023438 c 0
 135.831054688 324.666015625 137.1640625 275.166015625 138.498046875 217.499023438 c 0
 139.830078125 159.83203125 141.163085938 114.33203125 142.49609375 80.9990234375 c 1
 148.49609375 78.9990234375 l 2
 175.830078125 66.33203125 203.49609375 57.4990234375 231.49609375 52.4990234375 c 0
 259.49609375 47.4990234375 291.49609375 44.9990234375 327.49609375 44.9990234375 c 0
 346.830078125 44.9990234375 364.830078125 51.83203125 381.49609375 65.4990234375 c 0
 398.163085938 79.166015625 411.830078125 96.3330078125 422.498046875 117 c 0
 433.830078125 137.666992188 442.663085938 160.166992188 448.99609375 184.5 c 0
 458.458984375 220.85546875 458.502929688 247.245117188 458.502929688 258.552734375 c 0
 458.502929688 385.967773438 408.8359375 483.450195312 309.498046875 551 c 0
526.501953125 152.5 m 0
 520.501953125 128.833007812 511.169921875 106 498.501953125 84 c 0
 485.834960938 62 471.16796875 42.5 454.501953125 25.5 c 0
 437.833984375 8.5 418.501953125 -5.3330078125 396.501953125 -16 c 0
 375.16796875 -26 352.501953125 -31 328.501953125 -31 c 2
 319.501953125 -31 l 2
 292.16796875 -31 264.66796875 -29.6669921875 237.001953125 -27 c 0
 209.333984375 -24.3330078125 186.833984375 -21 169.501953125 -17 c 0
 151.501953125 -12.3330078125 135.333984375 -8.3330078125 121.001953125 -5 c 0
 106.66796875 -1.6669921875 97.8359375 0 94.501953125 0 c 0
 83.8359375 0 75.16796875 3.3330078125 68.501953125 10 c 0
 62.501953125 16 59.501953125 24.3330078125 59.501953125 35 c 2
 59.501953125 41 l 2
 61.501953125 65 62.501953125 102.333007812 62.501953125 153 c 0
 61.833984375 243.666992188 59.501953125 351.666992188 55.501953125 477 c 0
 54.833984375 514.333007812 54.501953125 538.833007812 54.501953125 550.5 c 0
 54.501953125 562.166992188 55.001953125 580.333984375 56.001953125 605.000976562 c 0
 57.001953125 629.66796875 57.501953125 644.66796875 57.501953125 650.000976562 c 0
 58.16796875 665.333984375 62.16796875 676.666992188 69.501953125 684 c 0
 76.833984375 691.333007812 86.16796875 695 97.5 695 c 0
 118.833984375 695 146.166015625 691.666992188 179.499023438 685 c 0
 198.83203125 681 218.499023438 675.5 238.499023438 668.5 c 0
 258.499023438 661.5 280.166015625 651.833007812 303.499023438 639.5 c 0
 326.83203125 627.166992188 348.83203125 612.666992188 369.499023438 596 c 0
 390.166015625 579.333007812 410.499023438 559 430.499023438 535 c 0
 451.83203125 511 470.166015625 484.5 485.498046875 455.5 c 0
 500.831054688 426.5 512.998046875 391.833007812 521.998046875 351.5 c 0
 530.998046875 311.166992188 535.498046875 267.666992188 535.498046875 221 c 0
 535.498046875 199 532.501953125 176.166992188 526.501953125 152.5 c 0
EndSplineSet
Validated: 524289
EndChar

StartChar: E
Encoding: 69 69 38
Width: 590
GlyphClass: 2
Flags: HMW
HStem: -20 68.0039<176.124 236.796> -6 71.0039<462.791 494.796 470.458 494.796> 312.004 65.998 332.004 61.999 615.002 63.999
VStem: 68.4566 76.0039
LayerCount: 2
Fore
SplineSet
483.45703125 -6 m 2x4c
 470.45703125 -6 l 2x4c
 455.124023438 -6 430.124023438 -7 395.45703125 -9 c 0
 294.790039062 -16.3330078125 225.123046875 -20 186.456054688 -20 c 0
 165.7890625 -20 148.456054688 -19.3330078125 134.456054688 -18 c 0
 121.123046875 -17.3330078125 107.623046875 -10.666015625 93.9560546875 2.0009765625 c 0
 80.2890625 14.66796875 72.4560546875 30.00390625 70.4560546875 48.00390625 c 0
 68.4560546875 64.00390625 67.4560546875 91.333984375 67.4560546875 130.000976562 c 0
 67.4560546875 168.66796875 67.7890625 210.66796875 68.4560546875 256.000976562 c 2
 68.4560546875 343.500976562 l 2
 68.4560546875 370.500976562 67.7890625 408.000976562 66.4560546875 456.000976562 c 0
 65.7890625 496.000976562 65.4560546875 522.333984375 65.4560546875 535.000976562 c 0
 65.4560546875 547.66796875 65.9560546875 566.500976562 66.9560546875 591.500976562 c 0
 67.9560546875 616.500976562 68.4560546875 632.333984375 68.4560546875 639.000976562 c 0
 69.123046875 654.333984375 73.2900390625 665.833984375 80.95703125 673.500976562 c 0
 88.6240234375 681.16796875 97.791015625 685.000976562 108.458007812 685.000976562 c 1
 109.125 678.333984375 110.125 678.333984375 111.458007812 685.000976562 c 1
 124.125 684.333984375 133.791992188 679.666992188 140.458984375 671 c 0
 141.791992188 663.666992188 143.126953125 662.333984375 144.459960938 667.000976562 c 1
 146.459960938 661.000976562 148.458007812 661.333984375 150.458007812 668.000976562 c 1
 201.125 675.333984375 264.791992188 679.000976562 341.458984375 679.000976562 c 0
 362.791992188 679.000976562 381.791992188 678.66796875 398.458984375 678.000976562 c 0
 437.125976562 676.000976562 467.79296875 673.666992188 490.459960938 671 c 0
 504.459960938 669.666992188 513.626953125 666.834960938 517.959960938 662.501953125 c 0
 522.29296875 658.168945312 524.459960938 652.001953125 524.459960938 644.001953125 c 0
 524.459960938 626.668945312 519.79296875 616.001953125 510.459960938 612.001953125 c 0
 506.459960938 610.001953125 502.959960938 609.168945312 499.959960938 609.501953125 c 0
 496.959960938 609.834960938 494.459960938 610.001953125 492.459960938 610.001953125 c 0
 445.79296875 613.334960938 400.459960938 615.001953125 356.459960938 615.001953125 c 0
 341.126953125 615.001953125 325.793945312 614.668945312 310.4609375 614.001953125 c 0
 252.4609375 612.668945312 201.4609375 608.668945312 157.4609375 602.001953125 c 1
 154.793945312 595.334960938 152.126953125 595.001953125 149.459960938 601.001953125 c 1
 146.126953125 525.668945312 144.459960938 454.668945312 144.459960938 388.001953125 c 2
 144.459960938 378.001953125 l 1xac
 197.79296875 378.668945312 263.125976562 381.3359375 340.458984375 386.002929688 c 0
 420.458984375 391.3359375 465.458984375 394.002929688 475.458984375 394.002929688 c 0
 488.125976562 394.002929688 496.79296875 391.502929688 501.459960938 386.502929688 c 0
 506.126953125 381.502929688 508.459960938 374.669921875 508.459960938 366.002929688 c 0
 508.459960938 354.669921875 506.459960938 346.336914062 502.459960938 341.00390625 c 0
 497.126953125 335.00390625 488.293945312 332.00390625 475.9609375 332.00390625 c 0x1c
 463.627929688 332.00390625 414.4609375 328.670898438 328.4609375 322.00390625 c 0
 244.4609375 315.336914062 186.4609375 312.00390625 154.4609375 312.00390625 c 1
 151.793945312 304.670898438 148.793945312 304.337890625 145.4609375 311.004882812 c 1
 145.4609375 284.337890625 145.793945312 247.670898438 146.4609375 201.00390625 c 0
 146.4609375 172.336914062 146.793945312 149.00390625 147.4609375 131.00390625 c 0
 148.793945312 93.00390625 151.4609375 68.6708984375 155.4609375 58.00390625 c 0
 156.127929688 50.00390625 156.793945312 48.6708984375 157.4609375 54.00390625 c 1
 159.4609375 47.3369140625 161.12890625 47.00390625 162.461914062 53.00390625 c 1
 173.12890625 49.6708984375 194.12890625 48.00390625 225.461914062 48.00390625 c 0xac
 248.12890625 48.00390625 276.4609375 48.6708984375 310.4609375 50.00390625 c 0
 391.793945312 54.00390625 445.124023438 58.3369140625 470.45703125 63.00390625 c 0
 479.124023438 64.3369140625 486.294921875 65.00390625 491.961914062 65.00390625 c 0x4c
 497.62890625 65.00390625 502.461914062 64.00390625 506.461914062 62.00390625 c 0
 510.461914062 60.00390625 513.461914062 58.00390625 515.461914062 56.00390625 c 0
 517.461914062 54.00390625 519.12890625 51.3369140625 520.461914062 48.00390625 c 0x8c
 521.794921875 44.6708984375 522.794921875 41.837890625 523.461914062 39.5048828125 c 0
 524.12890625 37.171875 524.459960938 34.3388671875 524.459960938 31.005859375 c 0
 525.126953125 20.3388671875 521.795898438 11.005859375 514.462890625 3.005859375 c 0
 509.129882812 -3.6611328125 500.796875 -6.994140625 489.463867188 -6.994140625 c 0
 487.463867188 -6.3271484375 485.45703125 -6 483.45703125 -6 c 2x4c
EndSplineSet
Validated: 524289
EndChar

StartChar: F
Encoding: 70 70 39
Width: 590
GlyphClass: 2
Flags: HMW
HStem: 310.003 62 323.003 64.999 619.002 67.998 675.001 20G
VStem: 66.9974 77.8028 70.9974 84.001
LayerCount: 2
Fore
SplineSet
492.001953125 682 m 0x28
 505.334960938 680.666992188 514.001953125 677.833007812 518.001953125 673.5 c 0
 522.001953125 669.166992188 524.334960938 662.666992188 525.001953125 654 c 0
 525.001953125 644.666992188 522.001953125 636.333984375 516.001953125 629.000976562 c 0
 511.334960938 622.333984375 502.66796875 619.000976562 490.001953125 619.000976562 c 2
 489.001953125 619.000976562 l 2
 452.333984375 621.000976562 415.333984375 622.000976562 378.001953125 622.000976562 c 0
 309.333984375 622.000976562 233.333984375 618.333984375 150.001953125 611.000976562 c 1
 149.333984375 594.333984375 148.666992188 573.333984375 148 548.000976562 c 0
 145.866210938 502.670898438 144.799804688 458.194335938 144.799804688 414.571289062 c 0
 144.799804688 403.661132812 144.866210938 392.8046875 145 382.001953125 c 0
 149 376.001953125 152.666992188 376.334960938 156 383.001953125 c 1
 183.333984375 386.334960938 212.666015625 388.001953125 243.999023438 388.001953125 c 2
 265.999023438 388.001953125 l 2x68
 305.999023438 386.668945312 341.999023438 384.668945312 373.999023438 382.001953125 c 0
 406.666015625 378.668945312 433.333984375 375.3359375 454 372.002929688 c 0
 468.666992188 369.3359375 478 366.002929688 482 362.002929688 c 0
 486 358.002929688 488.333984375 352.002929688 489 344.002929688 c 0
 489 334.002929688 486.666992188 325.3359375 482 318.002929688 c 0
 479.333984375 312.669921875 472.666015625 310.002929688 461.999023438 310.002929688 c 2
 456.999023438 310.002929688 l 2x88
 436.33203125 313.3359375 407.999023438 316.3359375 371.999023438 319.002929688 c 0
 337.999023438 321.669921875 299.666015625 323.002929688 256.999023438 323.002929688 c 0
 216.33203125 322.3359375 181.999023438 320.002929688 153.999023438 316.002929688 c 1
 151.33203125 309.3359375 148.666015625 309.002929688 145.998046875 315.002929688 c 1
 148.666015625 208.3359375 151.666015625 108.3359375 154.998046875 15.0029296875 c 0
 153.666015625 3.669921875 148.498046875 -5.330078125 139.498046875 -11.9970703125 c 0
 130.498046875 -18.6640625 120.331054688 -21.9970703125 108.998046875 -21.9970703125 c 1
 108.331054688 -27.9970703125 107.331054688 -27.6640625 105.998046875 -20.9970703125 c 1
 95.33203125 -21.6640625 86.6640625 -18.3310546875 79.998046875 -10.998046875 c 0
 73.998046875 -4.998046875 70.998046875 3.3349609375 70.998046875 14.001953125 c 2
 70.998046875 19.001953125 l 2x44
 72.998046875 41.001953125 73.998046875 77.6689453125 73.998046875 129.001953125 c 0
 73.330078125 223.668945312 70.998046875 329.001953125 66.998046875 445.001953125 c 0
 65.6640625 489.668945312 64.998046875 519.668945312 64.998046875 535.001953125 c 0
 64.998046875 550.334960938 65.6640625 570.834960938 66.998046875 596.501953125 c 0
 68.330078125 622.168945312 68.998046875 640.001953125 68.998046875 650.001953125 c 0
 69.6640625 665.334960938 73.6640625 676.66796875 80.998046875 684.000976562 c 0
 88.330078125 691.333984375 97.6640625 695.000976562 108.99609375 695.000976562 c 1
 110.99609375 688.333984375 112.663085938 688.333984375 113.99609375 695.000976562 c 1x58
 126.663085938 695.000976562 136.330078125 690.66796875 142.998046875 682.000976562 c 1
 143.6640625 673.333984375 144.6640625 671.666992188 145.998046875 677 c 1
 225.998046875 683.666992188 300.998046875 687 370.998046875 687 c 0
 417.6640625 687 458.001953125 685.333007812 492.001953125 682 c 0x28
EndSplineSet
Validated: 524289
EndChar

StartChar: G
Encoding: 71 71 40
Width: 590
GlyphClass: 2
Flags: HMW
HStem: -31.002 72.002 248.5 74.501 285.998 64.5022 661 62.998
VStem: 55.4015 79.998
LayerCount: 2
Fore
SplineSet
459.3984375 705 m 0xb8
 492.731445312 692.333007812 513.731445312 681.333007812 522.3984375 672 c 0
 530.3984375 664 534.3984375 654.666992188 534.3984375 644 c 0
 535.065429688 638 534.065429688 631.333007812 531.3984375 624 c 0
 530.065429688 618 525.732421875 613.666992188 518.399414062 611 c 0
 513.732421875 609.666992188 509.899414062 609 506.899414062 609 c 0
 503.899414062 609 499.732421875 609.666992188 494.399414062 611 c 0
 490.399414062 612.333007812 481.232421875 617.333007812 466.899414062 626 c 0
 452.56640625 634.666992188 437.399414062 642.666992188 421.399414062 650 c 0
 406.06640625 657.333007812 392.06640625 661 379.399414062 661 c 0
 358.732421875 661 336.899414062 653.5 313.899414062 638.5 c 0
 290.899414062 623.5 269.232421875 602.5 248.899414062 575.5 c 0
 228.56640625 548.5 210.06640625 518 193.399414062 484 c 0
 176.06640625 449.333007812 162.06640625 410.5 151.399414062 367.5 c 0
 140.732421875 324.5 135.399414062 281 135.399414062 237 c 0
 135.399414062 205 141.399414062 174.166992188 153.399414062 144.5 c 0
 165.399414062 114.833007812 182.06640625 90 203.399414062 70 c 0
 224.06640625 50.6669921875 247.06640625 41 272.399414062 41 c 0
 289.06640625 41 305.733398438 46.6669921875 322.400390625 58 c 0
 339.067382812 69.3330078125 353.900390625 83.666015625 366.900390625 100.999023438 c 0
 379.900390625 118.33203125 392.067382812 137.33203125 403.400390625 157.999023438 c 0
 414.733398438 178.666015625 424.400390625 198.999023438 432.400390625 218.999023438 c 0
 440.400390625 238.999023438 446.733398438 257.33203125 451.400390625 273.999023438 c 0
 452.733398438 276.666015625 454.06640625 280.999023438 455.399414062 286.999023438 c 1
 450.732421875 285.666015625 446.065429688 285.333007812 441.3984375 286 c 0
 401.3984375 284 362.3984375 280.166992188 324.3984375 274.5 c 0
 286.3984375 268.833007812 259.731445312 261.333007812 244.3984375 252 c 0
 241.065429688 250 237.732421875 248.833007812 234.399414062 248.5 c 0
 231.06640625 248.166992188 227.733398438 249.333984375 224.400390625 252.000976562 c 0
 217.067382812 257.333984375 212.734375 264.333984375 211.401367188 273.000976562 c 2
 211.401367188 281.000976562 l 2
 211.401367188 298.333984375 221.734375 312.333984375 242.401367188 323.000976562 c 0xd8
 258.401367188 332.333984375 294.734375 339.666992188 351.401367188 345 c 0
 393.401367188 348.333007812 430.068359375 350 461.401367188 350 c 0
 467.401367188 350.333984375 473.068359375 350.500976562 478.401367188 350.500976562 c 0
 483.734375 350.500976562 488.734375 350.333984375 493.401367188 350 c 0
 508.068359375 348.666992188 517.735351562 346 522.40234375 342 c 0
 528.40234375 337.333007812 531.40234375 328.666015625 531.40234375 315.999023438 c 0
 531.40234375 309.33203125 530.235351562 303.665039062 527.90234375 298.998046875 c 0
 525.569335938 294.331054688 521.40234375 290.998046875 515.40234375 288.998046875 c 0
 513.40234375 286.331054688 511.40234375 285.331054688 509.40234375 285.998046875 c 1
 509.40234375 278.998046875 l 2
 509.40234375 276.998046875 508.90234375 271.665039062 507.90234375 262.998046875 c 0
 506.90234375 254.331054688 506.069335938 247.331054688 505.40234375 241.998046875 c 0
 504.069335938 227.998046875 500.069335938 211.831054688 493.40234375 193.498046875 c 0
 486.735351562 175.165039062 477.90234375 155.498046875 466.90234375 134.498046875 c 0
 455.90234375 113.498046875 442.735351562 92.998046875 427.40234375 72.998046875 c 0
 412.735351562 53.6650390625 397.068359375 35.998046875 380.401367188 19.998046875 c 0
 363.734375 3.998046875 345.401367188 -8.6689453125 325.401367188 -18.001953125 c 0
 305.401367188 -26.6689453125 285.068359375 -31.001953125 264.401367188 -31.001953125 c 2
 262.401367188 -31.001953125 l 1
 261.401367188 -31.001953125 l 2
 237.401367188 -31.001953125 214.734375 -26.6689453125 193.401367188 -18.001953125 c 0
 171.401367188 -8.6689453125 152.068359375 3.6640625 135.401367188 18.9970703125 c 0
 118.734375 34.330078125 104.234375 51.9970703125 91.9013671875 71.9970703125 c 0
 79.568359375 91.9970703125 70.4013671875 113.330078125 64.4013671875 135.997070312 c 0
 58.4013671875 158.6640625 55.4013671875 181.331054688 55.4013671875 203.998046875 c 0
 55.4013671875 253.998046875 60.234375 302.665039062 69.9013671875 349.998046875 c 0
 79.568359375 397.331054688 92.7353515625 439.831054688 109.40234375 477.498046875 c 0
 126.069335938 515.165039062 145.736328125 549.665039062 168.403320312 580.998046875 c 0
 189.0703125 612.331054688 210.903320312 638.331054688 233.903320312 658.998046875 c 0
 256.903320312 679.665039062 280.403320312 695.665039062 304.403320312 706.998046875 c 0
 328.403320312 718.331054688 351.403320312 723.998046875 373.403320312 723.998046875 c 0
 397.403320312 723.998046875 426.065429688 717.666992188 459.3984375 705 c 0xb8
EndSplineSet
Validated: 524289
EndChar

StartChar: H
Encoding: 72 72 41
Width: 590
GlyphClass: 2
Flags: HMW
HStem: 311.994 66.002 674.994 20G
VStem: 83.0005 79.499 424.499 83.001 433.499 80.001
LayerCount: 2
Fore
SplineSet
159.999023438 292 m 0xe8
 159.666015625 287.333007812 159.499023438 284 159.499023438 282 c 0
 157.499023438 248.666992188 156.499023438 209.833984375 156.499023438 165.500976562 c 0
 156.499023438 121.16796875 157.499023438 70.9951171875 159.499023438 14.9951171875 c 0
 158.166015625 3.662109375 152.833007812 -5.337890625 143.499023438 -12.0048828125 c 0
 134.166992188 -18.671875 123.833984375 -22.0048828125 112.500976562 -22.0048828125 c 1
 111.833984375 -28.0048828125 110.833984375 -27.671875 109.500976562 -21.0048828125 c 1
 99.5009765625 -21.671875 91.16796875 -18.3388671875 84.5009765625 -11.005859375 c 0
 78.5009765625 -5.005859375 75.5009765625 3 75.5009765625 13 c 0
 76.16796875 15 76.5009765625 16.994140625 76.5009765625 18.994140625 c 0
 77.833984375 38.3271484375 78.5009765625 81.3330078125 78.5009765625 148 c 0
 78.5009765625 182.666992188 78.833984375 214 79.5009765625 242 c 2
 79.5009765625 243 l 2
 79.5009765625 265 80.0009765625 297.166992188 81.0009765625 339.5 c 0
 82.0009765625 381.833007812 82.66796875 409.166015625 83.0009765625 421.499023438 c 0
 83.333984375 433.83203125 83.5009765625 446.165039062 83.5009765625 458.498046875 c 0
 83.5009765625 470.831054688 83.16796875 490.998046875 82.5009765625 518.998046875 c 0
 81.833984375 546.998046875 81.5009765625 565.498046875 81.5009765625 574.498046875 c 0
 81.5009765625 583.498046875 82.5009765625 608.662109375 84.5009765625 649.995117188 c 0
 85.16796875 665.328125 89.16796875 676.661132812 96.5009765625 683.994140625 c 0
 103.833984375 691.327148438 113.166992188 694.994140625 124.499023438 694.994140625 c 2
 127.499023438 694.994140625 l 2
 138.166992188 694.994140625 147.166992188 691.827148438 154.499023438 685.494140625 c 0
 161.833007812 679.161132812 165.499023438 668.328125 165.499023438 652.995117188 c 0
 165.499023438 646.328125 164.666992188 632.1640625 162.999023438 610.497070312 c 0
 161.333007812 588.830078125 160.499023438 568.830078125 160.499023438 550.497070312 c 0
 160.499023438 532.1640625 160.833007812 505.1640625 161.499023438 469.497070312 c 0
 162.166992188 433.830078125 162.499023438 406.663085938 162.499023438 387.99609375 c 2
 162.499023438 377.99609375 l 2
 165.166992188 371.329101562 168.166992188 371.329101562 171.499023438 377.99609375 c 1
 224.833007812 379.329101562 288.833007812 385.662109375 363.499023438 396.995117188 c 0
 392.166992188 400.995117188 415.166992188 403.662109375 432.499023438 404.995117188 c 1
 432.499023438 413.995117188 l 2
 432.499023438 418.662109375 432.166992188 425.662109375 431.499023438 434.995117188 c 0
 430.833007812 444.328125 430.499023438 451.328125 430.499023438 455.995117188 c 0
 429.833007812 497.328125 429.499023438 524.495117188 429.499023438 537.495117188 c 0
 429.499023438 550.495117188 430.166992188 570.995117188 431.499023438 598.995117188 c 0
 432.833007812 626.995117188 433.499023438 643.995117188 433.499023438 649.995117188 c 0
 433.499023438 665.328125 437.333007812 676.661132812 444.999023438 683.994140625 c 0
 452.666992188 691.327148438 461.833984375 694.994140625 472.500976562 694.994140625 c 2
 475.500976562 694.994140625 l 2
 486.833984375 694.994140625 496.166992188 691.827148438 503.499023438 685.494140625 c 0
 510.833007812 679.161132812 514.499023438 668.328125 514.499023438 652.995117188 c 0
 514.499023438 640.328125 513.999023438 614.495117188 512.999023438 575.495117188 c 0
 511.999023438 536.495117188 511.499023438 501.995117188 511.499023438 471.995117188 c 0
 511.499023438 441.995117188 511.833007812 398.995117188 512.499023438 342.995117188 c 0
 513.166992188 327.662109375 513.499023438 305.995117188 513.499023438 277.995117188 c 0xe8
 513.499023438 249.995117188 512.499023438 206.495117188 510.499023438 147.495117188 c 0
 508.499023438 88.4951171875 507.499023438 46.9951171875 507.499023438 22.9951171875 c 2
 507.499023438 16.9951171875 l 1
 507.499023438 14.9951171875 l 2
 507.499023438 4.328125 502.166992188 -4.671875 491.499023438 -12.0048828125 c 0
 482.833007812 -18.671875 472.833007812 -22.0048828125 461.499023438 -22.0048828125 c 1
 460.833007812 -28.0048828125 459.833007812 -27.671875 458.499023438 -21.0048828125 c 1
 447.833007812 -21.671875 439.166992188 -18.3388671875 432.499023438 -11.005859375 c 0
 427.166992188 -5.005859375 424.499023438 3.3271484375 424.499023438 13.994140625 c 2
 424.499023438 18.994140625 l 1xf0
 430.499023438 103.661132812 433.499023438 197.661132812 433.499023438 300.994140625 c 2
 433.499023438 342.995117188 l 1
 429.499023438 336.328125 425.831054688 335.994140625 422.499023438 341.994140625 c 1
 411.166015625 341.327148438 373.166015625 335.994140625 308.499023438 325.994140625 c 0
 244.499023438 316.661132812 198.166015625 311.994140625 169.499023438 311.994140625 c 2
 160.499023438 311.994140625 l 1
 160.499023438 301.994140625 l 2
 160.499023438 299.994140625 160.331054688 296.666992188 159.999023438 292 c 0xe8
EndSplineSet
Validated: 524289
EndChar

StartChar: I
Encoding: 73 73 42
Width: 590
GlyphClass: 2
Flags: HMW
HStem: -6.40211 58.3992 612 69.001 624 64.001
VStem: 253.5 76.001 260.5 75.001
LayerCount: 2
Fore
SplineSet
257.501953125 540 m 2xc8
 257.501953125 546.666992188 258.166992188 560.001953125 259.500976562 580.001953125 c 0
 260.833984375 600.001953125 261.501953125 611.668945312 261.501953125 615.001953125 c 2
 261.501953125 624.001953125 l 1
 227.501953125 624.668945312 199.168945312 625.001953125 176.501953125 625.001953125 c 0
 151.834960938 625.001953125 134.834960938 624.834960938 125.501953125 624.501953125 c 0
 116.168945312 624.168945312 111.168945312 624.001953125 110.501953125 624.001953125 c 0
 97.1689453125 624.001953125 87.3359375 626.834960938 81.0029296875 632.501953125 c 0
 74.669921875 638.168945312 71.5029296875 645.3359375 71.5029296875 654.002929688 c 2
 71.5029296875 657.002929688 l 2
 71.5029296875 665.002929688 74.5029296875 672.169921875 80.5029296875 678.502929688 c 0
 86.5029296875 684.8359375 96.8359375 688.002929688 111.502929688 688.002929688 c 0xa8
 166.834960938 690.002929688 216.499023438 691.002929688 260.499023438 691.002929688 c 0
 348.499023438 691.002929688 424.168945312 687.669921875 487.501953125 681.002929688 c 0
 498.834960938 679.669921875 507.502929688 677.002929688 513.502929688 673.002929688 c 0
 520.169921875 668.3359375 523.836914062 660.668945312 524.502929688 650.001953125 c 0
 524.502929688 640.001953125 521.502929688 630.668945312 515.502929688 622.001953125 c 0
 512.836914062 618.001953125 509.169921875 615.001953125 504.502929688 613.001953125 c 0
 501.169921875 611.668945312 498.169921875 611.001953125 495.502929688 611.001953125 c 0
 492.834960938 611.001953125 490.168945312 611.334960938 487.501953125 612.001953125 c 0
 466.834960938 615.334960938 416.166992188 619.001953125 335.500976562 623.001953125 c 1
 335.500976562 613.001953125 l 2
 335.500976562 607.668945312 335.166992188 590.168945312 334.500976562 560.501953125 c 0
 333.833984375 530.834960938 333.500976562 504.66796875 333.500976562 482.000976562 c 2
 333.500976562 436.000976562 l 2
 333.500976562 415.333984375 333.833984375 394.166992188 334.500976562 372.5 c 0
 335.166992188 350.833007812 335.500976562 326.166015625 335.500976562 298.499023438 c 0xc8
 335.500976562 270.83203125 334.500976562 227.999023438 332.500976562 169.999023438 c 0
 330.500976562 111.999023438 329.500976562 75.9990234375 329.500976562 61.9990234375 c 2
 329.500976562 51.9990234375 l 1
 338.500976562 51.9990234375 l 2
 362.500976562 51.9990234375 413.833984375 51.666015625 492.500976562 50.9990234375 c 0
 505.833984375 50.9990234375 514.666992188 48.4990234375 518.999023438 43.4990234375 c 0
 523.333007812 38.4990234375 525.833007812 31.666015625 526.499023438 22.9990234375 c 0
 526.499023438 17.666015625 525.999023438 12.9990234375 524.999023438 8.9990234375 c 0
 523.999023438 4.9990234375 522.166992188 0.9990234375 519.499023438 -3.0009765625 c 0
 518.166992188 -6.333984375 515.833984375 -8.5009765625 512.500976562 -9.5009765625 c 0
 509.166992188 -10.5009765625 506.000976562 -11.16796875 503.000976562 -11.5009765625 c 0
 500.000976562 -11.833984375 497.166992188 -11.6669921875 494.500976562 -11 c 0
 476.500976562 -8.3330078125 447.833984375 -7 408.500976562 -7 c 0
 403.833984375 -7 392.500976562 -6.8330078125 374.500976562 -6.5 c 0
 370.903320312 -6.43359375 367.052734375 -6.400390625 362.948242188 -6.400390625 c 0
 346.521484375 -6.400390625 326.038085938 -6.93359375 301.501953125 -8 c 2
 235.501953125 -15.2001953125 l 2
 220.834960938 -15.2001953125 206.166992188 -14.1337890625 191.500976562 -12.0009765625 c 0
 150.166992188 -13.333984375 121.666992188 -14.0009765625 106.000976562 -14.0009765625 c 0
 90.333984375 -14.0009765625 79.333984375 -11.5009765625 73.0009765625 -6.5009765625 c 0
 66.66796875 -1.5009765625 63.5009765625 4.9990234375 63.5009765625 12.9990234375 c 2
 63.5009765625 14.9990234375 l 2
 63.5009765625 22.9990234375 66.5009765625 30.166015625 72.5009765625 36.4990234375 c 0
 78.5009765625 42.83203125 88.833984375 46.33203125 103.500976562 46.9990234375 c 0
 131.500976562 47.666015625 181.500976562 48.998046875 253.500976562 50.998046875 c 1xd0
 258.166992188 133.665039062 260.500976562 215.999023438 260.500976562 297.999023438 c 0
 260.723632812 311.783203125 260.834960938 325.641601562 260.834960938 339.57421875 c 0
 260.834960938 367.418945312 260.389648438 395.560546875 259.501953125 423.998046875 c 0
 258.168945312 453.331054688 257.501953125 484.998046875 257.501953125 518.998046875 c 2
 257.501953125 540 l 2xc8
EndSplineSet
Validated: 524289
EndChar

StartChar: J
Encoding: 74 74 43
Width: 590
GlyphClass: 2
Flags: HMW
HStem: -34.999 82.001 626 65.001
VStem: 61.5 70 315.5 64.001
LayerCount: 2
Fore
SplineSet
199.500976562 626 m 0
 168.16796875 626 146.5 625.666015625 134.5 624.999023438 c 0
 122.5 624.33203125 116.166992188 623.999023438 115.5 623.999023438 c 0
 102.166992188 623.999023438 92.1669921875 626.83203125 85.5 632.499023438 c 0
 78.8330078125 638.166015625 75.5 645.333007812 75.5 654 c 2
 75.5 657 l 2
 75.5 665 78.6669921875 672.166992188 85 678.5 c 0
 91.3330078125 684.833007812 101.833007812 688 116.5 688 c 0
 171.166992188 690 220.5 691 264.5 691 c 0
 352.5 691 428.166992188 687.666992188 491.5 681 c 0
 502.833007812 680.333007812 511.5 677.666015625 517.5 672.999023438 c 0
 524.166992188 668.33203125 527.833984375 660.665039062 528.500976562 649.998046875 c 0
 528.500976562 639.998046875 525.500976562 630.665039062 519.500976562 621.998046875 c 0
 516.833984375 617.998046875 513.166992188 614.998046875 508.5 612.998046875 c 0
 505.833007812 611.665039062 503 610.998046875 500 610.998046875 c 0
 497 610.998046875 494.166992188 611.331054688 491.5 611.998046875 c 0
 471.5 615.331054688 432.833007812 618.331054688 375.5 620.998046875 c 1
 375.5 610.998046875 l 2
 375.5 591.665039062 376.166992188 562.33203125 377.5 522.999023438 c 0
 378.166992188 480.999023438 379.166992188 445.33203125 380.5 415.999023438 c 0
 381.833007812 387.999023438 382.5 353.83203125 382.5 313.499023438 c 0
 382.5 273.166015625 381.5 237.333007812 379.5 206 c 0
 374.833007812 146 367.666015625 98 357.999023438 62 c 0
 348.33203125 26 337.165039062 0.8330078125 324.498046875 -13.5 c 0
 311.831054688 -27.8330078125 296.831054688 -35 279.498046875 -35 c 0
 260.165039062 -35 240.83203125 -31.1669921875 221.499023438 -23.5 c 0
 202.166015625 -15.8330078125 185.166015625 -5.666015625 170.499023438 7.0009765625 c 0
 155.166015625 19.66796875 140.666015625 33.66796875 126.999023438 49.0009765625 c 0
 113.33203125 64.333984375 101.999023438 79.5009765625 92.9990234375 94.5009765625 c 0
 83.9990234375 109.500976562 76.83203125 123.000976562 71.4990234375 135.000976562 c 0
 66.166015625 147.000976562 63.166015625 156.66796875 62.4990234375 164.000976562 c 0
 61.83203125 167.333984375 61.4990234375 171.000976562 61.4990234375 175.000976562 c 0
 61.4990234375 183.000976562 62.83203125 192.000976562 65.4990234375 202.000976562 c 0
 66.83203125 208.66796875 69.9990234375 214.16796875 74.9990234375 218.500976562 c 0
 79.9990234375 222.833984375 86.4990234375 225.666992188 94.4990234375 227 c 2
 102.499023438 227 l 2
 110.499023438 227.666992188 116.83203125 225.666992188 121.499023438 221 c 0
 128.166015625 214.333007812 131.499023438 206 131.499023438 196 c 0
 131.499023438 176.666992188 137.499023438 154.333984375 149.499023438 129.000976562 c 0
 156.166015625 115.000976562 164.833007812 102.000976562 175.5 90.0009765625 c 0
 184.833007812 78.0009765625 197.666015625 67.833984375 213.999023438 59.5009765625 c 0
 230.33203125 51.16796875 248.499023438 47.0009765625 268.499023438 47.0009765625 c 0
 283.166015625 47.0009765625 294.166015625 60.66796875 301.499023438 88.0009765625 c 0
 308.83203125 117.333984375 313.499023438 164.666992188 315.499023438 230 c 2
 315.499023438 254 l 2
 315.499023438 267.333007812 314.999023438 310 313.999023438 382 c 0
 313.399414062 425.202148438 313.099609375 471.404296875 313.099609375 520.606445312 c 0
 313.099609375 553.404296875 313.233398438 587.536132812 313.5 623.000976562 c 1
 267.5 625.000976562 229.500976562 626 199.500976562 626 c 0
EndSplineSet
Validated: 524289
EndChar

StartChar: K
Encoding: 75 75 44
Width: 590
GlyphClass: 2
Flags: HMW
HStem: -21.0341 21G 694.001 21G
VStem: 68.4995 79.002 72.5015 83
LayerCount: 2
Fore
SplineSet
66.5 541.5 m 0xe0
 66.5 556.5 67.16796875 578.333007812 68.5009765625 607 c 0
 69.833984375 635 70.5009765625 652.666992188 70.5009765625 660 c 0
 71.16796875 678.666992188 75.16796875 692.333984375 82.5009765625 701.000976562 c 0
 89.833984375 709.66796875 99.1669921875 714.000976562 110.5 714.000976562 c 2
 113.5 714.000976562 l 2
 124.166992188 714.66796875 133.166992188 711.000976562 140.5 703.000976562 c 0
 147.83203125 695.66796875 151.5 682.334960938 151.5 663.001953125 c 0
 151.5 647.668945312 150.83203125 613.001953125 149.5 559.001953125 c 0
 148.166992188 505.001953125 147.166992188 452.334960938 146.5 401.001953125 c 1
 180.5 437.001953125 219.83203125 480.001953125 264.5 530.001953125 c 0
 353.83203125 625.334960938 406.5 680.001953125 422.5 694.001953125 c 0
 430.5 703.334960938 438.166992188 709.334960938 445.5 712.001953125 c 0
 450.166992188 714.001953125 454.166992188 715.001953125 457.5 715.001953125 c 0
 464.166992188 715.001953125 470.5 711.000976562 476.5 703.000976562 c 0
 481.83203125 694.333984375 484.5 685.334960938 484.5 676.001953125 c 0
 484.5 667.334960938 478.5 657.334960938 466.5 646.001953125 c 0
 456.5 634.001953125 422.5 597.668945312 364.5 537.001953125 c 0
 309.166992188 473.668945312 257.833984375 416.001953125 210.5 364.001953125 c 1
 216.5 357.001953125 l 2
 237.833984375 333.668945312 273.5 296.3359375 323.5 245.002929688 c 0
 424.16796875 142.3359375 484.5 79.3359375 504.5 56.0029296875 c 0
 513.16796875 46.0029296875 518.5 39.3359375 520.5 36.0029296875 c 0
 522.5 32.669921875 523.5 29.3369140625 523.5 26.00390625 c 0
 523.5 20.00390625 522.833984375 14.6708984375 521.5 10.00390625 c 0
 518.16796875 0.00390625 513.16796875 -7.6630859375 506.5 -12.99609375 c 0
 499.833984375 -18.3291015625 493.5 -20.9970703125 487.5 -20.9970703125 c 0
 487.10546875 -21.021484375 486.708984375 -21.0341796875 486.311523438 -21.0341796875 c 0
 475.9921875 -21.0341796875 465.0546875 -12.6875 453.5 4.0029296875 c 0
 446.166992188 13.3359375 422.5 36.3359375 382.5 73.0029296875 c 0
 345.166992188 110.3359375 304.833984375 151.3359375 261.5 196.002929688 c 0
 218.16796875 244.002929688 185.834960938 282.002929688 164.501953125 310.002929688 c 2
 147.501953125 331.002929688 l 1
 147.501953125 284.002929688 l 1xe0
 155.501953125 24.001953125 l 2
 154.834960938 9.3349609375 149.83203125 -1.9970703125 140.499023438 -9.9970703125 c 0
 131.166015625 -17.9970703125 120.8359375 -21.9970703125 109.502929688 -21.9970703125 c 1
 108.8359375 -27.9970703125 107.8359375 -27.6640625 106.502929688 -20.9970703125 c 1
 95.8359375 -21.6640625 87.1689453125 -17.3310546875 80.501953125 -7.998046875 c 0
 75.1689453125 0.001953125 72.501953125 10.6689453125 72.501953125 24.001953125 c 2
 72.501953125 28.001953125 l 2xd0
 74.501953125 50.001953125 75.501953125 86.6689453125 75.501953125 138.001953125 c 0
 74.8349609375 233.334960938 72.5 339.001953125 68.5 455.001953125 c 0
 67.1669921875 497.668945312 66.5 526.5 66.5 541.5 c 0xe0
EndSplineSet
Validated: 524289
EndChar

StartChar: L
Encoding: 76 76 45
Width: 590
GlyphClass: 2
Flags: HMW
HStem: -15 67.001
VStem: 96.498 72.0039
LayerCount: 2
Fore
SplineSet
513 72.5 m 0
 516 68.1669921875 518.5 63.5 520.5 58.5 c 0
 522.5 53.5 523.5 48.6669921875 523.5 44 c 0
 523.5 34 521.333007812 26.5 517 21.5 c 0
 512.666992188 16.5 503.166992188 12.6669921875 488.5 10 c 0
 443.833007812 1.3330078125 378.833007812 -5 293.5 -9 c 0
 207.5 -13 143.166992188 -15 100.5 -15 c 0
 90.5 -15.6669921875 82.1669921875 -12.333984375 75.5 -5.0009765625 c 0
 69.5 0.9990234375 66.5 9.33203125 66.5 19.9990234375 c 0
 66.5 21.9990234375 66.6669921875 24.9990234375 67 28.9990234375 c 0
 67.3330078125 32.9990234375 71.166015625 69.9990234375 78.4990234375 139.999023438 c 0
 85.83203125 211.33203125 91.1650390625 279.999023438 94.498046875 345.999023438 c 0
 95.8310546875 363.999023438 96.498046875 388.166015625 96.498046875 418.499023438 c 0
 96.498046875 448.83203125 96.3310546875 471.83203125 95.998046875 487.499023438 c 0
 95.6650390625 503.166015625 94.83203125 554.333007812 93.4990234375 641 c 0
 94.166015625 657 98.3330078125 668.666992188 106 676 c 0
 113.666992188 683.333007812 122.833984375 687 133.500976562 687 c 2
 136.500976562 687 l 2
 147.16796875 687 156.16796875 683.666992188 163.500976562 677 c 0
 170.833984375 670.333007812 174.500976562 659.666015625 174.500976562 644.999023438 c 0
 174.723632812 638.7734375 174.834960938 631.732421875 174.834960938 623.875976562 c 0
 174.834960938 608.174804688 174.390625 589.215820312 173.501953125 566.999023438 c 0
 171.501953125 517.666015625 169.834960938 475.333007812 168.501953125 440 c 0
 166.501953125 389.333007812 164.833984375 345.333007812 163.500976562 308 c 0
 162.833984375 280.666992188 160.501953125 240.333984375 156.501953125 187.000976562 c 0
 152.501953125 133.66796875 150.501953125 92.0009765625 150.501953125 62.0009765625 c 2
 150.501953125 52.0009765625 l 1
 174.500976562 52.0009765625 l 2
 223.833984375 52.66796875 281.16796875 56.3349609375 346.500976562 63.001953125 c 0
 414.500976562 69.6689453125 461.16796875 76.001953125 486.500976562 82.001953125 c 0
 489.16796875 82.6689453125 491.66796875 83.001953125 494.000976562 83.001953125 c 0
 496.333984375 83.001953125 498.833984375 82.6689453125 501.500976562 82.001953125 c 0
 506.16796875 80.001953125 510 76.8330078125 513 72.5 c 0
EndSplineSet
Validated: 524289
EndChar

StartChar: M
Encoding: 77 77 46
Width: 590
GlyphClass: 2
Flags: HMW
HStem: -10 21G<73.4995 78.8335> 684.001 20G
VStem: 44.4995 68.001 250.501 85.999
LayerCount: 2
Fore
SplineSet
101.5 5 m 0
 93.5 -5 84.1669921875 -10 73.5 -10 c 0
 54.1669921875 -9.3330078125 44.5 13.333984375 44.5 58.0009765625 c 0
 44.5 66.0009765625 45.3330078125 79.833984375 47 99.5009765625 c 0
 48.6669921875 119.16796875 51.1669921875 145.000976562 54.5 177.000976562 c 0
 57.8330078125 209.000976562 60.5 237.000976562 62.5 261.000976562 c 0
 68.5 342.333984375 72.5 394.000976562 74.5 416.000976562 c 0
 77.1669921875 444.66796875 80.5 480.000976562 84.5 522.000976562 c 0
 92.5 603.333984375 100.83203125 652.333984375 109.5 669.000976562 c 0
 116.166992188 681.000976562 125.5 690.000976562 137.5 696.000976562 c 0
 148.83203125 701.333984375 159.5 704.000976562 169.5 704.000976562 c 2
 173.5 704.000976562 l 2
 184.83203125 704.000976562 194.166015625 702.000976562 201.499023438 698.000976562 c 0
 210.166015625 692.66796875 215.83203125 684.334960938 218.5 673.001953125 c 0
 225.83203125 643.668945312 234 595.3359375 243 528.002929688 c 0
 252 460.669921875 261.166992188 383.502929688 270.5 296.502929688 c 0
 279.83203125 209.502929688 286.5 152.002929688 290.5 124.002929688 c 0
 293.16796875 106.669921875 296.166992188 84 299.5 56 c 1
 301.5 83.3330078125 303.166992188 106.002929688 304.5 124.002929688 c 0
 310.5 218.669921875 317.5 303.669921875 325.5 379.002929688 c 0
 331.5 434.3359375 339.33203125 489.668945312 349 545.001953125 c 0
 358.666992188 600.334960938 367.166992188 643.001953125 374.5 673.001953125 c 0
 376.5 681.001953125 381 687.668945312 388 693.001953125 c 0
 395 698.334960938 402.166992188 701.66796875 409.5 703.000976562 c 0
 414.83203125 703.66796875 419.5 704.000976562 423.5 704.000976562 c 2
 433.5 704.000976562 l 1
 437.5 704.000976562 l 1
 450.5 704.000976562 l 2
 453.83203125 704.000976562 458.33203125 703.333984375 464 702.000976562 c 0
 469.666992188 700.66796875 473.833984375 698.834960938 476.5 696.501953125 c 0
 479.16796875 694.168945312 482 690.668945312 485 686.001953125 c 0
 488 681.334960938 490.16796875 675.334960938 491.5 668.001953125 c 0
 494.16796875 647.334960938 502 547.501953125 515 368.501953125 c 0
 528 189.501953125 537.16796875 88.001953125 542.5 64.001953125 c 0
 544.5 53.3349609375 545.5 43.66796875 545.5 35.0009765625 c 0
 545.5 15.0009765625 538.5 1.66796875 524.5 -4.9990234375 c 0
 519.833984375 -6.9990234375 515 -7.9990234375 510 -7.9990234375 c 0
 505 -7.9990234375 499.5 -6.33203125 493.5 -2.9990234375 c 0
 483.5 2.333984375 475.5 14.333984375 469.5 33.0009765625 c 0
 455.5 77.0009765625 443.16796875 271.000976562 432.5 615.000976562 c 0
 431.833984375 631.66796875 431.166992188 653.000976562 430.5 679.000976562 c 1
 426.5 653.66796875 422.5 633.000976562 418.5 617.000976562 c 0
 399.83203125 520.333984375 387.83203125 432.333984375 382.5 353.000976562 c 0
 377.166992188 277.000976562 369.666992188 205.000976562 360 137.000976562 c 0
 350.33203125 69.0009765625 342.5 27.66796875 336.5 13.0009765625 c 0
 331.166992188 -0.33203125 315.833984375 -6.9990234375 290.5 -6.9990234375 c 2
 286.5 -6.9990234375 l 2
 277.16796875 -6.9990234375 269.16796875 -5.166015625 262.5 -1.4990234375 c 0
 255.833984375 2.16796875 251.833984375 7.3349609375 250.5 14.001953125 c 0
 243.16796875 46.001953125 230.834960938 119.168945312 213.501953125 233.501953125 c 0
 196.16796875 347.834960938 180.16796875 458.001953125 165.501953125 564.001953125 c 0
 162.16796875 579.334960938 159.16796875 599.66796875 156.501953125 625.000976562 c 1
 154.501953125 599.66796875 152.501953125 579.334960938 150.501953125 564.001953125 c 0
 145.834960938 505.334960938 142.16796875 457.66796875 139.5 421.000976562 c 0
 137.5 387.000976562 135.5 358.000976562 133.5 334.000976562 c 0
 131.5 300.66796875 129.5 271.66796875 127.5 247.000976562 c 0
 125.5 219.000976562 123.16796875 190.000976562 120.5 160.000976562 c 0
 118.5 131.333984375 116.5 107.666992188 114.5 89 c 0
 113.16796875 75 112.5 64 112.5 56 c 0
 113.16796875 48 113.5 46 113.5 46 c 2
 113.5 28.6669921875 109.5 15 101.5 5 c 0
EndSplineSet
Validated: 524289
EndChar

StartChar: N
Encoding: 78 78 47
Width: 590
GlyphClass: 2
Flags: HMW
HStem: -11.998 21G 685 20G<116.5 124.5 476.501 484.834>
VStem: 68.501 63 75.751 58.7499 448.502 72.999 459.002 62.4988
LayerCount: 2
Fore
SplineSet
481.500976562 705 m 0xc8
 488.16796875 705 493.5 704.333007812 497.5 703 c 0
 501.5 701 504.5 699 506.5 697 c 0
 508.5 695 510.166992188 690.666992188 511.5 684 c 0
 513.5 680 514.833007812 675.666992188 515.5 671 c 0
 516.166992188 666.333007812 517.166992188 659 518.5 649 c 0
 519.833007812 639.666992188 520.833007812 586.666992188 521.5 490 c 2
 521.5 448 l 2
 521.5 364 520.5 285.666992188 518.5 213 c 0
 516.5 139.666992188 514.166992188 89.6669921875 511.5 63 c 0
 508.833007812 35 506.166015625 17.6669921875 503.499023438 11 c 0
 498.166015625 -5.6669921875 482.833007812 -14 457.5 -14 c 1
 455.5 -20.6669921875 453.833007812 -20.6669921875 452.5 -14 c 1
 443.833007812 -14 436.5 -11.6669921875 430.5 -7 c 0
 424.5 -2.3330078125 420.166992188 4 417.5 12 c 0
 412.833007812 22.6669921875 397.5 52.333984375 371.5 101.000976562 c 2
 297.5 247.000976562 l 2
 272.166992188 295.66796875 245.833984375 350.334960938 218.500976562 411.001953125 c 0
 190.500976562 473.001953125 168.833984375 525.668945312 153.500976562 569.001953125 c 0
 145.500976562 592.334960938 137.833984375 613.334960938 130.500976562 632.001953125 c 1
 131.833984375 610.001953125 133.166992188 586.668945312 134.5 562.001953125 c 0
 137.833007812 504.668945312 139.5 450.001953125 139.5 398.001953125 c 0
 139.5 384.668945312 139.166992188 359.3359375 138.5 322.002929688 c 0
 137.833007812 284.002929688 136.5 237.669921875 134.5 183.002929688 c 0xd8
 132.5 128.3359375 131.5 90.6689453125 131.5 70.001953125 c 2
 131.5 62.001953125 l 2
 132.166992188 57.3349609375 132.5 53.3349609375 132.5 50.001953125 c 2
 132.5 44.001953125 l 2
 132.5 24.6689453125 129.166992188 10.6689453125 122.5 2.001953125 c 0
 115.833007812 -7.3310546875 107.5 -11.998046875 97.5 -11.998046875 c 2
 95.5 -11.998046875 l 2
 90.8330078125 -11.998046875 86.8330078125 -10.6650390625 83.5 -7.998046875 c 0
 80.1669921875 -5.3310546875 77.5 -0.6640625 75.5 6.0029296875 c 0
 70.8330078125 16.669921875 68.5 33.0029296875 68.5 55.0029296875 c 0xe0
 68.5 67.669921875 69.5 119.002929688 71.5 209.002929688 c 0
 73.5 299.669921875 74.8330078125 378.669921875 75.5 446.002929688 c 0
 75.6669921875 462.837890625 75.75 479.505859375 75.75 496.006835938 c 0
 75.75 545.504882812 75 593.50390625 73.5 640.002929688 c 2
 73.5 647.002929688 l 2
 74.1669921875 657.002929688 75.833984375 666.002929688 78.5009765625 674.002929688 c 0
 81.16796875 682.669921875 85.16796875 689.336914062 90.5009765625 694.00390625 c 0
 99.833984375 701.336914062 110.5 705 122.5 705 c 0
 126.5 705 130.16796875 704.670898438 133.500976562 704.00390625 c 2
 134.5 704.00390625 l 2
 145.166992188 704.00390625 154.16796875 701.666992188 161.500976562 697 c 0
 170.16796875 691.666992188 176.16796875 682.00390625 179.500976562 668.00390625 c 0
 192.833984375 624.00390625 228.833984375 541.336914062 287.500976562 420.00390625 c 0
 345.500976562 299.336914062 395.833984375 202.00390625 438.500976562 128.00390625 c 0
 443.833984375 115.336914062 449.166992188 106.00390625 454.5 100.00390625 c 1
 455.166992188 110.00390625 455.833984375 122.336914062 456.500976562 137.00390625 c 0
 457.833984375 179.670898438 458.500976562 234.670898438 458.500976562 302.00390625 c 0
 458.834960938 318.670898438 459.001953125 336.170898438 459.001953125 354.50390625 c 0xd4
 459.001953125 372.836914062 458.834960938 392.00390625 458.501953125 412.00390625 c 0
 456.501953125 532.670898438 453.168945312 612.337890625 448.501953125 651.004882812 c 1
 448.501953125 657.004882812 l 2
 448.501953125 669.671875 451.168945312 680.338867188 456.501953125 689.005859375 c 0
 463.168945312 699.672851562 471.500976562 705 481.500976562 705 c 0xc8
EndSplineSet
Validated: 524289
EndChar

StartChar: O
Encoding: 79 79 48
Width: 590
GlyphClass: 2
Flags: HMW
HStem: -23.998 73.999 646.508 71.4923
VStem: 69.5 77.002 443.501 76.999
LayerCount: 2
Fore
SplineSet
399.5 120.001953125 m 0
 412.166992188 137.334960938 421.833984375 157.001953125 428.500976562 179.001953125 c 0
 431.16796875 187.668945312 434.000976562 208.001953125 437.000976562 240.001953125 c 0
 440.000976562 272.001953125 442.16796875 309.668945312 443.500976562 353.001953125 c 0
 444.16796875 365.668945312 444.500976562 378.3359375 444.500976562 391.002929688 c 0
 444.500976562 422.3359375 443.16796875 453.002929688 440.500976562 483.002929688 c 0
 436.500976562 529.002929688 421.500976562 567.669921875 395.500976562 599.002929688 c 0
 371.500976562 630.3359375 341.833984375 646.168945312 306.500976562 646.501953125 c 0
 306.095703125 646.505859375 305.690429688 646.5078125 305.286132812 646.5078125 c 0
 270.487304688 646.5078125 241.225585938 632.338867188 217.500976562 604.000976562 c 0
 194.16796875 576.000976562 176.834960938 537.66796875 165.501953125 489.000976562 c 0
 152.834960938 437.000976562 146.501953125 377.66796875 146.501953125 311.000976562 c 0
 147.168945312 269.66796875 149.501953125 233.334960938 153.501953125 202.001953125 c 0
 155.501953125 183.334960938 159.501953125 164.66796875 165.501953125 146.000976562 c 0
 171.501953125 127.333984375 178.834960938 111.000976562 187.501953125 97.0009765625 c 0
 195.501953125 83.0009765625 206.168945312 71.66796875 219.501953125 63.0009765625 c 0
 232.834960938 54.333984375 247.833007812 50.0009765625 264.5 50.0009765625 c 0
 299.833007812 50.0009765625 331.501953125 59.66796875 359.501953125 79.0009765625 c 0
 374.168945312 89.0009765625 387.5 102.668945312 399.5 120.001953125 c 0
69.5 261 m 2
 69.5 291.666992188 69.833984375 316.166992188 70.5009765625 334.5 c 0
 71.16796875 352.833007812 72.5009765625 377.333007812 74.5009765625 408 c 0
 78.5009765625 467.333007812 89.5009765625 522 107.500976562 572 c 0
 124.16796875 614.666992188 152.500976562 649.666992188 192.500976562 677 c 0
 229.16796875 704.333007812 270.834960938 718 317.501953125 718 c 0
 340.834960938 718 363.16796875 713 384.500976562 703 c 0
 406.500976562 693 426.833984375 678.5 445.500976562 659.5 c 0
 464.16796875 640.5 479.66796875 616.166992188 492.000976562 586.5 c 0
 504.333984375 556.833007812 512.166992188 523.333007812 515.5 486 c 0
 518.833007812 444.666992188 520.5 402.333984375 520.5 359.000976562 c 0
 520.5 325.66796875 519.333007812 290.834960938 517 254.501953125 c 0
 514.666992188 218.168945312 510.5 188.668945312 504.5 166.001953125 c 0
 495.833007812 134.668945312 485.333007812 107.668945312 473 85.001953125 c 0
 460.666992188 62.3349609375 447.333984375 44.001953125 433.000976562 30.001953125 c 0
 418.66796875 16.001953125 402.16796875 5.001953125 383.500976562 -2.998046875 c 0
 366.16796875 -10.998046875 348.16796875 -16.6650390625 329.500976562 -19.998046875 c 0
 310.833984375 -22.6650390625 289.166992188 -23.998046875 264.5 -23.998046875 c 0
 229.166992188 -23.998046875 196.5 -11.998046875 166.5 12.001953125 c 0
 135.166992188 36.001953125 111.166992188 68.001953125 94.5 108.001953125 c 0
 77.8330078125 148.001953125 69.5 191.334960938 69.5 238.001953125 c 2
 69.5 243.001953125 l 1
 69.5 261 l 2
EndSplineSet
Validated: 524289
EndChar

StartChar: P
Encoding: 80 80 49
Width: 590
GlyphClass: 2
Flags: HMW
HStem: -19 21G<125.501 131.501 131.501 134.501> 230 71.998 639.996 52.0029
VStem: 88.501 75 95.701 81.7989 438.5 73<470.999 514.997>
LayerCount: 2
Fore
SplineSet
166.500976562 630.998046875 m 1xf4
 163.500976562 547.998046875 l 2
 161.3671875 480.26953125 160.30078125 417.874023438 160.30078125 360.810546875 c 0
 160.30078125 346.5390625 160.3671875 332.6015625 160.500976562 318.998046875 c 1
 167.500976562 316.998046875 l 2
 194.833984375 306.998046875 225.500976562 301.998046875 259.500976562 301.998046875 c 0
 277.500976562 301.998046875 294.000976562 303.498046875 309.000976562 306.498046875 c 0
 324.000976562 309.498046875 337.16796875 313.498046875 348.500976562 318.498046875 c 0
 359.833984375 323.498046875 369.833984375 329.998046875 378.500976562 337.998046875 c 0
 387.833984375 345.998046875 395.833984375 354.165039062 402.500976562 362.498046875 c 0
 409.16796875 370.831054688 414.834960938 380.331054688 419.501953125 390.998046875 c 0
 424.168945312 401.665039062 427.668945312 411.498046875 430.001953125 420.498046875 c 0
 432.334960938 429.498046875 434.16796875 439.665039062 435.500976562 450.998046875 c 0
 436.833984375 462.331054688 437.666992188 471.6640625 438 478.997070312 c 0
 438.333007812 486.330078125 438.5 494.997070312 438.5 504.997070312 c 0
 438.5 524.997070312 434.833007812 543.1640625 427.5 559.497070312 c 0
 420.166992188 575.830078125 410.833007812 588.997070312 399.5 598.997070312 c 0
 388.833007812 608.330078125 377.000976562 616.163085938 364.000976562 622.49609375 c 0
 351.000976562 628.829101562 338.66796875 633.329101562 327.000976562 635.99609375 c 0
 315.333984375 638.663085938 303.833007812 639.99609375 292.5 639.99609375 c 0
 271.833007812 639.99609375 229.833984375 636.998046875 166.500976562 630.998046875 c 1xf4
87.5 626 m 1
 86.1669921875 621.333007812 84.5 622.998046875 82.5 630.998046875 c 0
 79.8330078125 635.665039062 78.5 640 78.5 644 c 0
 79.1669921875 644.666992188 79.5 645.666992188 79.5 647 c 0
 80.1669921875 653.666992188 82.6669921875 659.5 87 664.5 c 0
 91.3330078125 669.5 95.8330078125 672.666992188 100.5 674 c 0
 123.833007812 679.333007812 158.5 683.666015625 204.5 686.999023438 c 0
 246.5 690.33203125 275.833007812 691.999023438 292.5 691.999023438 c 0
 332.5 691.999023438 368.166992188 684.33203125 399.5 668.999023438 c 0
 433.5 653.666015625 460.5 630.666015625 480.5 599.999023438 c 0
 500.5 569.33203125 510.833007812 532.33203125 511.5 488.999023438 c 0
 511.5 452.999023438 505.666992188 419.166015625 494 387.499023438 c 0
 482.333007812 355.83203125 466.333007812 328.33203125 446 304.999023438 c 0
 425.666992188 281.666015625 401.5 263.333007812 373.5 250 c 0
 346.833007812 236.666992188 317.833007812 230 286.5 230 c 0
 239.833007812 230 202.5 233.333007812 174.5 240 c 1
 169.833007812 234.666992188 165.5 235.666992188 161.5 243 c 1
 164.166992188 189.666992188 168.166992188 130.666992188 173.5 66 c 0
 176.166992188 35.3330078125 177.5 17.666015625 177.5 12.9990234375 c 2
 177.5 11.9990234375 l 2
 177.5 2.666015625 173.5 -4.6669921875 165.5 -10 c 0
 156.166992188 -16 145.833984375 -19 134.500976562 -19 c 2
 131.500976562 -19 l 2
 119.500976562 -19 109.833984375 -15.6669921875 102.500976562 -9 c 0
 97.16796875 -3.6669921875 94.5009765625 3.666015625 94.5009765625 12.9990234375 c 0
 94.5009765625 14.9990234375 94.66796875 20.166015625 95.0009765625 28.4990234375 c 0
 95.333984375 36.83203125 95.5009765625 55.6650390625 95.5009765625 84.998046875 c 0
 95.634765625 91.7998046875 95.701171875 100.109375 95.701171875 109.926757812 c 0xec
 95.701171875 149.180664062 94.634765625 212.538085938 92.5009765625 299.998046875 c 0
 90.5009765625 371.998046875 89.5009765625 420.998046875 89.5009765625 446.998046875 c 0
 88.833984375 462.998046875 88.5009765625 484.498046875 88.5009765625 511.498046875 c 0
 88.5009765625 538.498046875 89.16796875 575.665039062 90.5009765625 622.998046875 c 1
 89.16796875 617.665039062 88.1669921875 618.666992188 87.5 626 c 1
EndSplineSet
Validated: 524289
EndChar

StartChar: Q
Encoding: 81 81 50
Width: 590
GlyphClass: 2
Flags: HMW
HStem: -24.0667 74.0667 646.001 71.999
VStem: 65.5136 75.998 262.509 51.0039 443.512 74.002
LayerCount: 2
Fore
SplineSet
212.514648438 -11 m 0
 190.514648438 -1.6669921875 170.513671875 11.166015625 152.513671875 27.4990234375 c 0
 134.513671875 43.83203125 119.180664062 63.33203125 106.513671875 85.9990234375 c 0
 81.8466796875 129.999023438 68.1796875 182.666015625 65.5126953125 243.999023438 c 2
 65.5126953125 295.999023438 l 2
 65.49609375 298.634765625 65.48828125 301.259765625 65.48828125 303.874023438 c 0
 65.48828125 408.397460938 78.49609375 496.10546875 104.512695312 566.999023438 c 0
 119.845703125 609.666015625 147.845703125 645.333007812 188.512695312 674 c 0
 226.512695312 703.333007812 268.512695312 718 314.512695312 718 c 0
 362.512695312 717.333007812 404.512695312 699.333007812 440.512695312 664 c 0
 458.512695312 646.666992188 473.845703125 622.833984375 486.512695312 592.500976562 c 0
 499.1796875 562.16796875 507.512695312 527.66796875 511.512695312 489.000976562 c 0
 515.512695312 450.333984375 517.512695312 406.000976562 517.512695312 356.000976562 c 0
 517.512695312 269.333984375 513.1796875 204.000976562 504.512695312 160.000976562 c 0
 490.512695312 89.333984375 459.1796875 39.0009765625 410.512695312 9.0009765625 c 0
 407.1796875 2.333984375 404.1796875 0.6669921875 401.512695312 4 c 1
 418.845703125 -21.3330078125 435.178710938 -44.3330078125 450.51171875 -65 c 0
 465.178710938 -85 476.01171875 -99.5 483.01171875 -108.5 c 0
 490.01171875 -117.5 502.51171875 -133.666992188 520.51171875 -157 c 0
 523.178710938 -160.333007812 524.51171875 -164.333007812 524.51171875 -169 c 2
 524.51171875 -173 l 2
 523.178710938 -180.333007812 520.678710938 -187.166015625 517.01171875 -193.499023438 c 0
 513.344726562 -199.83203125 509.51171875 -204.33203125 505.51171875 -206.999023438 c 0
 500.178710938 -210.33203125 494.51171875 -211.999023438 488.51171875 -211.999023438 c 0
 485.844726562 -211.999023438 482.844726562 -211.666015625 479.51171875 -210.999023438 c 0
 469.51171875 -207.666015625 460.51171875 -201.333007812 452.51171875 -192 c 0
 442.51171875 -180.666992188 426.51171875 -158.666992188 404.51171875 -126 c 0
 384.51171875 -93.3330078125 363.51171875 -58 341.51171875 -20 c 1
 339.51171875 -26.6669921875 337.51171875 -27 335.51171875 -21 c 1
 320.178710938 -23 303.178710938 -24 284.51171875 -24 c 0
 282.778320312 -24.044921875 281.053710938 -24.0673828125 279.337890625 -24.0673828125 c 0
 255.321289062 -24.0673828125 233.047851562 -19.7109375 212.514648438 -11 c 0
301.51171875 208.999023438 m 0
 306.178710938 205.666015625 310.178710938 199.333007812 313.51171875 190 c 0
 324.178710938 156.666992188 340.178710938 120.333984375 361.51171875 81.0009765625 c 2
 366.51171875 71.0009765625 l 1
 374.51171875 77.0009765625 l 2
 403.844726562 98.333984375 423.177734375 131.333984375 432.510742188 176.000976562 c 0
 434.510742188 185.333984375 436.84375 205.666992188 439.510742188 237 c 0
 441.510742188 267.666992188 442.84375 306 443.510742188 352 c 2
 443.510742188 368 l 2
 443.59375 373.084960938 443.635742188 378.138671875 443.635742188 383.161132812 c 0
 443.635742188 418.305664062 441.59375 451.918945312 437.510742188 484.000976562 c 0
 431.510742188 532.66796875 416.177734375 572.000976562 391.510742188 602.000976562 c 0
 368.84375 631.333984375 339.510742188 646.000976562 303.510742188 646.000976562 c 0
 267.510742188 646.000976562 237.510742188 632.333984375 213.510742188 605.000976562 c 0
 189.510742188 577.66796875 171.84375 539.66796875 160.510742188 491.000976562 c 0
 147.84375 439.000976562 141.510742188 383.66796875 141.510742188 325.000976562 c 2
 141.510742188 321.000976562 l 2
 142.177734375 302.333984375 143.177734375 282.666992188 144.510742188 262 c 0
 147.177734375 221.333007812 154.677734375 185.5 167.010742188 154.5 c 0
 179.34375 123.5 195.676757812 98.3330078125 216.009765625 79 c 0
 236.342773438 59.6669921875 259.17578125 50 284.508789062 50 c 2
 293.508789062 50 l 1
 308.508789062 50 l 1
 301.508789062 65 l 2
 286.841796875 94.3330078125 276.674804688 116.833007812 271.0078125 132.5 c 0
 265.340820312 148.166992188 262.5078125 161.666992188 262.5078125 173 c 0
 262.5078125 187 267.174804688 198 276.5078125 206 c 0
 281.840820312 210.666992188 286.840820312 213 291.5078125 213 c 0
 294.840820312 213 298.178710938 211.666015625 301.51171875 208.999023438 c 0
EndSplineSet
Validated: 524289
EndChar

StartChar: R
Encoding: 82 82 51
Width: 590
GlyphClass: 2
Flags: HMW
HStem: -18.998 21G 280.633 68.3692 675.001 20G
VStem: 70.501 76.001 74.502 83.998 79.168 59.3317 80.001 70.5 436.499 72.0029
LayerCount: 2
Fore
SplineSet
414.501953125 504.000976562 m 0xe3
 399.834960938 522.66796875 382.500976562 538.834960938 362.500976562 552.501953125 c 0
 342.500976562 566.168945312 320.16796875 578.668945312 295.500976562 590.001953125 c 0
 248.833984375 610.668945312 202.833984375 625.001953125 157.500976562 633.001953125 c 2
 146.500976562 635.001953125 l 1xf1
 147.833984375 578.334960938 149.166992188 532.334960938 150.5 497.001953125 c 0
 150.5 485.001953125 149.499023438 465.334960938 147.499023438 438.001953125 c 0
 146.83203125 429.334960938 144.166015625 400.334960938 139.499023438 351.001953125 c 1
 147.499023438 350.001953125 l 2
 156.260742188 348.477539062 166.981445312 347.715820312 179.661132812 347.715820312 c 0
 189.171875 347.715820312 199.784179688 348.14453125 211.499023438 349.001953125 c 0
 289.499023438 352.334960938 342.83203125 359.334960938 371.499023438 370.001953125 c 0
 382.83203125 374.001953125 393.499023438 379.334960938 403.499023438 386.001953125 c 0
 425.499023438 400.001953125 436.499023438 419.668945312 436.499023438 445.001953125 c 0
 436.499023438 465.668945312 429.168945312 485.333984375 414.501953125 504.000976562 c 0xe3
449.500976562 3 m 0
 438.833984375 17 423.49609375 34.66796875 403.49609375 56.0009765625 c 0
 385.49609375 76.66796875 363.666015625 99.5009765625 337.999023438 124.500976562 c 0
 312.33203125 149.500976562 283.165039062 174.333984375 250.498046875 199.000976562 c 0
 217.831054688 223.66796875 184.831054688 243.334960938 151.498046875 258.001953125 c 1
 146.831054688 253.334960938 142.1640625 255.334960938 137.497070312 264.001953125 c 1
 138.1640625 252.668945312 138.497070312 249.001953125 138.497070312 249.001953125 c 2xe5
 139.830078125 210.334960938 143.497070312 163.001953125 149.497070312 107.001953125 c 0
 155.497070312 51.001953125 158.497070312 19.3349609375 158.497070312 12.001953125 c 0
 157.830078125 2.6689453125 153.497070312 -4.6640625 145.497070312 -9.9970703125 c 0
 136.1640625 -15.9970703125 125.831054688 -18.9970703125 114.498046875 -18.9970703125 c 2
 111.498046875 -18.9970703125 l 2
 100.165039062 -18.9970703125 90.83203125 -15.6640625 83.4990234375 -8.9970703125 c 0
 77.4990234375 -3.6640625 74.4990234375 3.6689453125 74.4990234375 13.001953125 c 0xe9
 75.166015625 14.3349609375 75.4990234375 16.3349609375 75.4990234375 19.001953125 c 0
 77.4990234375 53.6689453125 78.666015625 83.501953125 78.9990234375 108.501953125 c 0
 79.1103515625 116.827148438 79.166015625 129.051757812 79.166015625 145.176757812 c 0xe5
 79.166015625 177.473632812 78.943359375 225.415039062 78.498046875 289.000976562 c 2
 78.498046875 305.500976562 l 2
 78.498046875 314.500976562 78.998046875 333.000976562 79.998046875 361.000976562 c 0xe3
 80.998046875 389.000976562 81.498046875 412.833984375 81.498046875 432.500976562 c 0
 81.498046875 452.16796875 81.1650390625 472.000976562 80.498046875 492.000976562 c 0
 79.8310546875 512.000976562 77.998046875 541.500976562 74.998046875 580.500976562 c 0
 71.998046875 619.500976562 70.498046875 642.66796875 70.498046875 650.000976562 c 2
 70.498046875 656.000976562 l 1
 70.498046875 659.000976562 l 2xf1
 70.498046875 667.000976562 74.1650390625 674.66796875 81.498046875 682.000976562 c 0
 88.1650390625 690.66796875 97.83203125 695.000976562 110.499023438 695.000976562 c 0
 121.166015625 695.000976562 129.499023438 692.66796875 135.499023438 688.000976562 c 1
 136.83203125 681.333984375 137.830078125 681.000976562 138.497070312 687.000976562 c 1xe5
 192.497070312 684.333984375 239.999023438 677.166992188 280.999023438 665.5 c 0
 321.999023438 653.833007812 355.83203125 639.666015625 382.499023438 622.999023438 c 0
 410.499023438 606.33203125 434.33203125 587.33203125 453.999023438 565.999023438 c 0
 473.666015625 544.666015625 487.666015625 523.499023438 495.999023438 502.499023438 c 0
 504.33203125 481.499023438 508.499023438 460.33203125 508.499023438 438.999023438 c 0
 508.499023438 408.33203125 500.83203125 382.999023438 485.499023438 362.999023438 c 0
 478.166015625 353.666015625 468.499023438 345.166015625 456.499023438 337.499023438 c 0
 444.499023438 329.83203125 431.499023438 323.33203125 417.499023438 317.999023438 c 0
 404.166015625 312.666015625 388.829101562 307.833007812 371.49609375 303.5 c 0
 354.163085938 299.166992188 336.666992188 295.833984375 319 293.500976562 c 0
 301.333007812 291.16796875 281.5 289.000976562 259.5 287.000976562 c 0
 253.7109375 282.755859375 247.809570312 280.6328125 241.796875 280.6328125 c 0
 237.423828125 280.6328125 232.9921875 281.755859375 228.500976562 284.000976562 c 1
 236.301757812 273.201171875 244.372070312 267.801757812 252.711914062 267.801757812 c 0
 253.638671875 267.801757812 254.568359375 267.868164062 255.501953125 268.000976562 c 0
 316.168945312 234.000976562 370.16796875 194.333984375 417.500976562 149.000976562 c 0
 468.16796875 103.000976562 501.501953125 64.333984375 517.501953125 33.0009765625 c 0
 518.834960938 28.333984375 519.501953125 23.833984375 519.501953125 19.5009765625 c 0
 519.501953125 15.16796875 518.834960938 11.0009765625 517.501953125 7.0009765625 c 0
 514.168945312 -0.33203125 509.168945312 -6.33203125 502.501953125 -10.9990234375 c 0
 496.501953125 -15.666015625 490.501953125 -17.9990234375 484.501953125 -17.9990234375 c 0
 471.834960938 -17.9990234375 460.16796875 -11 449.500976562 3 c 0
EndSplineSet
Validated: 524289
EndChar

StartChar: S
Encoding: 83 83 52
Width: 590
GlyphClass: 2
Flags: HMW
HStem: -29.0049 67.0049 664.997 59.1678
VStem: 93.4991 81 446.496 80.0039
LayerCount: 2
Fore
SplineSet
64.4970703125 102 m 0
 66.4970703125 110.666992188 71.830078125 117 80.4970703125 121 c 0
 87.830078125 124.333007812 92.9970703125 126.333007812 95.9970703125 127 c 0
 98.9970703125 127.666992188 101.497070312 128 103.497070312 128 c 2
 109.497070312 128 l 2
 113.497070312 128 117.6640625 126 121.997070312 122 c 0
 126.330078125 118 131.163085938 112 136.49609375 104 c 0
 149.829101562 84 167.49609375 68 189.49609375 56 c 0
 210.163085938 44 233.49609375 38 259.49609375 38 c 0
 274.829101562 38 290.99609375 40.3330078125 307.99609375 45 c 0
 324.99609375 49.6669921875 341.49609375 56.6669921875 357.49609375 66 c 0
 373.49609375 75.3330078125 387.829101562 86.666015625 400.49609375 99.9990234375 c 0
 413.829101562 113.33203125 424.829101562 128.999023438 433.49609375 146.999023438 c 0
 442.163085938 164.999023438 446.49609375 183.999023438 446.49609375 203.999023438 c 0
 446.49609375 214.666015625 445.829101562 224.499023438 444.49609375 233.499023438 c 0
 443.163085938 242.499023438 440.330078125 252.166015625 435.997070312 262.499023438 c 0
 431.6640625 272.83203125 426.1640625 282.33203125 419.497070312 290.999023438 c 0
 412.830078125 299.666015625 403.830078125 308.333007812 392.497070312 317 c 0
 381.1640625 325.666992188 368.331054688 333 353.998046875 339 c 0
 339.665039062 345 321.998046875 350.666992188 300.998046875 356 c 0
 279.998046875 361.333007812 256.831054688 365.666015625 231.498046875 368.999023438 c 0
 210.831054688 371.666015625 191.831054688 377.666015625 174.498046875 386.999023438 c 0
 155.831054688 396.33203125 140.831054688 407.83203125 129.498046875 421.499023438 c 0
 118.165039062 435.166015625 109.33203125 449.666015625 102.999023438 464.999023438 c 0
 96.666015625 480.33203125 93.4990234375 495.33203125 93.4990234375 509.999023438 c 0
 93.4990234375 531.999023438 97.166015625 553.33203125 104.499023438 573.999023438 c 0
 111.83203125 594.666015625 123.165039062 614.166015625 138.498046875 632.499023438 c 0
 153.831054688 650.83203125 172.1640625 666.665039062 193.497070312 679.998046875 c 0
 213.497070312 693.331054688 237.6640625 703.998046875 265.997070312 711.998046875 c 0
 294.330078125 719.998046875 324.830078125 723.998046875 357.497070312 723.998046875 c 0
 360.165039062 724.109375 363.018554688 724.165039062 366.057617188 724.165039062 c 0
 381.2421875 724.165039062 401.055664062 722.776367188 425.497070312 719.999023438 c 0
 456.1640625 716.666015625 476.831054688 712.999023438 487.498046875 708.999023438 c 0
 498.165039062 704.999023438 505.498046875 698.999023438 509.498046875 690.999023438 c 0
 513.498046875 684.33203125 515.498046875 677.665039062 515.498046875 670.998046875 c 0
 515.498046875 662.331054688 513.498046875 655.998046875 509.498046875 651.998046875 c 0
 506.831054688 648.665039062 503.498046875 646.83203125 499.498046875 646.499023438 c 0
 495.498046875 646.166015625 491.831054688 645.999023438 488.498046875 645.999023438 c 0
 479.165039062 645.999023438 470.165039062 647.666015625 461.498046875 650.999023438 c 0
 449.498046875 654.33203125 439.831054688 656.665039062 432.498046875 657.998046875 c 0
 425.165039062 659.331054688 413.83203125 660.6640625 398.499023438 661.997070312 c 0
 383.83203125 663.997070312 367.499023438 664.997070312 349.499023438 664.997070312 c 0
 320.83203125 664.997070312 293.499023438 660.330078125 267.499023438 650.997070312 c 0
 240.83203125 640.997070312 218.83203125 625.997070312 201.499023438 605.997070312 c 0
 183.499023438 585.997070312 174.499023438 562.997070312 174.499023438 536.997070312 c 0
 175.166015625 506.997070312 187.166015625 481.997070312 210.499023438 461.997070312 c 0
 232.499023438 441.997070312 263.166015625 430.997070312 302.499023438 428.997070312 c 0
 336.499023438 426.997070312 366.166015625 421.330078125 391.499023438 411.997070312 c 0
 418.166015625 402.6640625 439.833007812 391.331054688 456.5 377.998046875 c 0
 473.166992188 364.665039062 487 348.998046875 498 330.998046875 c 0
 509 312.998046875 516.5 295.331054688 520.5 277.998046875 c 0
 524.5 260.665039062 526.5 241.998046875 526.5 221.998046875 c 0
 526.5 191.331054688 521.5 162.6640625 511.5 135.997070312 c 0
 501.5 109.330078125 487.666992188 86.1630859375 470 66.49609375 c 0
 452.333007812 46.8291015625 431.5 29.662109375 407.5 14.9951171875 c 0
 386.166992188 0.328125 362.5 -10.671875 336.5 -18.0048828125 c 0
 310.5 -25.337890625 283.833007812 -29.0048828125 256.5 -29.0048828125 c 0
 214.5 -29.0048828125 176.5 -20.0048828125 142.5 -2.0048828125 c 0
 108.5 15.9951171875 85.1669921875 37.662109375 72.5 62.9951171875 c 0
 66.5 75.662109375 63.5 86.3291015625 63.5 94.99609375 c 0
 63.5 97.6630859375 63.830078125 100 64.4970703125 102 c 0
EndSplineSet
Validated: 524289
EndChar

StartChar: T
Encoding: 84 84 53
Width: 590
GlyphClass: 2
Flags: HMW
HStem: 612 69<491 493 489 497.333> 640.499 54.499
VStem: 258.999 75 268.999 76.001
LayerCount: 2
Fore
SplineSet
101.999023438 694 m 0x60
 139.33203125 688 269 683.666992188 491 681 c 0
 503.666992188 681 512.666992188 678 518 672 c 0
 523.333007812 666 526.333007812 658.666992188 527 650 c 0
 527 639.333007812 523.666992188 630 517 622 c 0
 511.666992188 615.333007812 503.666992188 612 493 612 c 2
 489 612 l 2
 470.333007812 610.366210938 451.870117188 609.549804688 433.611328125 609.549804688 c 0
 399.703125 609.549804688 366.499023438 612.366210938 333.999023438 618 c 1xa0
 334.666015625 475.333007812 338.333007812 277.333007812 345 24 c 0
 344.333007812 12.6669921875 339.666015625 3.6669921875 330.999023438 -3 c 0
 322.33203125 -9.6669921875 312.999023438 -13 302.999023438 -13 c 1
 301.666015625 -19.6669921875 300.666015625 -19.6669921875 299.999023438 -13 c 1
 289.999023438 -13 281.999023438 -9.3330078125 275.999023438 -2 c 0
 271.33203125 3.3330078125 268.999023438 11 268.999023438 21 c 0x90
 268.999023438 23 269.166015625 26.6669921875 269.499023438 32 c 0
 269.83203125 37.3330078125 269.999023438 51.666015625 269.999023438 74.9990234375 c 0
 269.999023438 122.999023438 268.166015625 208.33203125 264.499023438 330.999023438 c 0
 260.83203125 453.666015625 258.999023438 540.999023438 258.999023438 592.999023438 c 2
 258.999023438 619.999023438 l 1
 170.33203125 624.666015625 119.33203125 627.999023438 105.999023438 629.999023438 c 0
 92.666015625 631.999023438 82.3330078125 635.499023438 75 640.499023438 c 0
 67.6669921875 645.499023438 64 651.999023438 64 659.999023438 c 1
 63.3330078125 653.999023438 63 654.666015625 63 661.999023438 c 0
 63 671.33203125 66.3330078125 679.665039062 73 686.998046875 c 0
 77.6669921875 692.331054688 84.333984375 694.998046875 93.0009765625 694.998046875 c 0
 95.66796875 694.998046875 98.666015625 694.666992188 101.999023438 694 c 0x60
EndSplineSet
Validated: 524289
EndChar

StartChar: U
Encoding: 85 85 54
Width: 590
GlyphClass: 2
Flags: HMW
HStem: -28.999 71 669.52 20G
VStem: 58.5379 73.9219 457.461 74.001
LayerCount: 2
Fore
SplineSet
527.461914062 250 m 0
 526.794921875 220.666992188 522.961914062 193.334960938 515.961914062 168.001953125 c 0
 508.961914062 142.668945312 500.461914062 120.668945312 490.461914062 102.001953125 c 0
 480.461914062 83.3349609375 468.62890625 66.501953125 454.961914062 51.501953125 c 0
 441.294921875 36.501953125 426.794921875 24.001953125 411.461914062 14.001953125 c 0
 397.461914062 4.001953125 382.794921875 -4.1650390625 367.461914062 -10.498046875 c 0
 352.12890625 -16.8310546875 337.12890625 -21.498046875 322.461914062 -24.498046875 c 0
 307.794921875 -27.498046875 292.627929688 -28.998046875 276.9609375 -28.998046875 c 0
 261.293945312 -28.998046875 244.793945312 -26.498046875 227.4609375 -21.498046875 c 0
 210.127929688 -16.498046875 192.127929688 -7.6650390625 173.4609375 5.001953125 c 0
 153.4609375 17.6689453125 135.793945312 33.501953125 120.4609375 52.501953125 c 0
 105.127929688 71.501953125 92.1279296875 96.001953125 81.4609375 126.001953125 c 0
 70.7939453125 156.001953125 64.7939453125 190.334960938 63.4609375 229.001953125 c 0
 60.1787109375 353.721679688 58.5380859375 453.825195312 58.5380859375 529.3125 c 0
 58.5380859375 576.490234375 59.1787109375 614.053710938 60.4609375 642.001953125 c 0
 60.4609375 657.334960938 64.6279296875 669.16796875 72.9609375 677.500976562 c 0
 80.9736328125 685.513671875 90.373046875 689.520507812 101.16015625 689.520507812 c 0
 101.590820312 689.520507812 102.024414062 689.513671875 102.459960938 689.500976562 c 0
 113.79296875 689.16796875 121.79296875 685.334960938 126.459960938 678.001953125 c 0
 130.459960938 671.334960938 132.459960938 661.334960938 132.459960938 648.001953125 c 0
 133.126953125 422.001953125 135.126953125 285.334960938 138.459960938 238.001953125 c 0
 139.79296875 215.334960938 142.125976562 196.334960938 145.458984375 181.001953125 c 0
 148.791992188 165.668945312 154.458984375 149.168945312 162.458984375 131.501953125 c 0
 170.458984375 113.834960938 179.791992188 98.66796875 190.458984375 86.0009765625 c 0
 201.125976562 73.333984375 214.625976562 62.833984375 230.958984375 54.5009765625 c 0
 247.291992188 46.16796875 265.791992188 42.0009765625 286.458984375 42.0009765625 c 0
 333.125976562 42.66796875 370.79296875 59.66796875 399.459960938 93.0009765625 c 0
 430.126953125 126.333984375 447.793945312 176.666992188 452.4609375 244 c 0
 454.4609375 272.666992188 455.793945312 305.166992188 456.4609375 341.5 c 0
 457.127929688 377.833007812 457.4609375 405 457.4609375 423 c 0
 457.4609375 441 457.293945312 469.833007812 456.9609375 509.5 c 0
 456.627929688 549.166992188 456.4609375 590.666992188 456.4609375 634 c 0
 456.4609375 661.333007812 460.127929688 678 467.4609375 684 c 0
 470.793945312 686.666992188 474.293945312 688.5 477.9609375 689.5 c 0
 481.627929688 690.5 486.4609375 691 492.4609375 691 c 0
 501.793945312 691 509.793945312 687.166992188 516.4609375 679.5 c 0
 523.127929688 671.833007812 526.794921875 660.333007812 527.461914062 645 c 0
 530.12890625 593 531.461914062 534 531.461914062 468 c 0
 531.461914062 402 530.12890625 329.333007812 527.461914062 250 c 0
EndSplineSet
Validated: 524289
EndChar

